<?xml version="1.0" encoding="utf-8"?>
<!-- Generator: Adobe Illustrator 16.0.1, SVG Export Plug-In . SVG Version: 6.00 Build 0)  -->
<!DOCTYPE svg PUBLIC "-//W3C//DTD SVG 1.1//EN" "http://www.w3.org/Graphics/SVG/1.1/DTD/svg11.dtd">
<svg version="1.1" id="Layer_1" xmlns="http://www.w3.org/2000/svg" xmlns:xlink="http://www.w3.org/1999/xlink" x="0px" y="0px"
	 width="128px" height="128px" viewBox="0 0 128 128" enable-background="new 0 0 128 128" xml:space="preserve">
<path opacity="0.1" fill="#040404" enable-background="new    " d="M120.842,50.368h-4.812c-0.868,0-1.989-0.808-2.266-1.63
	c-0.013-0.032-3.012-7.303-3.012-7.303c-0.439-0.888-0.238-2.256,0.385-2.88l3.403-3.403c0.972-0.972,1.507-2.268,1.507-3.648
	c0-1.379-0.535-2.674-1.507-3.646L101.141,14.46c-0.971-0.971-2.266-1.506-3.646-1.507c-1.382,0-2.677,0.535-3.647,1.507
	l-3.402,3.403c-0.612,0.612-1.975,0.833-2.75,0.445c-0.032-0.016-7.305-3.023-7.305-3.023c-0.936-0.317-1.76-1.43-1.76-2.313V8.158
	C78.631,5.313,76.316,3,73.475,3H54.526c-2.844,0-5.158,2.313-5.158,5.158v4.814c0,0.868-0.808,1.99-1.63,2.266
	c-0.032,0.012-7.303,3.011-7.303,3.011c-0.888,0.439-2.257,0.237-2.879-0.386l-3.403-3.402c-0.972-0.972-2.267-1.507-3.647-1.507
	s-2.675,0.536-3.646,1.507L13.46,27.86c-0.973,0.973-1.509,2.268-1.509,3.647s0.536,2.674,1.509,3.646l3.403,3.403
	c0.612,0.612,0.833,1.974,0.445,2.749c-0.016,0.033-3.023,7.306-3.023,7.306c-0.317,0.934-1.43,1.758-2.313,1.758H8.405
	C5.562,50.368,2,52.682,2,55.526v18.947c0,2.846,2.314,5.158,5.158,5.158h4.814c0.868,0,1.99,0.809,2.265,1.63
	c0.012,0.032,3.012,7.304,3.012,7.304c0.439,0.887,0.237,2.256-0.386,2.881l-3.403,3.402c-2.011,2.01-2.011,5.281,0,7.293
	l13.4,13.398c0.971,0.972,2.266,1.507,3.646,1.507c1.381,0,2.676-0.535,3.648-1.507l3.403-3.403c0.612-0.61,1.974-0.831,2.749-0.444
	c0.033,0.016,7.306,3.022,7.306,3.022c0.934,0.317,1.758,1.431,1.758,2.313v4.812c0,2.844,2.314,5.158,5.158,5.158h18.947
	c2.844,0,5.157-2.314,5.157-5.158v-4.812c0-0.868,0.81-1.989,1.632-2.267c0.031-0.012,7.303-3.011,7.303-3.011
	c0.889-0.439,2.256-0.238,2.879,0.385l3.404,3.403c0.971,0.972,2.267,1.507,3.646,1.507c1.381,0,2.676-0.535,3.646-1.507
	l13.399-13.399c0.972-0.971,1.507-2.266,1.507-3.646c0-1.379-0.535-2.677-1.507-3.646l-3.403-3.404
	c-0.611-0.611-0.832-1.973-0.445-2.748c0.017-0.033,3.023-7.307,3.023-7.307c0.317-0.934,1.43-1.758,2.312-1.758h4.813
	c2.845,0,5.158-2.312,5.158-5.158V55.526C126,52.682,123.686,50.368,120.842,50.368z M64,81.701c-10.036,0-18.2-8.165-18.2-18.201
	S53.964,45.3,64,45.3c10.035,0,18.2,8.165,18.2,18.2S74.035,81.701,64,81.701z"/>
<path opacity="0.1" fill="#030303" enable-background="new    " d="M120.842,50.368h-4.812c-1.299,0-2.801-1.081-3.215-2.312
	c-0.022-0.064-2.986-7.239-2.986-7.239c-0.61-1.227-0.314-3.05,0.604-3.969l3.402-3.403c0.782-0.783,1.214-1.827,1.214-2.94
	c0-1.113-0.432-2.157-1.214-2.939l-13.398-13.399c-0.783-0.782-1.826-1.213-2.939-1.214c-1.113,0-2.157,0.431-2.939,1.214
	l-3.402,3.403c-0.918,0.917-2.742,1.213-3.903,0.633c-0.065-0.03-7.24-2.993-7.24-2.993c-1.296-0.437-2.377-1.939-2.377-3.238V7.158
	C77.631,4.865,75.766,3,73.475,3H54.526c-2.293,0-4.158,1.865-4.158,4.158v4.814c0,1.299-1.081,2.801-2.312,3.214
	c-0.064,0.024-7.239,2.987-7.239,2.987c-1.227,0.61-3.051,0.314-3.969-0.604l-3.403-3.402c-0.783-0.783-1.827-1.214-2.94-1.214
	c-1.113,0-2.157,0.432-2.939,1.214l-13.4,13.399c-1.621,1.621-1.621,4.258,0,5.879l3.403,3.403c0.917,0.918,1.213,2.742,0.633,3.903
	c-0.03,0.065-2.994,7.24-2.994,7.24c-0.437,1.296-1.938,2.376-3.237,2.376H8.405C6.113,50.368,3,52.233,3,54.526v18.947
	c0,2.293,1.865,4.158,4.158,4.158h4.814c1.299,0,2.801,1.08,3.213,2.312c0.024,0.063,2.988,7.238,2.988,7.238
	c0.61,1.228,0.314,3.051-0.603,3.969l-3.403,3.404c-1.621,1.62-1.621,4.258,0,5.879l13.4,13.398
	c0.782,0.781,1.826,1.214,2.939,1.214c1.114,0,2.158-0.433,2.94-1.214l3.403-3.402c0.918-0.918,2.742-1.214,3.903-0.634
	c0.065,0.03,7.24,2.994,7.24,2.994c1.295,0.437,2.376,1.938,2.376,3.237v4.812c0,2.293,1.865,4.158,4.158,4.158h18.947
	c2.293,0,4.157-1.865,4.157-4.158v-4.812c0-1.299,1.081-2.801,2.313-3.215c0.063-0.022,7.238-2.986,7.238-2.986
	c1.228-0.61,3.053-0.315,3.969,0.604l3.404,3.402c0.781,0.781,1.825,1.214,2.938,1.214c1.112,0,2.157-0.433,2.938-1.214
	l13.399-13.398c0.782-0.783,1.214-1.826,1.214-2.939s-0.432-2.157-1.214-2.939l-3.403-3.402c-0.918-0.918-1.213-2.742-0.633-3.903
	c0.03-0.065,2.994-7.24,2.994-7.24c0.438-1.295,1.938-2.376,3.236-2.376h4.813c2.293,0,4.158-1.865,4.158-4.158V54.526
	C125,52.233,123.135,50.368,120.842,50.368z M64,81.691c-9.755,0-17.692-7.937-17.692-17.691S54.245,46.308,64,46.308
	c9.756,0,17.691,7.937,17.691,17.692C81.691,73.756,73.756,81.691,64,81.691z"/>
<path opacity="0.5" fill="#3A3A3D" enable-background="new    " d="M120.842,49.446h-4.812c-1.299,0-2.801-1.083-3.215-2.316
	c-0.022-0.064-2.986-7.25-2.986-7.25c-0.61-1.229-0.314-3.055,0.604-3.975l3.402-3.409c0.782-0.784,1.214-1.83,1.214-2.945
	c0-1.114-0.432-2.16-1.214-2.944l-13.398-13.421c-0.783-0.784-1.826-1.216-2.939-1.216s-2.157,0.432-2.939,1.216l-3.402,3.408
	c-0.918,0.919-2.742,1.215-3.903,0.634c-0.065-0.03-7.24-2.998-7.24-2.998c-1.296-0.438-2.377-1.942-2.377-3.243V6.165
	C77.631,3.868,75.766,2,73.475,2H54.526c-2.293,0-4.158,1.868-4.158,4.165v4.822c0,1.301-1.081,2.806-2.312,3.219
	c-0.064,0.024-7.239,2.992-7.239,2.992c-1.227,0.611-3.051,0.315-3.969-0.604l-3.403-3.408c-0.783-0.784-1.827-1.216-2.94-1.216
	c-1.113,0-2.157,0.433-2.939,1.216l-13.4,13.421c-1.621,1.624-1.621,4.266,0,5.889l3.403,3.409c0.917,0.919,1.213,2.746,0.633,3.91
	c-0.03,0.065-2.994,7.252-2.994,7.252c-0.437,1.298-1.938,2.38-3.237,2.38H8.405C6.113,49.446,3,51.314,3,53.611V72.59
	c0,2.296,1.865,4.164,4.158,4.164h4.814c1.299,0,2.801,1.082,3.213,2.316c0.024,0.063,2.988,7.25,2.988,7.25
	c0.61,1.229,0.314,3.056-0.603,3.976l-3.403,3.409c-1.621,1.623-1.621,4.266,0,5.889l13.4,13.422
	c0.782,0.783,1.826,1.215,2.939,1.215c1.114,0,2.158-0.432,2.94-1.215l3.403-3.408c0.918-0.92,2.742-1.217,3.903-0.635
	c0.065,0.029,7.24,2.998,7.24,2.998c1.295,0.438,2.376,1.941,2.376,3.243v4.821c0,2.297,1.865,4.165,4.158,4.165h18.947
	c2.293,0,4.157-1.868,4.157-4.165v-4.821c0-1.302,1.081-2.806,2.313-3.22c0.063-0.023,7.238-2.992,7.238-2.992
	c1.228-0.611,3.053-0.314,3.969,0.604l3.404,3.408c0.781,0.784,1.825,1.217,2.938,1.217c1.112,0,2.157-0.433,2.938-1.217
	l13.399-13.421c0.782-0.782,1.214-1.829,1.214-2.944c0-1.114-0.432-2.16-1.214-2.943l-3.403-3.409
	c-0.918-0.919-1.213-2.747-0.633-3.909c0.03-0.066,2.994-7.252,2.994-7.252c0.438-1.299,1.938-2.381,3.236-2.381h4.813
	c2.293,0,4.158-1.868,4.158-4.164V53.611C125,51.314,123.135,49.446,120.842,49.446z M64,82.191
	c-10.583,0-19.192-8.609-19.192-19.191c0-10.583,8.609-19.192,19.192-19.192c10.582,0,19.191,8.609,19.191,19.192
	C83.191,73.582,74.582,82.191,64,82.191z"/>
<path fill="#7A7A7A" d="M120.748,50.389h-4.807c-1.777,0-3.685-1.372-4.25-3.058l-2.955-7.156c-0.793-1.584-0.418-3.9,0.84-5.158
	l3.396-3.397c0.573-0.574,0.891-1.34,0.891-2.159c0-0.818-0.316-1.584-0.891-2.158L99.596,13.927c-0.572-0.574-1.34-0.89-2.156-0.89
	c-0.818,0-1.586,0.316-2.16,0.89l-3.396,3.397c-1.258,1.257-3.573,1.633-5.165,0.837l-7.154-2.956
	c-1.681-0.563-3.053-2.469-3.053-4.247V6.152c0-1.683-1.369-3.052-3.053-3.052H54.542c-1.684,0-3.053,1.369-3.053,3.052v4.806
	c0,1.778-1.372,3.684-3.058,4.25l-7.156,2.956c-1.584,0.792-3.901,0.417-5.158-0.84l-3.397-3.397c-0.574-0.574-1.34-0.89-2.159-0.89
	c-0.818,0-1.584,0.316-2.158,0.89L15.026,27.304c-1.19,1.19-1.19,3.126,0,4.316l3.397,3.397c1.257,1.257,1.633,3.574,0.837,5.165
	l-2.956,7.156c-0.563,1.68-2.468,3.051-4.247,3.051H8.5c-1.659,0-4.3,1.397-4.3,3.053v18.916c0,1.685,1.369,3.054,3.052,3.054h4.806
	c1.778,0,3.684,1.372,4.249,3.06l2.957,7.155c0.792,1.584,0.417,3.899-0.84,5.158l-3.397,3.396c-1.19,1.19-1.19,3.127,0,4.316
	l13.377,13.377c0.573,0.574,1.34,0.891,2.158,0.891s1.585-0.315,2.159-0.891l3.397-3.396c1.257-1.258,3.574-1.633,5.165-0.838
	l7.156,2.955c1.68,0.563,3.051,2.471,3.051,4.248v4.805c0,1.685,1.369,3.054,3.053,3.054h18.916c1.684,0,3.053-1.369,3.053-3.054
	v-4.805c0-1.777,1.372-3.686,3.059-4.25c0-0.001,7.156-2.956,7.156-2.956c1.584-0.792,3.899-0.417,5.157,0.841l3.396,3.396
	c0.574,0.574,1.342,0.891,2.16,0.891c0.816,0,1.584-0.315,2.156-0.891l13.377-13.377c0.574-0.573,0.891-1.34,0.891-2.158
	s-0.315-1.584-0.891-2.158l-3.396-3.396c-1.259-1.259-1.634-3.575-0.839-5.166l2.957-7.155c0.562-1.68,2.47-3.052,4.246-3.052h4.808
	c1.683,0,3.052-1.369,3.052-3.054V53.442C123.8,51.759,122.432,50.389,120.748,50.389z M64,93.9c-17.038,0-30.9-13.862-30.9-30.9
	S46.962,32.1,64,32.1S94.9,45.962,94.9,63S81.038,93.9,64,93.9z"/>
<path opacity="0.1" fill="#030303" enable-background="new    " d="M64,21c-24.262,0-44,19.738-44,44c0,24.262,19.738,44,44,44
	c24.262,0,44-19.738,44-44C108,40.738,88.262,21,64,21z M64,94c-17.122,0-31-13.878-31-31s13.878-31,31-31s31,13.878,31,31
	S81.122,94,64,94z"/>
<path opacity="0.1" fill="#3B3B3E" enable-background="new    " d="M64,21.7c-23.71,0-43,19.29-43,43s19.29,43,43,43
	c23.711,0,43-19.289,43-43S87.711,21.7,64,21.7z M64,86.9c-12.814,0-23.2-10.387-23.2-23.201S51.186,40.5,64,40.5
	c12.814,0,23.2,10.386,23.2,23.2C87.2,76.514,76.814,86.9,64,86.9z"/>
<path opacity="0.3" fill="#1C1C1E" enable-background="new    " d="M64,20c-23.71,0-43,19.29-43,43c0,23.711,19.29,43,43,43
	c23.711,0,43-19.289,43-43C107,39.29,87.711,20,64,20z M64,89.9c-14.858,0-26.9-12.043-26.9-26.9c0-14.858,12.042-26.9,26.9-26.9
	c14.857,0,26.9,12.042,26.9,26.9C90.9,77.857,78.857,89.9,64,89.9z"/>
<path fill="#848484" d="M64,21.395c-22.941,0-41.605,18.664-41.605,41.605c0,22.941,18.664,41.605,41.605,41.605
	c22.941,0,41.605-18.664,41.605-41.605C105.605,40.059,86.941,21.395,64,21.395z M64,93.6c-16.901,0-30.6-13.697-30.6-30.6
	c0-16.902,13.699-30.6,30.6-30.6c16.9,0,30.6,13.699,30.6,30.6C94.6,79.9,80.9,93.6,64,93.6z"/>
<path fill="#7A7A7A" d="M64,32c-17.121,0-31,13.879-31,31s13.879,31,31,31s31-13.879,31-31S81.121,32,64,32z M64,83.5
	c-11.323,0-20.5-9.178-20.5-20.5c0-11.323,9.177-20.5,20.5-20.5c11.322,0,20.5,9.177,20.5,20.5C84.5,74.322,75.322,83.5,64,83.5z"/>
</svg>
