<?xml version="1.0" encoding="utf-8"?>
<!-- Generator: Adobe Illustrator 16.0.1, SVG Export Plug-In . SVG Version: 6.00 Build 0)  -->
<!DOCTYPE svg PUBLIC "-//W3C//DTD SVG 1.1//EN" "http://www.w3.org/Graphics/SVG/1.1/DTD/svg11.dtd">
<svg version="1.1" id="Layer_1" xmlns="http://www.w3.org/2000/svg" xmlns:xlink="http://www.w3.org/1999/xlink" x="0px" y="0px"
	 width="508.982px" height="179.876px" viewBox="0 0 508.982 179.876" enable-background="new 0 0 508.982 179.876"
	 xml:space="preserve">
<g id="logo2">
	<path fill="#E3E3E3" d="M482.544,76.26c-0.257-6.317-1.999-11.413-5.223-15.291c-3.227-3.878-7.727-5.818-13.519-5.818
		c-6.573,0-11.57,1.838-14.992,5.52c-3.417,3.683-5.455,8.881-6.111,15.59L482.544,76.26L482.544,76.26z M356.285,57.518h-18.736
		c-2.868-6.452-2.68-14.988-0.901-21.191l19.846,0.107l0.115-34.714c8.772-2.295,17.872-2.292,27.299,0.002v34.489h23.87
		c0.395,1.974,0.657,3.748,0.791,5.327c0.131,1.58,0.194,3.222,0.194,4.929c0,1.843-0.063,3.618-0.194,5.33
		c-0.134,1.71-0.396,3.615-0.791,5.722h-23.87v40.049c0,4.074,0.333,7.363,0.989,9.864c0.651,2.494,1.608,4.47,2.856,5.918
		c1.251,1.447,2.796,2.431,4.635,2.959c1.845,0.522,4.017,0.788,6.516,0.788c1.971,0,3.91-0.163,5.823-0.495
		c1.903-0.328,3.577-0.625,5.025-0.887c0.919,2.499,1.579,5.097,1.97,7.793c0.396,2.698,0.596,5.101,0.596,7.199
		c0,1.449-0.033,2.667-0.1,3.65c-0.065,0.99-0.161,1.944-0.294,2.863c-6.049,1.444-12.296,2.167-18.741,2.167
		c-11.971,0-21.11-2.792-27.424-8.382c-6.312-5.59-9.472-14.697-9.472-27.324V57.517L356.285,57.518L356.285,57.518z
		 M304.405,91.447c-1.579-0.261-3.288-0.491-5.131-0.687c-1.842-0.201-3.484-0.3-4.931-0.3c-6.442,0-11.541,1.151-15.292,3.453
		c-3.747,2.3-5.619,6.018-5.619,11.146c0,3.421,0.725,6.047,2.17,7.891c1.442,1.845,3.188,3.19,5.226,4.045
		c2.041,0.854,4.213,1.382,6.512,1.579c2.304,0.196,4.312,0.294,6.019,0.294c1.975,0,3.947-0.163,5.92-0.491
		c1.972-0.332,3.683-0.626,5.13-0.89V91.446L304.405,91.447L304.405,91.447z M304.405,71.128c0-3.155-0.526-5.722-1.579-7.693
		c-1.053-1.973-2.497-3.518-4.341-4.635c-1.841-1.119-4.111-1.875-6.809-2.271c-2.694-0.394-5.686-0.593-8.977-0.593
		c-7.1,0-14.662,1.382-22.688,4.143c-1.84-3.421-3.219-6.644-4.143-9.666c-0.917-3.025-1.379-6.641-1.379-10.853
		c5.789-1.97,11.573-3.418,17.361-4.338c5.785-0.921,11.18-1.38,16.175-1.38c13.681,0,24.368,3.286,32.062,9.864
		c7.691,6.574,11.541,17.095,11.541,31.563v59.184c-4.604,1.448-10.196,2.829-16.77,4.144c-6.576,1.315-14.006,1.973-22.291,1.973
		c-6.708,0-12.858-0.591-18.448-1.775c-5.59-1.183-10.389-3.157-14.397-5.918c-4.015-2.761-7.104-6.313-9.275-10.652
		c-2.169-4.342-3.255-9.67-3.255-15.979c0-6.314,1.346-11.606,4.043-15.885c2.699-4.272,6.185-7.692,10.453-10.256
		c4.278-2.566,9.046-4.407,14.305-5.525c5.263-1.118,10.522-1.68,15.785-1.68c3.811,0,8.018,0.201,12.625,0.594L304.405,71.128
		L304.405,71.128z M103.669,36.331c8.68-1.688,19.044-2.035,28.708-0.121v101.995c-4.736,0.789-9.34,1.182-13.813,1.182
		c-4.338,0-10.161-0.272-14.895-1.062v-19.946V92.064V36.331z M28.013,116.502c3.552,1.052,7.631,1.58,12.232,1.58
		c18.893,0,28.21-15.053,28.21-31.764c0-12.827-6.521-28.404-22.291-28.404c-13.632,0-18.151,12.112-18.151,23.869V116.502
		L28.013,116.502z M0,36.011c1.84-0.394,3.649-0.656,5.425-0.788c1.774-0.135,3.783-0.197,6.017-0.197
		c3.683,0,10.789,0.27,14.604,1.058l-0.004,14.727c1.184-2.107,2.632-4.183,4.338-6.215c1.71-2.039,3.782-3.848,6.214-5.427
		c2.436-1.579,5.166-2.86,8.19-3.848c3.024-0.986,6.379-1.479,10.059-1.479c5.657,0,10.951,1.049,15.885,3.155
		c4.929,2.104,9.237,5.296,12.919,9.566c3.684,4.278,6.546,9.635,8.584,16.081c2.036,6.443,3.056,14.073,3.056,22.885
		c0,8.548-1.248,16.21-3.746,22.985c-2.499,6.772-6.114,12.525-10.854,17.263c-4.734,4.735-10.52,8.384-17.358,10.945
		c-6.839,2.567-14.601,3.848-23.28,3.848c-2.232,0-4.438-0.095-6.607-0.294c-2.173-0.198-3.978-0.428-5.427-0.69v38.622
		c-9.244,2.248-19.083,2.201-28.013,0V36.011H0z M103.768,25.833c-1.551-8.81-1.507-15.72,0-24.525
		c2.239-0.397,4.639-0.692,7.204-0.888c2.562-0.195,4.896-0.297,7-0.297c2.238,0,4.671,0.102,7.3,0.297
		c2.627,0.192,5.064,0.488,7.301,0.888c1.486,8.418,1.486,16.104,0,24.525c-2.236,0.394-4.642,0.658-7.202,0.785
		c-2.559,0.128-4.964,0.198-7.199,0.198c-2.104,0-4.479-0.068-7.102-0.198C108.441,26.491,106.006,26.227,103.768,25.833z
		 M442.5,95.788c0.522,7.891,3.286,13.614,8.284,17.163c4.996,3.551,11.572,5.328,19.729,5.328c4.474,0,9.043-0.43,13.714-1.283
		c4.667-0.854,9.104-2.075,13.313-3.65c1.444,2.631,2.694,5.788,3.749,9.472c1.051,3.678,1.645,7.628,1.774,11.832
		c-10.263,3.947-21.834,5.918-34.722,5.918c-9.473,0-17.591-1.313-24.362-3.944c-6.773-2.63-12.298-6.281-16.573-10.946
		c-4.274-4.671-7.431-10.229-9.468-16.671c-2.039-6.449-3.059-13.483-3.059-21.11c0-7.497,1.051-14.534,3.153-21.107
		c2.106-6.578,5.229-12.298,9.372-17.163c4.142-4.866,9.271-8.715,15.39-11.546c6.113-2.824,13.253-4.236,21.401-4.236
		c7.104,0,13.421,1.245,18.939,3.748c5.526,2.498,10.228,5.916,14.105,10.259c3.88,4.338,6.809,9.501,8.782,15.484
		c1.973,5.983,2.959,12.394,2.959,19.238c0,2.495-0.102,4.965-0.297,7.394c-0.2,2.435-0.431,4.373-0.688,5.822H442.5V95.788z"/>
	<g id="logo">
		<path fill="#0095DA" d="M242.654,138.205c-5.128,0.789-9.995,1.182-14.599,1.182c-23.965,0-25.706-30.884-33.561-50.826
			C223.945,89.194,227.711,104.669,242.654,138.205"/>
		<path fill="#8ED8F8" d="M194.469,83.158c6.756-21.373,4.873-48.133,30.036-48.133c4.866,0,9.666,0.395,14.402,1.183
			C225.648,69.358,224.102,82.524,194.469,83.158"/>
		<path fill="#F38C29" d="M191.198,88.561c-7.785,19.957-9.402,50.826-33.374,50.826c-4.603,0-9.47-0.393-14.599-1.182
			C158.064,104.634,161.117,87.925,191.198,88.561"/>
		<path fill="#FFCB05" d="M146.976,36.21c4.338-0.789,9.141-1.184,14.397-1.184c25.133,0,23.188,26.785,29.851,48.133
			C160.008,82.844,160.118,69.399,146.976,36.21"/>
	</g>
</g>
</svg>
