<?xml version="1.0" encoding="utf-8"?>
<!-- Generator: Adobe Illustrator 16.0.3, SVG Export Plug-In . SVG Version: 6.00 Build 0)  -->
<!DOCTYPE svg PUBLIC "-//W3C//DTD SVG 1.1//EN" "http://www.w3.org/Graphics/SVG/1.1/DTD/svg11.dtd">
<svg version="1.1" id="Layer_1" xmlns="http://www.w3.org/2000/svg" xmlns:xlink="http://www.w3.org/1999/xlink" x="0px" y="0px"
	 width="24px" height="24px" viewBox="0 0 24 24" enable-background="new 0 0 24 24" xml:space="preserve">
<g>
	<g>
		<path fill="#D0C9C3" d="M21.12,0H2.88C1.29,0,0,1.29,0,2.88v18.24C0,22.711,1.29,24,2.88,24h18.24c1.591,0,2.88-1.289,2.88-2.88
			V2.88C24,1.29,22.711,0,21.12,0z M17.637,13.032h-3.935v3.925c0,0.77-0.618,1.392-1.387,1.392c-0.766,0-1.387-0.622-1.387-1.392
			v-3.925H7.001c-0.769,0-1.387-0.622-1.387-1.388c0-0.768,0.618-1.387,1.387-1.387h3.926V6.326c0-0.767,0.621-1.387,1.387-1.387
			c0.769,0,1.387,0.62,1.387,1.387v3.931h3.935c0.765,0,1.386,0.619,1.386,1.387C19.022,12.41,18.401,13.032,17.637,13.032z"/>
	</g>
</g>
</svg>
