<?xml version="1.0" encoding="utf-8"?>
<!-- Generator: Adobe Illustrator 16.2.1, SVG Export Plug-In . SVG Version: 6.00 Build 0)  -->
<!DOCTYPE svg PUBLIC "-//W3C//DTD SVG 1.1//EN" "http://www.w3.org/Graphics/SVG/1.1/DTD/svg11.dtd">
<svg version="1.1" id="svg9266" xmlns="http://www.w3.org/2000/svg" xmlns:xlink="http://www.w3.org/1999/xlink" x="0px" y="0px"
	 width="130px" height="130px" viewBox="0 0 130 130" enable-background="new 0 0 130 130" xml:space="preserve">
<g id="layer1" opacity="0.7">
	<path id="p3" fill="#CA8D8D" d="M65,0C29.12,0,0,29.12,0,65c0,35.879,29.12,65,65,65s65-29.121,65-65C130,29.12,100.88,0,65,0z
		 M65,10c30.359,0,55,24.64,55,55s-24.641,55-55,55c-30.36,0-55-24.641-55-55S34.64,10,65,10z"/>
	<path id="p2" fill="#CA8D8D" d="M74.998,36.25c0,6.213-5.036,11.25-11.25,11.25c-6.213,0-11.25-5.037-11.25-11.25
		c0-6.214,5.037-11.25,11.25-11.25C69.962,25,74.998,30.037,74.998,36.25z"/>
	<path id="p1" fill="#CA8D8D" d="M75.665,95.959c-0.069,2.73,1.211,3.5,4.327,3.82l5.008,0.1V105H45.927v-5.121l5.503-0.1
		c3.291-0.1,4.082-1.379,4.327-3.82V65.146c0.035-4.879-6.296-4.112-10.757-3.967v-5.074L75.665,55"/>
</g>
</svg>
