<?xml version="1.0"?>
<svg xmlns="http://www.w3.org/2000/svg" height="138" version="1.1" width="138" viewBox="0 0 138 138" style="overflow: hidden; position: relative;">
  <desc style="-webkit-tap-highlight-color: rgba(0, 0, 0, 0);">Created with Rapha&#xEB;l 2.1.0</desc>
  <defs style="-webkit-tap-highlight-color: rgba(0, 0, 0, 0);">
    <linearGradient id="78090-_0D8E97-_DA2891" x1="0" y1="1" x2="6.123031769111886e-17" y2="0" gradientTransform="matrix(1,0,0,1,0,0)" style="-webkit-tap-highlight-color: rgba(0, 0, 0, 0);">
      <stop offset="0%" stop-color="#0d8e97" style="-webkit-tap-highlight-color: rgba(0, 0, 0, 0);"/>
      <stop offset="100%" stop-color="#da2891" style="-webkit-tap-highlight-color: rgba(0, 0, 0, 0);"/>
    </linearGradient>
    <linearGradient id="78190-_4BE589-_3C0CF8" x1="0" y1="1" x2="6.123031769111886e-17" y2="0" gradientTransform="matrix(1,0,0,1,0,0)" style="-webkit-tap-highlight-color: rgba(0, 0, 0, 0);">
      <stop offset="0%" stop-color="#4be589" style="-webkit-tap-highlight-color: rgba(0, 0, 0, 0);"/>
      <stop offset="100%" stop-color="#3c0cf8" style="-webkit-tap-highlight-color: rgba(0, 0, 0, 0);"/>
    </linearGradient>
  </defs>
  <circle cx="69" cy="69" r="69" fill="url(#78090-_0D8E97-_DA2891)" stroke="none" opacity="1" fill-opacity="1" style="-webkit-tap-highlight-color: rgba(0, 0, 0, 0); opacity: 1; fill-opacity: 1;"/>
  <path fill="#636115" stroke="#636115" d="M110.17489462586417,95.10242651077499C108.51729462586417,93.47042651077498,88.43089462586417,85.70082651077499,84.78609462586417,84.235226510775C81.16369462586417,82.79202651077499,79.71729462586418,78.80482651077499,79.71729462586418,78.80482651077499C79.71729462586418,78.80482651077499,78.08529462586418,79.70722651077499,78.08529462586418,77.17282651077498C78.08529462586418,74.63522651077498,79.71729462586418,78.80482651077499,81.35249462586418,69.01922651077498C81.35249462586418,69.01922651077498,85.87729462586418,67.74882651077499,84.97809462586417,57.24322651077498C84.97809462586417,57.24322651077498,83.89649462586416,57.24642651077498,83.89649462586416,57.24642651077498C83.89649462586416,57.24642651077498,86.61649462586416,46.01122651077499,83.89649462586416,42.20962651077498C81.16369462586417,38.40802651077499,80.09489462586417,35.87042651077498,74.09809462586416,34.056026510774984C68.11729462586416,32.24162651077498,70.29649462586417,32.60322651077498,65.94769462586416,32.78882651077498C61.59889462586416,32.97122651077498,57.973294625864156,35.32642651077498,57.973294625864156,36.59042651077498C57.973294625864156,36.59042651077498,55.25649462586416,36.77282651077498,54.171694625864156,37.860826510774984C53.083694625864155,38.94882651077498,51.272494625864155,44.01762651077498,51.272494625864155,45.284826510774984C51.272494625864155,46.552026510774986,52.17809462586415,55.073626510774986,53.083694625864155,56.881626510774986C53.083694625864155,56.881626510774986,52.00529462586415,57.24002651077499,52.00529462586415,57.24002651077499C51.09969462586416,67.74562651077498,55.62769462586415,69.01922651077498,55.62769462586415,69.01922651077498C57.25649462586416,78.80482651077499,58.888494625864155,74.63522651077498,58.888494625864155,77.172826510775C58.888494625864155,79.707226510775,57.25649462586416,78.804826510775,57.25649462586416,78.804826510775C57.25649462586416,78.804826510775,55.81009462586415,82.792026510775,52.187694625864154,84.235226510775C48.565294625864155,85.684826510775,28.456494625864153,93.473626510775,26.821294625864155,95.102426510775C25.186094625864158,96.76962651077501,25.37169462586416,104.369626510775,25.37169462586416,104.369626510775C25.37169462586416,104.369626510775,63.88689462586416,104.369626510775,63.88689462586416,104.369626510775C63.88689462586416,104.369626510775,66.69649462586416,93.30082651077501,66.69649462586416,93.30082651077501C66.69649462586416,93.30082651077501,64.19729462586416,90.80162651077501,64.19729462586416,90.80162651077501C64.19729462586416,90.80162651077501,68.49809462586416,86.500826510775,68.49809462586416,86.500826510775C68.49809462586416,86.500826510775,72.79889462586416,90.80162651077501,72.79889462586416,90.80162651077501C72.79889462586416,90.80162651077501,70.29969462586416,93.30082651077501,70.29969462586416,93.30082651077501C70.29969462586416,93.30082651077501,73.11249462586417,104.369626510775,73.11249462586417,104.369626510775C73.11249462586417,104.369626510775,111.62449462586417,104.369626510775,111.62449462586417,104.369626510775C111.6276946258642,104.36962651077499,111.82609462586419,96.763226510775,110.17489462586417,95.10242651077499C110.17489462586417,95.10242651077499,110.17489462586417,95.10242651077499,110.17489462586417,95.10242651077499" stroke-linejoin="round" stroke-linecap="round" stroke-width="2" opacity="0.091" transform="matrix(1,0,0,1,0,0)" style="-webkit-tap-highlight-color: rgba(0, 0, 0, 0); stroke-linejoin: round; stroke-linecap: round; opacity: 0.091;"/>
  <path fill="#636115" stroke="#636115" d="M110.17489462586417,95.10242651077499C108.51729462586417,93.47042651077498,88.43089462586417,85.70082651077499,84.78609462586417,84.235226510775C81.16369462586417,82.79202651077499,79.71729462586418,78.80482651077499,79.71729462586418,78.80482651077499C79.71729462586418,78.80482651077499,78.08529462586418,79.70722651077499,78.08529462586418,77.17282651077498C78.08529462586418,74.63522651077498,79.71729462586418,78.80482651077499,81.35249462586418,69.01922651077498C81.35249462586418,69.01922651077498,85.87729462586418,67.74882651077499,84.97809462586417,57.24322651077498C84.97809462586417,57.24322651077498,83.89649462586416,57.24642651077498,83.89649462586416,57.24642651077498C83.89649462586416,57.24642651077498,86.61649462586416,46.01122651077499,83.89649462586416,42.20962651077498C81.16369462586417,38.40802651077499,80.09489462586417,35.87042651077498,74.09809462586416,34.056026510774984C68.11729462586416,32.24162651077498,70.29649462586417,32.60322651077498,65.94769462586416,32.78882651077498C61.59889462586416,32.97122651077498,57.973294625864156,35.32642651077498,57.973294625864156,36.59042651077498C57.973294625864156,36.59042651077498,55.25649462586416,36.77282651077498,54.171694625864156,37.860826510774984C53.083694625864155,38.94882651077498,51.272494625864155,44.01762651077498,51.272494625864155,45.284826510774984C51.272494625864155,46.552026510774986,52.17809462586415,55.073626510774986,53.083694625864155,56.881626510774986C53.083694625864155,56.881626510774986,52.00529462586415,57.24002651077499,52.00529462586415,57.24002651077499C51.09969462586416,67.74562651077498,55.62769462586415,69.01922651077498,55.62769462586415,69.01922651077498C57.25649462586416,78.80482651077499,58.888494625864155,74.63522651077498,58.888494625864155,77.172826510775C58.888494625864155,79.707226510775,57.25649462586416,78.804826510775,57.25649462586416,78.804826510775C57.25649462586416,78.804826510775,55.81009462586415,82.792026510775,52.187694625864154,84.235226510775C48.565294625864155,85.684826510775,28.456494625864153,93.473626510775,26.821294625864155,95.102426510775C25.186094625864158,96.76962651077501,25.37169462586416,104.369626510775,25.37169462586416,104.369626510775C25.37169462586416,104.369626510775,63.88689462586416,104.369626510775,63.88689462586416,104.369626510775C63.88689462586416,104.369626510775,66.69649462586416,93.30082651077501,66.69649462586416,93.30082651077501C66.69649462586416,93.30082651077501,64.19729462586416,90.80162651077501,64.19729462586416,90.80162651077501C64.19729462586416,90.80162651077501,68.49809462586416,86.500826510775,68.49809462586416,86.500826510775C68.49809462586416,86.500826510775,72.79889462586416,90.80162651077501,72.79889462586416,90.80162651077501C72.79889462586416,90.80162651077501,70.29969462586416,93.30082651077501,70.29969462586416,93.30082651077501C70.29969462586416,93.30082651077501,73.11249462586417,104.369626510775,73.11249462586417,104.369626510775C73.11249462586417,104.369626510775,111.62449462586417,104.369626510775,111.62449462586417,104.369626510775C111.6276946258642,104.36962651077499,111.82609462586419,96.763226510775,110.17489462586417,95.10242651077499C110.17489462586417,95.10242651077499,110.17489462586417,95.10242651077499,110.17489462586417,95.10242651077499" stroke-linejoin="round" stroke-linecap="round" stroke-width="4" opacity="0.091" transform="matrix(1,0,0,1,0,0)" style="-webkit-tap-highlight-color: rgba(0, 0, 0, 0); stroke-linejoin: round; stroke-linecap: round; opacity: 0.091;"/>
  <path fill="#636115" stroke="#636115" d="M110.17489462586417,95.10242651077499C108.51729462586417,93.47042651077498,88.43089462586417,85.70082651077499,84.78609462586417,84.235226510775C81.16369462586417,82.79202651077499,79.71729462586418,78.80482651077499,79.71729462586418,78.80482651077499C79.71729462586418,78.80482651077499,78.08529462586418,79.70722651077499,78.08529462586418,77.17282651077498C78.08529462586418,74.63522651077498,79.71729462586418,78.80482651077499,81.35249462586418,69.01922651077498C81.35249462586418,69.01922651077498,85.87729462586418,67.74882651077499,84.97809462586417,57.24322651077498C84.97809462586417,57.24322651077498,83.89649462586416,57.24642651077498,83.89649462586416,57.24642651077498C83.89649462586416,57.24642651077498,86.61649462586416,46.01122651077499,83.89649462586416,42.20962651077498C81.16369462586417,38.40802651077499,80.09489462586417,35.87042651077498,74.09809462586416,34.056026510774984C68.11729462586416,32.24162651077498,70.29649462586417,32.60322651077498,65.94769462586416,32.78882651077498C61.59889462586416,32.97122651077498,57.973294625864156,35.32642651077498,57.973294625864156,36.59042651077498C57.973294625864156,36.59042651077498,55.25649462586416,36.77282651077498,54.171694625864156,37.860826510774984C53.083694625864155,38.94882651077498,51.272494625864155,44.01762651077498,51.272494625864155,45.284826510774984C51.272494625864155,46.552026510774986,52.17809462586415,55.073626510774986,53.083694625864155,56.881626510774986C53.083694625864155,56.881626510774986,52.00529462586415,57.24002651077499,52.00529462586415,57.24002651077499C51.09969462586416,67.74562651077498,55.62769462586415,69.01922651077498,55.62769462586415,69.01922651077498C57.25649462586416,78.80482651077499,58.888494625864155,74.63522651077498,58.888494625864155,77.172826510775C58.888494625864155,79.707226510775,57.25649462586416,78.804826510775,57.25649462586416,78.804826510775C57.25649462586416,78.804826510775,55.81009462586415,82.792026510775,52.187694625864154,84.235226510775C48.565294625864155,85.684826510775,28.456494625864153,93.473626510775,26.821294625864155,95.102426510775C25.186094625864158,96.76962651077501,25.37169462586416,104.369626510775,25.37169462586416,104.369626510775C25.37169462586416,104.369626510775,63.88689462586416,104.369626510775,63.88689462586416,104.369626510775C63.88689462586416,104.369626510775,66.69649462586416,93.30082651077501,66.69649462586416,93.30082651077501C66.69649462586416,93.30082651077501,64.19729462586416,90.80162651077501,64.19729462586416,90.80162651077501C64.19729462586416,90.80162651077501,68.49809462586416,86.500826510775,68.49809462586416,86.500826510775C68.49809462586416,86.500826510775,72.79889462586416,90.80162651077501,72.79889462586416,90.80162651077501C72.79889462586416,90.80162651077501,70.29969462586416,93.30082651077501,70.29969462586416,93.30082651077501C70.29969462586416,93.30082651077501,73.11249462586417,104.369626510775,73.11249462586417,104.369626510775C73.11249462586417,104.369626510775,111.62449462586417,104.369626510775,111.62449462586417,104.369626510775C111.6276946258642,104.36962651077499,111.82609462586419,96.763226510775,110.17489462586417,95.10242651077499C110.17489462586417,95.10242651077499,110.17489462586417,95.10242651077499,110.17489462586417,95.10242651077499" stroke-linejoin="round" stroke-linecap="round" stroke-width="6" opacity="0.091" transform="matrix(1,0,0,1,0,0)" style="-webkit-tap-highlight-color: rgba(0, 0, 0, 0); stroke-linejoin: round; stroke-linecap: round; opacity: 0.091;"/>
  <path fill="#636115" stroke="#636115" d="M110.17489462586417,95.10242651077499C108.51729462586417,93.47042651077498,88.43089462586417,85.70082651077499,84.78609462586417,84.235226510775C81.16369462586417,82.79202651077499,79.71729462586418,78.80482651077499,79.71729462586418,78.80482651077499C79.71729462586418,78.80482651077499,78.08529462586418,79.70722651077499,78.08529462586418,77.17282651077498C78.08529462586418,74.63522651077498,79.71729462586418,78.80482651077499,81.35249462586418,69.01922651077498C81.35249462586418,69.01922651077498,85.87729462586418,67.74882651077499,84.97809462586417,57.24322651077498C84.97809462586417,57.24322651077498,83.89649462586416,57.24642651077498,83.89649462586416,57.24642651077498C83.89649462586416,57.24642651077498,86.61649462586416,46.01122651077499,83.89649462586416,42.20962651077498C81.16369462586417,38.40802651077499,80.09489462586417,35.87042651077498,74.09809462586416,34.056026510774984C68.11729462586416,32.24162651077498,70.29649462586417,32.60322651077498,65.94769462586416,32.78882651077498C61.59889462586416,32.97122651077498,57.973294625864156,35.32642651077498,57.973294625864156,36.59042651077498C57.973294625864156,36.59042651077498,55.25649462586416,36.77282651077498,54.171694625864156,37.860826510774984C53.083694625864155,38.94882651077498,51.272494625864155,44.01762651077498,51.272494625864155,45.284826510774984C51.272494625864155,46.552026510774986,52.17809462586415,55.073626510774986,53.083694625864155,56.881626510774986C53.083694625864155,56.881626510774986,52.00529462586415,57.24002651077499,52.00529462586415,57.24002651077499C51.09969462586416,67.74562651077498,55.62769462586415,69.01922651077498,55.62769462586415,69.01922651077498C57.25649462586416,78.80482651077499,58.888494625864155,74.63522651077498,58.888494625864155,77.172826510775C58.888494625864155,79.707226510775,57.25649462586416,78.804826510775,57.25649462586416,78.804826510775C57.25649462586416,78.804826510775,55.81009462586415,82.792026510775,52.187694625864154,84.235226510775C48.565294625864155,85.684826510775,28.456494625864153,93.473626510775,26.821294625864155,95.102426510775C25.186094625864158,96.76962651077501,25.37169462586416,104.369626510775,25.37169462586416,104.369626510775C25.37169462586416,104.369626510775,63.88689462586416,104.369626510775,63.88689462586416,104.369626510775C63.88689462586416,104.369626510775,66.69649462586416,93.30082651077501,66.69649462586416,93.30082651077501C66.69649462586416,93.30082651077501,64.19729462586416,90.80162651077501,64.19729462586416,90.80162651077501C64.19729462586416,90.80162651077501,68.49809462586416,86.500826510775,68.49809462586416,86.500826510775C68.49809462586416,86.500826510775,72.79889462586416,90.80162651077501,72.79889462586416,90.80162651077501C72.79889462586416,90.80162651077501,70.29969462586416,93.30082651077501,70.29969462586416,93.30082651077501C70.29969462586416,93.30082651077501,73.11249462586417,104.369626510775,73.11249462586417,104.369626510775C73.11249462586417,104.369626510775,111.62449462586417,104.369626510775,111.62449462586417,104.369626510775C111.6276946258642,104.36962651077499,111.82609462586419,96.763226510775,110.17489462586417,95.10242651077499C110.17489462586417,95.10242651077499,110.17489462586417,95.10242651077499,110.17489462586417,95.10242651077499" stroke-linejoin="round" stroke-linecap="round" stroke-width="8" opacity="0.091" transform="matrix(1,0,0,1,0,0)" style="-webkit-tap-highlight-color: rgba(0, 0, 0, 0); stroke-linejoin: round; stroke-linecap: round; opacity: 0.091;"/>
  <path fill="#636115" stroke="#636115" d="M110.17489462586417,95.10242651077499C108.51729462586417,93.47042651077498,88.43089462586417,85.70082651077499,84.78609462586417,84.235226510775C81.16369462586417,82.79202651077499,79.71729462586418,78.80482651077499,79.71729462586418,78.80482651077499C79.71729462586418,78.80482651077499,78.08529462586418,79.70722651077499,78.08529462586418,77.17282651077498C78.08529462586418,74.63522651077498,79.71729462586418,78.80482651077499,81.35249462586418,69.01922651077498C81.35249462586418,69.01922651077498,85.87729462586418,67.74882651077499,84.97809462586417,57.24322651077498C84.97809462586417,57.24322651077498,83.89649462586416,57.24642651077498,83.89649462586416,57.24642651077498C83.89649462586416,57.24642651077498,86.61649462586416,46.01122651077499,83.89649462586416,42.20962651077498C81.16369462586417,38.40802651077499,80.09489462586417,35.87042651077498,74.09809462586416,34.056026510774984C68.11729462586416,32.24162651077498,70.29649462586417,32.60322651077498,65.94769462586416,32.78882651077498C61.59889462586416,32.97122651077498,57.973294625864156,35.32642651077498,57.973294625864156,36.59042651077498C57.973294625864156,36.59042651077498,55.25649462586416,36.77282651077498,54.171694625864156,37.860826510774984C53.083694625864155,38.94882651077498,51.272494625864155,44.01762651077498,51.272494625864155,45.284826510774984C51.272494625864155,46.552026510774986,52.17809462586415,55.073626510774986,53.083694625864155,56.881626510774986C53.083694625864155,56.881626510774986,52.00529462586415,57.24002651077499,52.00529462586415,57.24002651077499C51.09969462586416,67.74562651077498,55.62769462586415,69.01922651077498,55.62769462586415,69.01922651077498C57.25649462586416,78.80482651077499,58.888494625864155,74.63522651077498,58.888494625864155,77.172826510775C58.888494625864155,79.707226510775,57.25649462586416,78.804826510775,57.25649462586416,78.804826510775C57.25649462586416,78.804826510775,55.81009462586415,82.792026510775,52.187694625864154,84.235226510775C48.565294625864155,85.684826510775,28.456494625864153,93.473626510775,26.821294625864155,95.102426510775C25.186094625864158,96.76962651077501,25.37169462586416,104.369626510775,25.37169462586416,104.369626510775C25.37169462586416,104.369626510775,63.88689462586416,104.369626510775,63.88689462586416,104.369626510775C63.88689462586416,104.369626510775,66.69649462586416,93.30082651077501,66.69649462586416,93.30082651077501C66.69649462586416,93.30082651077501,64.19729462586416,90.80162651077501,64.19729462586416,90.80162651077501C64.19729462586416,90.80162651077501,68.49809462586416,86.500826510775,68.49809462586416,86.500826510775C68.49809462586416,86.500826510775,72.79889462586416,90.80162651077501,72.79889462586416,90.80162651077501C72.79889462586416,90.80162651077501,70.29969462586416,93.30082651077501,70.29969462586416,93.30082651077501C70.29969462586416,93.30082651077501,73.11249462586417,104.369626510775,73.11249462586417,104.369626510775C73.11249462586417,104.369626510775,111.62449462586417,104.369626510775,111.62449462586417,104.369626510775C111.6276946258642,104.36962651077499,111.82609462586419,96.763226510775,110.17489462586417,95.10242651077499C110.17489462586417,95.10242651077499,110.17489462586417,95.10242651077499,110.17489462586417,95.10242651077499" stroke-linejoin="round" stroke-linecap="round" stroke-width="10" opacity="0.091" transform="matrix(1,0,0,1,0,0)" style="-webkit-tap-highlight-color: rgba(0, 0, 0, 0); stroke-linejoin: round; stroke-linecap: round; opacity: 0.091;"/>
  <path fill="#636115" stroke="#636115" d="M110.17489462586417,95.10242651077499C108.51729462586417,93.47042651077498,88.43089462586417,85.70082651077499,84.78609462586417,84.235226510775C81.16369462586417,82.79202651077499,79.71729462586418,78.80482651077499,79.71729462586418,78.80482651077499C79.71729462586418,78.80482651077499,78.08529462586418,79.70722651077499,78.08529462586418,77.17282651077498C78.08529462586418,74.63522651077498,79.71729462586418,78.80482651077499,81.35249462586418,69.01922651077498C81.35249462586418,69.01922651077498,85.87729462586418,67.74882651077499,84.97809462586417,57.24322651077498C84.97809462586417,57.24322651077498,83.89649462586416,57.24642651077498,83.89649462586416,57.24642651077498C83.89649462586416,57.24642651077498,86.61649462586416,46.01122651077499,83.89649462586416,42.20962651077498C81.16369462586417,38.40802651077499,80.09489462586417,35.87042651077498,74.09809462586416,34.056026510774984C68.11729462586416,32.24162651077498,70.29649462586417,32.60322651077498,65.94769462586416,32.78882651077498C61.59889462586416,32.97122651077498,57.973294625864156,35.32642651077498,57.973294625864156,36.59042651077498C57.973294625864156,36.59042651077498,55.25649462586416,36.77282651077498,54.171694625864156,37.860826510774984C53.083694625864155,38.94882651077498,51.272494625864155,44.01762651077498,51.272494625864155,45.284826510774984C51.272494625864155,46.552026510774986,52.17809462586415,55.073626510774986,53.083694625864155,56.881626510774986C53.083694625864155,56.881626510774986,52.00529462586415,57.24002651077499,52.00529462586415,57.24002651077499C51.09969462586416,67.74562651077498,55.62769462586415,69.01922651077498,55.62769462586415,69.01922651077498C57.25649462586416,78.80482651077499,58.888494625864155,74.63522651077498,58.888494625864155,77.172826510775C58.888494625864155,79.707226510775,57.25649462586416,78.804826510775,57.25649462586416,78.804826510775C57.25649462586416,78.804826510775,55.81009462586415,82.792026510775,52.187694625864154,84.235226510775C48.565294625864155,85.684826510775,28.456494625864153,93.473626510775,26.821294625864155,95.102426510775C25.186094625864158,96.76962651077501,25.37169462586416,104.369626510775,25.37169462586416,104.369626510775C25.37169462586416,104.369626510775,63.88689462586416,104.369626510775,63.88689462586416,104.369626510775C63.88689462586416,104.369626510775,66.69649462586416,93.30082651077501,66.69649462586416,93.30082651077501C66.69649462586416,93.30082651077501,64.19729462586416,90.80162651077501,64.19729462586416,90.80162651077501C64.19729462586416,90.80162651077501,68.49809462586416,86.500826510775,68.49809462586416,86.500826510775C68.49809462586416,86.500826510775,72.79889462586416,90.80162651077501,72.79889462586416,90.80162651077501C72.79889462586416,90.80162651077501,70.29969462586416,93.30082651077501,70.29969462586416,93.30082651077501C70.29969462586416,93.30082651077501,73.11249462586417,104.369626510775,73.11249462586417,104.369626510775C73.11249462586417,104.369626510775,111.62449462586417,104.369626510775,111.62449462586417,104.369626510775C111.6276946258642,104.36962651077499,111.82609462586419,96.763226510775,110.17489462586417,95.10242651077499C110.17489462586417,95.10242651077499,110.17489462586417,95.10242651077499,110.17489462586417,95.10242651077499" stroke-linejoin="round" stroke-linecap="round" stroke-width="12" opacity="0.091" transform="matrix(1,0,0,1,0,0)" style="-webkit-tap-highlight-color: rgba(0, 0, 0, 0); stroke-linejoin: round; stroke-linecap: round; opacity: 0.091;"/>
  <path fill="url(#78190-_4BE589-_3C0CF8)" stroke="none" d="M28.523,23.813C28.005,23.302999999999997,21.728,20.875,20.589,20.416999999999998C19.456999999999997,19.965999999999998,19.005,18.72,19.005,18.72S18.494999999999997,19.002,18.494999999999997,18.209999999999997C18.494999999999997,17.416999999999998,19.005,18.72,19.516,15.661999999999997C19.516,15.661999999999997,20.93,15.264999999999997,20.648999999999997,11.981999999999998L20.310999999999996,11.982999999999997C20.310999999999996,11.982999999999997,21.160999999999998,8.471999999999998,20.310999999999996,7.283999999999997C19.456999999999997,6.095999999999997,19.122999999999998,5.302999999999997,17.248999999999995,4.735999999999997C15.379999999999995,4.168999999999997,16.060999999999996,4.281999999999997,14.701999999999995,4.339999999999997C13.342999999999995,4.396999999999998,12.209999999999994,5.132999999999997,12.209999999999994,5.527999999999997C12.209999999999994,5.527999999999997,11.360999999999994,5.584999999999997,11.021999999999993,5.924999999999997C10.681999999999993,6.264999999999997,10.115999999999993,7.848999999999997,10.115999999999993,8.244999999999997S10.398999999999992,11.303999999999998,10.681999999999993,11.868999999999998L10.344999999999994,11.980999999999998C10.061999999999994,15.263999999999998,11.476999999999993,15.661999999999999,11.476999999999993,15.661999999999999C11.985999999999994,18.72,12.495999999999993,17.416999999999998,12.495999999999993,18.21C12.495999999999993,19.002000000000002,11.985999999999994,18.720000000000002,11.985999999999994,18.720000000000002S11.533999999999994,19.966,10.401999999999994,20.417C9.269999999999994,20.87,2.9859999999999935,23.304000000000002,2.4749999999999943,23.813000000000002C1.9639999999999942,24.334000000000003,2.0219999999999945,26.709000000000003,2.0219999999999945,26.709000000000003H14.057999999999995L14.935999999999995,23.250000000000004L14.154999999999994,22.469000000000005L15.498999999999993,21.125000000000004L16.842999999999993,22.469000000000005L16.061999999999994,23.250000000000004L16.940999999999995,26.709000000000003H28.975999999999996C28.977,26.709,29.039,24.332,28.523,23.813Z" opacity="1" fill-opacity="1" transform="matrix(3.2,0,0,3.2,18.9013,18.9008)" stroke-width="0.3125" style="-webkit-tap-highlight-color: rgba(0, 0, 0, 0); opacity: 1; fill-opacity: 1;"/>
  <path fill="#ffffff" stroke="none" d="M69.014556,-0.00369946C39.251922,-0.00369946,13.880881000000002,18.77861,4.273032499999999,45.0588C4.2730728,45.0691,4.272942,45.0798,4.273032499999999,45.089999999999996C4.375683199999999,56.680589999999995,33.292688999999996,66.09,68.983113,66.09C104.67352,66.09,133.62198,56.68059,133.72462000000002,45.09C133.72162000000003,45.081,133.72762,45.067800000000005,133.72462000000002,45.058800000000005C124.11665,18.77891,98.776981,-0.00369946,69.014556,-0.00369946Z" fill-opacity="0.3" transform="matrix(1,0,0,1,0,0)" style="-webkit-tap-highlight-color: rgba(0, 0, 0, 0); fill-opacity: 0.3;"/>
</svg>
