<?xml version="1.0" encoding="utf-8"?>
<!-- Generator: Adobe Illustrator 15.0.2, SVG Export Plug-In . SVG Version: 6.00 Build 0)  -->
<!DOCTYPE svg PUBLIC "-//W3C//DTD SVG 1.1//EN" "http://www.w3.org/Graphics/SVG/1.1/DTD/svg11.dtd">
<svg version="1.1" id="Layer_1" xmlns="http://www.w3.org/2000/svg" xmlns:xlink="http://www.w3.org/1999/xlink" x="0px" y="0px"
	 width="389.965px" height="258.659px" viewBox="-0.065 0 389.965 258.659" enable-background="new -0.065 0 389.965 258.659"
	 xml:space="preserve">
<path d="M203.2,109c0,11.667,0,23.333,0,35c-2.667,0.467-5.333,0.933-8,1.4c8.5,9.267,17,18.533,25.5,27.8
	c0.167,4.2,0.333,8.4,0.5,12.6c2.967,15.2,5.933,30.4,8.9,45.6c4.367,4.233,8.733,8.467,13.1,12.7c2.167,0.167,4.333,0.333,6.5,0.5
	c0.767,1.9,1.533,3.8,2.3,5.7c-5.633,1.467-11.267,2.933-16.9,4.4c-2.9-0.9-5.8-1.8-8.7-2.7c-0.367,1.1-0.733,2.2-1.1,3.3
	c-3.1-0.167-6.2-0.333-9.3-0.5c-1.3-6.5-2.6-13-3.9-19.5c-0.9-0.367-1.8-0.733-2.7-1.1c-2.2-22.4-12-28.9-10.4-49.7
	c-1.467-0.9-2.933-1.8-4.4-2.7c0.167-1.467,0.333-2.933,0.5-4.4c-7.1-4.2-14.2-8.4-21.3-12.6c-6.433,8.3-12.867,16.6-19.3,24.9
	c-3.1,3.1-6.2,6.2-9.3,9.3c-2,3.633-4,7.267-6,10.9c-6.133,9.7-12.267,19.4-18.4,29.1c-1.167-0.6-2.333-1.2-3.5-1.8
	c0.4,2.1,0.8,4.2,1.2,6.3c1.767,2.633,3.533,5.267,5.3,7.9c4.4,0.5,3.8,2.7,3.8,6.9c0,0-11.8,1.7-15.5-2.3
	c-2.267-2.1-4.533-4.2-6.8-6.3c-0.867,0.5-1.733,1-2.6,1.5c-2.7-1.933-5.4-3.867-8.1-5.8c1.3-3.9,2.6-7.8,3.9-11.7
	c1.867-2.267,3.733-4.533,5.6-6.8c-0.167-1.3-0.333-2.6-0.5-3.9c16.9-35.5,28.3-38.1,33.2-46.8c4.367-8.367,8.733-16.733,13.1-25.1
	c0,0-12.2-0.8-18.9-7.7c0,0,10.9-20.2,10.4-29.8c-12.7-16.2-17.5-20.4,5.8-42.7c3.1-2.8,0.7-8.6,7.3-10.3
	c4.867-1.3,9.733-2.6,14.6-3.9c1.5-3.133,3-6.267,4.5-9.4c1.567-0.533,3.133-1.067,4.7-1.6c0.233-1.7,0.467-3.4,0.7-5.1
	c-0.4-2.4-3.5-3.2-1.6-8c0,0-0.1-1.2-0.5-4.6c-0.5-3.8,4.9-9.5,9.1-8.5c6,2.9,10.1-4,15-0.1c0.767,0.567,1.533,1.133,2.3,1.7
	c-2.4-0.4-4.7,1.6-3.8,4.2c0.533,1.567,1.067,3.133,1.6,4.7c-0.433,0.8-0.867,1.6-1.3,2.4c0.533,0.967,1.067,1.933,1.6,2.9
	c-0.6,2.733-1.2,5.467-1.8,8.2c0.1,1.133,0.2,2.267,0.3,3.4c0.5,1.6-0.8,2.3-3.2,2.3c-0.133,0.733-0.267,1.467-0.4,2.2
	c2.6,2.133,5.2,4.267,7.8,6.4c-1.5,1.867-3,3.733-4.5,5.6c1.433,1.4,2.867,2.8,4.3,4.2c-0.5,1.867-1,3.733-1.5,5.6
	c1.167,1.567,2.333,3.133,3.5,4.7c3.3-1.2,8.2-1.1,6.5,2.2c-0.6,1-0.7,1.8,1.1,3.1c1.6,1.2,1.8,3.1,1.2,4.5c0,0,0.3,3.9-6.5,6.3
	C203,96,213.2,97.7,203.2,109z"/>
<path fill="#3888C8" d="M194.7,53.2c1.9,1.533,3.8,3.067,5.7,4.6c-0.933,1.167-1.867,2.333-2.8,3.5
	c-0.367,0.433-0.733,0.867-1.1,1.3c1.633,1.833,3.267,3.667,4.9,5.5c-1.333,3.767-2.667,7.533-4,11.3
	c0.567,0.433,1.133,0.867,1.7,1.3c0.7,19.867,1.4,39.733,2.1,59.6c-2.233-19.6-4.467-39.2-6.7-58.8c0.6-3.567,1.2-7.133,1.8-10.7
	c-1.3-2.133-2.6-4.267-3.9-6.4C193.167,60.667,193.933,56.933,194.7,53.2z"/>
<path fill="#185BA9" d="M218.1,174.1c-8.267-9.033-16.533-18.067-24.8-27.1c-2.033-0.267-4.067-0.533-6.1-0.8
	c0.8-0.833,1.6-1.667,2.4-2.5c-1.167-1.4-2.333-2.8-3.5-4.2c-7.4,2-14.8,4-22.2,6c3.3,0.2,6.6,0.4,9.9,0.6c-1.4,1.4-2.8,2.8-4.2,4.2
	c2.333,1.667,4.667,3.333,7,5c6.333,0.8,12.667,1.6,19,2.4c-4.367,0.8-8.733,1.6-13.1,2.4c1.933,1.233,3.867,2.467,5.8,3.7
	c2.9,0.3,5.8,0.6,8.7,0.9c-1.7,0.6-3.4,1.2-5.1,1.8c4.033,2.833,8.067,5.667,12.1,8.5c-0.8,0.933-1.6,1.867-2.4,2.8
	c4.033,1.1,8.067,2.2,12.1,3.3C215.167,178.767,216.633,176.433,218.1,174.1z"/>
<path fill="#17546C" d="M248,247c-1.6-0.133-3.2-0.267-4.8-0.4c-0.333-0.033-0.667-0.067-1-0.1c-0.233-0.233-0.467-0.467-0.7-0.7
	c-3.133-3-6.267-6-9.4-9c-1.9,0.833-3.8,1.667-5.7,2.5c0.8,1.333,1.6,2.667,2.4,4c-1.433,0.367-2.867,0.733-4.3,1.1
	c0.967,1.5,1.933,3,2.9,4.5c2.667,0.833,5.333,1.667,8,2.5c4.3-1.233,8.6-2.467,12.9-3.7C248.2,247.467,248.1,247.233,248,247z"/>
<path fill="#17546C" d="M221.4,235.5c1.233,2.967,2.467,5.933,3.7,8.9c-0.533,2.567-1.067,5.133-1.6,7.7c-1.667-0.1-3.333-0.2-5-0.3
	c-0.9-3.933-1.8-7.867-2.7-11.8C217.667,238.5,219.533,237,221.4,235.5z"/>
<path fill="#185BA9" d="M212.1,231.9c-1.1-9.4-3.6-16.2-5.8-22.2c-2.8-7.7-5.3-14.4-4.4-25.3c1.433-1.2,2.867-2.4,4.3-3.6
	c0.733,1.2,1.467,2.4,2.2,3.6c1.1-1.267,2.2-2.533,3.3-3.8c0,4.667,0,9.333,0,14c2.833,12.533,5.667,25.067,8.5,37.6
	C217.5,232.1,214.8,232,212.1,231.9z"/>
<path fill="#17546C" d="M114.1,253.8c0.067,0.067,0.133,0.133,0.2,0.2c1.5,1.6,6.6,1.9,10.7,1.6c0-0.6,0-1.1-0.1-1.4
	c-0.1-0.1-0.5-0.2-1.3-0.3c-0.433-0.067-0.867-0.133-1.3-0.2c-0.233-0.367-0.467-0.733-0.7-1.1c-1.767-2.633-3.533-5.267-5.3-7.9
	c-0.433-1.767-0.867-3.533-1.3-5.3c-1.6,0.633-3.2,1.267-4.8,1.9c0.5,1.233,1,2.467,1.5,3.7c-0.933,0.3-1.867,0.6-2.8,0.9
	C110.633,248.533,112.367,251.167,114.1,253.8z"/>
<path fill="#17546C" d="M104,247.2c-0.367,0.2-0.733,0.4-1.1,0.6c-1.667-1.2-3.333-2.4-5-3.6c1.033-3.1,2.067-6.2,3.1-9.3
	c1.067,0.933,2.133,1.867,3.2,2.8C104.133,240.867,104.067,244.033,104,247.2z"/>
<path fill="#185BA9" d="M106.6,223.3c11.3-23.4,20-32,25.8-37.8c2.9-2.9,5.2-5.1,6.9-8.2l0,0l0,0c3.767-7.1,7.533-14.2,11.3-21.3
	c-0.367,2.767-0.733,5.533-1.1,8.3c3.1-2.233,6.2-4.467,9.3-6.7c2,1.067,4,2.133,6,3.2c-1.7,2.1-3.4,4.2-5.1,6.3
	c-5.733,5.5-11.467,11-17.2,16.5c1.167,1.1,2.333,2.2,3.5,3.3c-10.6,5.7-28.4,40-32.2,49.1C111.4,231.767,109,227.533,106.6,223.3z"
	/>
<path fill="#3888C8" d="M154.5,148.4c-1.4-0.1-2.8-0.2-4.2-0.3c-0.1,0-9.6-0.7-15.6-5.6c2.6-5.1,7.8-15.5,9.1-24.4
	c2.1,2.533,4.2,5.067,6.3,7.6c2.467-1.333,4.933-2.667,7.4-4c1,3.2,1.9,4.6,1.9,4.6C157.767,133.667,156.133,141.033,154.5,148.4z"
	/>
<path fill="#3888C8" d="M168.1,59.7c0,0-12.7,3.3-12.8,3.3c-2.3,0.6-2.7,1.6-3.3,4.1c-0.4,1.7-1,3.9-2.7,5.5
	c-20.7,19.9-18.3,22.9-6.8,37.4c2.767,3.267,5.533,6.533,8.3,9.8c1.767-1.667,3.533-3.333,5.3-5c-2.333-3.767-4.667-7.533-7-11.3
	c-3.8,2.9-12.4-1.4-0.3-5.4c4.2-0.4-11.7-3.1-4.3-5.4c7.9-1.3,12.1-7.1,12.1-7.1c5.6-5,4.2-17,0.3-18.1c6.5-1.167,13-2.333,19.5-3.5
	c-3.633-0.2-7.267-0.4-10.9-0.6C166.367,62.167,167.233,60.933,168.1,59.7z"/>
<path fill="#3888C8" d="M179.3,48c-1.2,0.433-2.4,0.867-3.6,1.3c-1.633,3.7-3.267,7.4-4.9,11.1c2.167,0.233,4.333,0.467,6.5,0.7
	C177.967,56.733,178.633,52.367,179.3,48z"/>
<path fill="#CCA491" d="M196.7,33.7c0.2,1.633,0.4,3.267,0.6,4.9c0.567-0.1,1.133-0.2,1.7-0.3c-0.367-1.533-0.733-3.067-1.1-4.6
	C197.5,33.7,197.1,33.7,196.7,33.7z"/>
<path fill="#CCA491" d="M181.9,42c-0.033,3.567-0.067,7.133-0.1,10.7c1.767,1.867,3.533,3.733,5.3,5.6
	C185.367,52.867,183.633,47.433,181.9,42z"/>
<path fill="#ADC4E6" d="M180.4,53.1c3.467,4.267,6.933,8.533,10.4,12.8c-1.267,1.667-2.533,3.333-3.8,5
	c-2.1-3.767-4.2-7.533-6.3-11.3C180.6,57.433,180.5,55.267,180.4,53.1z"/>
<path fill="#3888C8" d="M180.7,62.7c-4.633,2.733-9.267,5.467-13.9,8.2c1.7,5.4,0,15.7-8.6,19.9c3.067-0.933,6.133-1.867,9.2-2.8
	c-3.6,4.067-7.2,8.133-10.8,12.2c1.8-0.233,3.6-0.467,5.4-0.7c-1.867,2-3.733,4-5.6,6c0.733,1.267,1.467,2.533,2.2,3.8
	c0.867-0.133,1.733-0.267,2.6-0.4c0.933,1.033,1.867,2.067,2.8,3.1c-0.367,0.5-0.733,1-1.1,1.5c1.467,0.867,2.933,1.733,4.4,2.6
	c0,0,3.3-6.3,2.9-1.7c-0.4,4.6-2.1,11.5-7.9,17.1c0.467,3.667,0.933,7.333,1.4,11c4.5-2.833,9-5.667,13.5-8.5
	c-3.3-0.267-6.6-0.533-9.9-0.8c1.267-1.2,2.533-2.4,3.8-3.6c3.367,1.2,6.733,2.4,10.1,3.6c-1.867-1.767-3.733-3.533-5.6-5.3
	c-0.433-1.3-0.867-2.6-1.3-3.9c0.733,0.033,1.467,0.067,2.2,0.1c-1.2-4.367-2.4-8.733-3.6-13.1c-0.867-0.133-1.733-0.267-2.6-0.4
	C183.3,96.5,182.8,68.7,180.7,62.7z"/>
<path d="M172.7,71.2c6.5,18.1-3.8,39.1-3.8,39.1c7.4-18.8,1.7-37,1.7-37C171.3,72.6,172,71.9,172.7,71.2z"/>
<path fill="#ADC4E6" d="M193.2,71.9c2.1,7.8,1.1,29.5-2.8,37c-2.767-0.033-5.533-0.067-8.3-0.1c1.633-0.467,3.267-0.933,4.9-1.4
	c-1.433-3.2-2.867-6.4-4.3-9.6c2.267,2.4,4.533,4.8,6.8,7.2c-0.567-2.3-1.133-4.6-1.7-6.9c1.467,0.133,2.933,0.267,4.4,0.4
	c-1.867-2.767-3.733-5.533-5.6-8.3c3.1-6.8,4.1-19.5,4.1-19.5C191.533,71.1,192.367,71.5,193.2,71.9z"/>
<path fill="#3888C8" d="M201.4,77.4c1.2,1.267,2.4,2.533,3.6,3.8c-0.2,1.267-0.4,2.533-0.6,3.8c-1.033,0.6-2.067,1.2-3.1,1.8
	c0-3.133,0-6.267,0-9.4H201.4z"/>
<path fill="#185BA9" d="M189.8,112.7c-1.333,0-2.667,0-4,0c-0.2,3.767-0.4,7.533-0.6,11.3c0.733-0.567,1.467-1.133,2.2-1.7
	c0,4.167,0,8.333,0,12.5C188.2,127.433,189,120.067,189.8,112.7z"/>
<path d="M154.1,68.2c5.4,3.9,2.6,12,2.6,12c0-6-3.3-8.8-3.3-8.8C153.633,70.333,153.867,69.267,154.1,68.2z"/>
<path fill="#CCA491" d="M191.2,34c0.967-1.2,1.933-2.4,2.9-3.6c0.667-0.033,1.333-0.067,2-0.1c-0.633-1.967-1.267-3.933-1.9-5.9
	c-1.9,0.333-3.8,0.667-5.7,1c-0.167,1.967-0.333,3.933-0.5,5.9c-1.333,0.367-2.667,0.733-4,1.1c-1.9-2.4-7.5,0.6-2.2,5.8
	c0.833,0.033,1.667,0.067,2.5,0.1c-0.1,0.233-0.2,0.467-0.3,0.7l0,0c0,0.033,0,0.067,0,0.1c-0.033,0.167-0.067,0.333-0.1,0.5
	c0.033,0,0.067,0,0.1,0c0.067,1.833,0.133,3.667,0.2,5.5c3,1.267,6,2.533,9,3.8C187.2,43.5,197.4,39.8,191.2,34z"/>
<path d="M183.8,34.4c-0.333,0.267-0.667,0.533-1,0.8c0.267,0.5,0.533,1,0.8,1.5C180.4,34.9,183.2,33.5,183.8,34.4z"/>
<path fill="#3888C8" d="M201.3,93.4c0.2,3.7,5.5,5.8,5.5,5.8c-1.5,1.1-5.3,0.7-5.3,0.7C201.433,97.733,201.367,95.567,201.3,93.4z"
	/>
<path d="M156.5,83.5c-6.1,6-10.5,6.8-13.3,5.2c-4.5-1.8,0.1-6.5,3.4-4.1C150.2,86.7,156.5,83.5,156.5,83.5z"/>
<path d="M160.9,104.5c2-1.633,4-3.267,6-4.9c0.4,0.933,0.8,1.867,1.2,2.8C165.7,103.1,163.3,103.8,160.9,104.5z"/>
<path d="M159.4,132.5c-4.2,0-13.2-2.7-13.2-2.7c-0.1,1-1.8,4.3-1.8,4.3c4.9,2.7,14.1,3.2,14.1,3.2
	C158.8,135.7,159.1,134.1,159.4,132.5z"/>
<path fill="#3888C8" d="M209,83.9c-0.5,0.9-1,1.8-1.5,2.7c-0.6,0.9,1.7,2.3,1.7,2.3c0.6-0.933,1.2-1.867,1.8-2.8
	C210.333,85.367,209.667,84.633,209,83.9z"/>
<path fill="#185BA9" d="M152.4,178.2c3.7-0.7,12.1-7.4,12.1-7.4c-1.5,3.2-9.1,8.1-9.1,8.1C154.4,178.667,153.4,178.433,152.4,178.2z
	"/>
<path fill="#185BA9" d="M181.5,159.5c-1.667-1.4-3.333-2.8-5-4.2c-1.533,0.1-3.067,0.2-4.6,0.3C175.1,156.9,178.3,158.2,181.5,159.5
	z"/>
<path fill="#185BA9" d="M197.8,179.4c1-0.667,2-1.333,3-2c-1.4-1.233-2.8-2.467-4.2-3.7C197,175.6,197.4,177.5,197.8,179.4z"/>
<path d="M125,209.9c-3.6,2.467-7.2,4.933-10.8,7.4c0.167-1.3,0.333-2.6,0.5-3.9C118.133,212.233,121.567,211.067,125,209.9z"/>
<path d="M208.1,185.3c-0.833,2.2-1.667,4.4-2.5,6.6c-0.733-1-1.467-2-2.2-3C204.967,187.7,206.533,186.5,208.1,185.3z"/>
<path d="M141.9,182.4c4.6-4.433,9.2-8.867,13.8-13.3c-5.5,3.433-11,6.867-16.5,10.3C140.1,180.4,141,181.4,141.9,182.4z"/>
<path d="M254.5,30.2c-9-1.6-6.1,5.2-12.4,4.2c-11.1-0.5-2.3,12.3-9.5,11.9c-3.3,3.9-1.4,8.4,1.8,8.7c3.2,0.7-0.7,4.9,3.7,7.9
	c-2.333,1.9-4.667,3.8-7,5.7c-5.1,3.5-2.6,9.6-2.3,16.6c0.4,3.5-9.7,9.6-4.2,17.1c1.9,2.2-1.3,4.6-1.3,4.6c-2.3,1.5-0.4,3.6,0.8,4.2
	c-3,6.2-1.3,17-0.1,25.8c-2.4,2.7-1.8,5.7-0.4,7c-0.5,1.167-1,2.333-1.5,3.5c-2.667-0.867-5.333-1.733-8-2.6
	c-0.967,0.2-1.933,0.4-2.9,0.6c3.3,1.4,6.6,2.8,9.9,4.2c-0.033,0.1-0.067,0.2-0.1,0.3c-1.7,3.4,3.3,3,4.9,6.9
	c1.8,3.2,5.5,0.6,7.3,2.9c-0.1-1.167-0.2-2.333-0.3-3.5c6.367,4.7,12.733,9.4,19.1,14.1c-0.167,2.067-0.333,4.133-0.5,6.2
	c-26.6,7.2-27.6,37.6-41.6,44.8c-5.1-5-11.3,1.7-11.3,1.7c0.067,1.733,0.133,3.467,0.2,5.2c0.833,0.133,1.667,0.267,2.5,0.4
	c-0.9,7.9-6.5,6.2-3.4,24c1.9,1.8,2.8,0.8,4.7-3.5c1.267-1.733,2.533-3.467,3.8-5.2c0.067-0.733,0.133-1.467,0.2-2.2
	c17.1-20.1,35.5-35.9,56.1-53.7c-7.3,14.8-1.2,24.3-0.3,36c0.7,3.1,3,1.6,3,3.8c0.1,3.2,0.5,9.4,0.2,13.4c-2.2,6.4,1,11.2,1,11.2
	c1.9,0.267,3.8,0.533,5.7,0.8c0.6-0.733,1.2-1.467,1.8-2.2c1.033,0.133,2.067,0.267,3.1,0.4c1.267,0.833,2.533,1.667,3.8,2.5
	c6.8,1.1,13.5-1.6,13.5-1.6c0.4-1.7,1.1-2.5-3.8-2.7c-2.233-2.1-4.467-4.2-6.7-6.3c-0.533,0.067-1.067,0.133-1.6,0.2
	c-1.367-1.733-2.733-3.467-4.1-5.2c-2.9-13.1-1.5-44.2,1.4-55.2c0.4-3.1,0.5-6.5,0.5-9.8c3.167-1.4,6.333-2.8,9.5-4.2
	c-3.3-1.067-6.6-2.133-9.9-3.2c-0.7-8.5-2.2-15.4-2.2-15.4c1.067-3.467,2.133-6.933,3.2-10.4c0.967-0.233,1.933-0.467,2.9-0.7
	c1.067,1.067,2.133,2.133,3.2,3.2c6.467-4.667,12.933-9.333,19.4-14c0.133-5.6,0.268-11.2,0.4-16.8c1.1-1.3,2.2-2.6,3.3-3.9
	c-1.233-2.2-2.467-4.4-3.7-6.6c1.434-6.6,2.867-13.2,4.3-19.8c-1.866-0.833-3.732-1.667-5.6-2.5c12.2-23.4,14.7-38.8-4.3-11.1
	c-5.9-9.6-18.5-7.6-22.5,0.8c-1-1.267-2-2.533-3-3.8c-5-7.9-16.8-3.8-16.8-3.8c-0.2-1.633-0.4-3.267-0.6-4.9c4,0.6,4.2-0.8,3.3-4.7
	c0.167-1.033,0.333-2.067,0.5-3.1c0.267-0.3,0.533-0.6,0.8-0.9c-0.533-1.333-1.067-2.667-1.6-4c0.033-0.433,0.067-0.867,0.1-1.3
	c-0.333-1.633-0.667-3.267-1-4.9C262.4,34.2,261.4,32.5,254.5,30.2z"/>
<path d="M236.1,151.9c-1-6.1-5.6-10.2-5.2-15c1.1-8,4.7-14.9,4.7-18.4c0-2,2.5,0.8,4-3.2c0,0,6.1-10,9.2-12.7
	c1.8,2.8,2.5,7.6,1.2,11.3c-5.5,16.1-9.2,22.4,2.4,43.3C246.967,155.433,241.533,153.667,236.1,151.9z"/>
<path fill="#B66812" d="M279.7,82.6c-2.167-1.2-4.333-2.4-6.5-3.6c1.467,19.733,2.933,39.467,4.4,59.2
	c1.933-0.833,3.867-1.667,5.8-2.5c1.467,1.1,2.933,2.2,4.4,3.3c-0.133-20.233-0.267-40.467-0.4-60.7
	C284.833,79.733,282.267,81.167,279.7,82.6z"/>
<path fill="#F4969C" d="M251.4,100.8c1.3,2,2.7,6,2.5,8.5c4.167-0.167,8.333-0.333,12.5-0.5c-5.3-11.3,5.1-20.5-5.6-34.5
	c-4.767-3.7-9.533-7.4-14.3-11.1c-2.4,2.4-6.2,0.7-6.2,0.7c-7.3,7.6-11.8,3.8-8.9,19.3c2,6.5-8.2,10.2-5.1,17.4
	c1.6,2.5,2.9,6.2-1.1,7.4c-2.4,0.7-0.5,3.3,5.8,5.6c3.6,1.3,5.3-1.6,2.4-3.8c-4.9-3.6-2.5-10.7,7.4-6.2c2.4,0.7,2.2-4.7-4-8.9
	c2.4-1.1,4.5-1.6,8.4,2c1.6-3.3-0.4-11.4-4.9-14.9c6.9,2.2,9.4,10.4,9.4,10.4c1.3-2.867,2.6-5.733,3.9-8.6c-0.2,3,7.7,5.6,11,0.8
	c1.1,3-5.1,11.1-9.5,11.5c1.867,2.067,3.733,4.133,5.6,6.2c-1.867-0.6-3.733-1.2-5.6-1.8c0.267,1.267,0.533,2.533,0.8,3.8
	C254.4,103,252.9,101.9,251.4,100.8z"/>
<path d="M240.3,67.3c-1.167,0.833-2.333,1.667-3.5,2.5c8.4,1.6,13.6,13.3,12.9,19.3C251.9,80.6,249.9,71,240.3,67.3z"/>
<path fill="#FCD6C5" d="M226,114c-2.7,4.9,0.9,23.4,0.9,23.4c-4.7,1.3-1.6,6.2-0.2,6.4c-1.167,2.467-2.333,4.933-3.5,7.4
	c2.3,0.433,4.6,0.867,6.9,1.3c-0.433-5.2-0.867-10.4-1.3-15.6C230.5,125,226.7,125.8,226,114z"/>
<path fill="#FCD6C5" d="M225.6,211.6c0,0-15.4,21.4-15.6,20.9s-0.5-6.7,2.5-9.6c3.8-1.1,7.2-6.3,10.9-12.6
	C224.133,210.733,224.867,211.167,225.6,211.6z"/>
<path fill="#128E87" d="M223.4,210.2c6.4-10.7,13.9-24.7,26.8-27.1c6-0.5,5.9,0.6,5.9,0.6c-9.767,9.633-19.533,19.267-29.3,28.9
	c-0.4-0.4-0.8-0.8-1.2-1.2C224.867,211,224.133,210.6,223.4,210.2z"/>
<path fill="#128E87" d="M269.7,162.2c-4.8-1.433-9.6-2.867-14.4-4.3c-14.9-25-4.6-33-2.3-46c4.433,0.067,8.867,0.133,13.3,0.2
	c-1.6,7.1-5.1,11.1-9.4,12.9c6,6.3,8.5,15.6,8.5,15.6C267.8,147.9,269.7,162.2,269.7,162.2z"/>
<path fill="#FCD6C5" d="M257.3,40.3c-4,3.7-9.9-1-7.6,3.9c1.8,3.3-0.2,2.5-2.2,1.6c-2.6-1.7-3.5,2.5,0.3,4.4c0,4.3,6.7,5.6,9.5,5.6
	c-3.1-5.8,2.3-6.7-2.9-11.1c0.7-0.5,2.7-1.6,2.7-1.6C257.167,42.167,257.233,41.233,257.3,40.3z"/>
<path fill="#FFDB87" d="M234,153.7c15.833,5.067,31.667,10.133,47.5,15.2c-1.867,0.6-3.733,1.2-5.6,1.8
	c0.067,1.267,0.133,2.533,0.2,3.8C262.067,167.567,248.033,160.633,234,153.7z"/>
<path fill="#FFDB87" d="M252.2,167.3c7.633,4.333,15.267,8.667,22.9,13c-2.5-0.167-5-0.333-7.5-0.5
	C262.467,175.633,257.333,171.467,252.2,167.3z"/>
<path fill="#128E87" d="M268.1,182c-6.2,9.8-8.9,21.6-2.6,40.3c1.633,0.833,3.267,1.667,4.9,2.5c-3.4-21.3,3.1-42.1,3.1-42.1
	c-1.1,1.033-2.2,2.067-3.3,3.1C269.5,184.533,268.8,183.267,268.1,182z"/>
<path fill="#3A747B" d="M268.9,241.7c-1.5,3.4-0.5,7.5-0.5,7.5c1.3,0.1,2.6,0.2,3.9,0.3C269.7,247.6,268.9,241.7,268.9,241.7z"/>
<path fill="#3A747B" d="M281.2,244.7c-0.967,0.5-1.933,1-2.9,1.5c2.1,3.8,4.8,4.9,8.7,4.3
	C285.067,248.567,283.133,246.633,281.2,244.7z"/>
<path fill="#F4969C" d="M261,71.5c-0.533-2.067-1.067-4.133-1.6-6.2c4.6-2.8,7.2-2,10.5-0.2c1.8,0.7,3.6,4.8,3.6,4.8
	c-3.6-6.4-11.3-3.4-11.3-3.4C261.8,68.167,261.4,69.833,261,71.5z"/>
<path fill="#FCD6C5" d="M246,47.2c2.9,3.2,2.7,9.4,0.3,10.5c2.067,1.167,4.133,2.333,6.2,3.5c-0.233-3.067-0.467-6.133-0.7-9.2
	C249.867,50.4,247.933,48.8,246,47.2z"/>
<path fill="#F4969C" d="M247.3,93.3c3.9,3.3,2.5,5.9,2.5,5.9c-0.833,0.433-1.667,0.867-2.5,1.3C249.1,97.6,247.3,93.3,247.3,93.3z"
	/>
<path d="M233.5,87.4c4.9-3.9,9.3,1,9.3,1c0.067,1.433,0.133,2.867,0.2,4.3C239.7,86.8,233.5,87.4,233.5,87.4z"/>
<path fill="#623F98" d="M294.8,64.8c-9.2-5.1-16.9,5.1-16.2,11.5c0.7,0.6,1.4,1.2,2.1,1.8c1.633-0.767,3.267-1.533,4.9-2.3
	C284.2,68.9,289.4,63.8,294.8,64.8z"/>
<path fill="#FFF100" d="M298.1,75.8c4.9-7.7,20.2-29.8,3.3,1.8C300.3,77,299.2,76.4,298.1,75.8z"/>
<path fill="#009BCF" d="M301.4,77.6c-2.3-2.467-4.6-4.933-6.9-7.4c-1,1-2,2-3,3C294.8,74.667,298.1,76.133,301.4,77.6z"/>
<path d="M279.6,88.9c1.133,15.133,2.267,30.267,3.4,45.4c-0.7,0.333-1.4,0.667-2.1,1C280.467,119.833,280.033,104.367,279.6,88.9z"
	/>
<path fill="#F4969C" d="M269.9,108.2c-3.1-5.2-2-11.1-0.5-17.1c-1.3,4.8-0.2,15.7,3.3,17.2
	C271.767,108.267,270.833,108.233,269.9,108.2z"/>
<path fill="#006A44" d="M276.6,72c-0.233,1.267-0.467,2.533-0.7,3.8c-2.967-0.667-5.933-1.333-8.9-2c1.6-0.233,3.2-0.467,4.8-0.7
	c-0.867-1.367-1.733-2.733-2.6-4.1c1.6,1.367,3.2,2.733,4.8,4.1c0.333-1.7,0.667-3.4,1-5.1C275.533,69.333,276.067,70.667,276.6,72z
	"/>
<path fill="#FCD6C5" d="M304.6,102.2c-3.6,2.6-1.1,4.4-5.9,5c2,3.4,4.6-0.1,4.6-0.1c0,3.3-4.2,6.4-2.1,7.7
	c1.967-2.633,3.933-5.267,5.899-7.9C306.267,105.333,305.433,103.767,304.6,102.2z"/>
<path fill="#DE9755" d="M243.2,46.6c1.1,4.6-0.3,7.7-4.4,7.4c-0.533-0.433-1.067-0.867-1.6-1.3C241.9,52.3,243,50,243.2,46.6z"/>
<path fill="#DE9755" d="M255.6,33.1c2.8,2.3,2.1,4.4,0.5,5.4c-1.5,1-2.8-0.2-2.8-0.2C257.3,36.6,255.6,33.1,255.6,33.1z"/>
<path fill="#B66812" d="M303.2,125.8c-2.9-4.967-5.8-9.933-8.7-14.9c1.8,4.467,3.6,8.933,5.4,13.4c-2.033,0.167-4.067,0.333-6.1,0.5
	c1.733,0.833,3.467,1.667,5.2,2.5c-1,1.1-2,2.2-3,3.3C298.4,129,300.8,127.4,303.2,125.8z"/>
<path fill="#128E87" d="M270.9,129.2c1-2,0.7-16.7,0.7-16.7c1.8,3.3,2.1,22.5,2.1,22.5C273.3,132.2,270.9,129.2,270.9,129.2z"/>
<path fill="#3A747B" d="M202.8,233.6c-0.4,3.4-3.8,4.9-2.9,13.5c1.033-1.567,2.067-3.133,3.1-4.7C201.5,238,202.8,233.6,202.8,233.6
	z"/>
<path fill="#3A747B" d="M201.3,224.1c2.5-1.4,4.7-2.5,6.3-0.6c-0.133,0.833-0.267,1.667-0.4,2.5c-1.967-0.067-3.933-0.133-5.9-0.2
	C201.3,225.233,201.3,224.667,201.3,224.1z"/>
<path d="M90.3,129.5c-1.5-5.433-3-10.867-4.5-16.3c22.4-11.1,6.9-23.6,6.9-23.6c-3.7-6-1.8-8.9-2.1-18.4c0-4.5-6.4-7.3-6.4-7.3
	c9.7-8.3-5.3-6.6-1.8-11.8c1.3-3.3,0.4-5.4-1.3-7c2.2-0.5,3.6-1.4,3.9-2.7c0.7-2.4-2.6-5.6-8-8.2c0.5-4.5-2.3-8.8-6.8-10
	c-4.4-1.2-8.9,1-10.8,5c-6.5-0.6-11.4,0.5-12.1,3c-0.6,2.4,2.4,5.4,7.5,8c-0.433,0.6-0.867,1.2-1.3,1.8c0.5,0.9,1.4,1.3,1.4,1.3
	c0.1,0.8-0.1,1-0.1,1c0,0.8,0.7,1,1.1,1.2c-0.5,0.4-0.5,1.3,0.1,1.3c0.067,0.3,0.133,0.6,0.2,0.9c-0.7,2.1-0.8,3.1,2.2,2.8
	c-0.333,1.1-0.667,2.2-1,3.3c-6.9-9.3-11.8-3.6-12.6-6.7C43.1,38.3,35,42,34,36.4S13.1,18.7,13.1,18.7
	c-1.1-3.467-2.2-6.933-3.3-10.4C7.533,5.533,5.267,2.767,3,0C2.2,0.6,2.8,2.2,2.8,2.2c0.933,2.033,1.867,4.067,2.8,6.1
	C4.433,7.9,3.267,7.5,2.1,7.1C1.4,7.933,0.7,8.767,0,9.6c-0.4,0.5,1.2,1.2,0.6,2.3c-0.4,0.8-0.1,2,1.2,2.1c2.3,0.2,0.4,3.3,2.2,3.3
	c0.267-0.1,0.533-0.2,0.8-0.3c-0.5,4,3.5,5,6,8.8c-0.3,8.9,5.8,8.8,6.7,13.6c8.7,9.933,17.4,19.867,26.1,29.8
	c-4.9,20,3.2,17.9,1.2,26.1c-4.2,13.8-9.6,24.3-12.8,30c2.367,1.633,4.733,3.267,7.1,4.9c1.133,12.2,2.267,24.4,3.4,36.6
	c0.2,3.1,2.7,2.2,3.3,12.1c2,16.433,4,32.867,6,49.3c0.4,4.4-6.7,11.2-8.9,14.5c-5.6,1-7,4-5.6,5c3.3,0,6.6,0,9.9,0
	c2.6,0.1,4.1-1.7,7.3-4.3c0.033,1.3,0.067,2.6,0.1,3.9c0.4,4.9-1.1,9.4,1.7,9c7-1,8-10.8,8-10.8c0.4-1.7,1.6-0.1,1.9-1.9
	c0.3-2.267,0.6-4.533,0.9-6.8c1.4-5.9-6.3-8-3.8-18.4c1.7-6.4,2.8-11.8,3.4-16.3c17.1-4.2,17.7-30.2,51.7-25.1
	C110.3,138.7,101.9,139.8,90.3,129.5z"/>
<path fill="#00B8B0" d="M51.9,205.2c-1.6-13-3.2-26.7-3.2-26.7c0,0.067,0,0.133,0,0.2c-0.4-7-1.9-9.4-2.8-10.9
	c-0.4-0.7-0.5-0.8-0.5-1.2c0-0.1-3.3-32.5-3.3-32.5c3.8,3.1,7,3.5,7,3.5c1,13.2,16,64.3,16,64.3C59.8,206.3,51.9,205.2,51.9,205.2z"
	/>
<path fill="#00B8B0" d="M59.7,238.2c1.067,0.233,2.133,0.467,3.2,0.7c-1.633,3.233-3.267,6.467-4.9,9.7
	c-0.933-3.6-1.867-7.2-2.8-10.8C56.7,237.933,58.2,238.067,59.7,238.2z"/>
<path fill="#FBCDBB" d="M55.2,237.9c-2.5,1.067-5,2.133-7.5,3.2c3.3-3.9,7.3-8.8,6.9-13.2c0,0-1-8.5-2.2-18.5c2.5,0,6.3-3.1,6.3-3.1
	c-3.2,16,4,19.7,1,31.9C58.2,238.1,56.7,238,55.2,237.9z"/>
<path fill="#A45DA4" d="M69.6,26.7c-3-0.8-6.2,0.7-7.6,3.5c-0.267,0.6-0.533,1.2-0.8,1.8c-0.633-0.067-1.267-0.133-1.9-0.2
	c-5.9-0.6-8.8,0.5-9.2,1.1c0,0,0,0,0-0.1c-0.3,2,9.9,8.4,18.3,9.1c-4.5-2.2-5.6-7.7-5.6-7.7c3.9,2.1,10.6,1.2,10.6,1.2
	C66.8,35.3,64.7,29.2,69.6,26.7z"/>
<path fill="#00B8B0" d="M35.5,124.3c3.6-6.6,7.8-14.7,11.9-28.3c0-0.033,0-0.067,0-0.1c0-0.033,0-0.067,0-0.1c1-4.1-0.1-6.5-1.1-8.6
	c-1.3-2.8-2.9-6.2-0.1-17.4c0.8-2.7,1.6-5.4,2.4-8.1c-8.1-6.833-16.2-13.667-24.3-20.5c0.567-2.467,1.133-4.933,1.7-7.4
	c-1.433,0.5-2.867,1-4.3,1.5c-2.367-2.3-4.733-4.6-7.1-6.9c-0.367-2-0.733-4-1.1-6c9.2,5.9,17.2,12.5,17.6,14.6c0.8,4.1,4,5.2,6.2,6
	c2.4,0.8,4,1.4,4.7,4.7c0,0.033,0,0.067,0,0.1c0,0.033,0,0.067,0,0.1c0.9,3.3,3.9,3.2,5.2,3.1c1.9-0.1,4.3-0.2,7.8,4.5
	c1.033,0.233,2.067,0.467,3.1,0.7c-7.6,11.8-9.4,25.4-7,32.3c0.8,3.833,1.6,7.667,2.4,11.5c-1.167-0.1-2.333-0.2-3.5-0.3
	c-0.233,10.9-0.467,21.8-0.7,32.7c-3-1.5-6-3-9-4.5C38.7,126.7,37.1,125.5,35.5,124.3z"/>
<path fill="#00B8B0" d="M73.6,144.8c-0.3,8.9-11.4,24.9-8.3,30.5c3.5,5.9,4.2,17.4,2.4,26.1c9.7-31.9-6.6-20.8,3.5-38.8
	C76.8,151.7,73.6,144.8,73.6,144.8z"/>
<path d="M70.9,62.4C81,45,95.5,60.2,103,53.4c8.2-7.3,15.8-5,20.3-2.2c-19.5-4.1-15.6,21.6-28.5,16.1C83.4,61.7,78.5,58.6,70.9,62.4
	z"/>
<path fill="#A45DA4" d="M73.5,68.1c-5.833,5.667-11.667,11.333-17.5,17c-0.833,16.6-1.667,33.2-2.5,49.8
	c11.367-0.867,22.733-1.733,34.1-2.6c-1.6-5.533-3.2-11.067-4.8-16.6c-7.833,0.167-15.667,0.333-23.5,0.5
	c0.167-10.2,0.333-20.4,0.5-30.6C64.367,79.767,68.933,73.933,73.5,68.1z"/>
<path fill="#FBCDBB" d="M59.8,53.7c0.333,1.5,0.667,3,1,4.5c-2.667,5.567-5.333,11.133-8,16.7c5-4.1,10-8.2,15-12.3
	c-1.2-0.633-2.4-1.267-3.6-1.9c-1.767-2.967-3.533-5.933-5.3-8.9L59.8,53.7z"/>
<path d="M54.9,118.8c5.667,1.7,11.333,3.4,17,5.1c3.833-1.9,7.667-3.8,11.5-5.7c-3.733,3.767-7.467,7.533-11.2,11.3
	C66.433,125.933,60.667,122.367,54.9,118.8z"/>
<path fill="#FBCDBB" d="M53,84.5c3.3-2.5,8.7-0.3,8.7-0.3c1.1,2.733,2.2,5.467,3.3,8.2c1.633,0.533,3.267,1.067,4.9,1.6
	c1.4,5.5-1.4,6.9-1.4,6.9c-2.633-1.833-5.267-3.667-7.9-5.5c-2.7,2.5-5.5-1.9-5.5-1.9c-0.633,0.367-1.267,0.733-1.9,1.1
	c-0.067-2.367-0.133-4.733-0.2-7.1c0.533-0.367,1.067-0.733,1.6-1.1C54.067,85.767,53.533,85.133,53,84.5z"/>
<path fill="#00B8B0" d="M81.6,65.6C71.5,70,72.8,83.8,75,90.9c1.733-1.233,3.467-2.467,5.2-3.7c-0.9,1.767-1.8,3.533-2.7,5.3
	c1.3-0.767,2.6-1.533,3.9-2.3c0.7,0.933,1.4,1.867,2.1,2.8C81.8,94.3,72,92.9,72,92.9c4.9,6.4-1.2,11.6-1.2,11.6
	c3.267,0.833,6.533,1.667,9.8,2.5c6.6,0.7,9.8-9.8,5.2-11.6c1-1.733,2-3.467,3-5.2c-1.233,0.233-2.467,0.467-3.7,0.7
	c-0.167-3.2-0.333-6.4-0.5-9.6c-0.833,0.9-1.667,1.8-2.5,2.7C78.2,72.9,81.6,65.6,81.6,65.6z"/>
<path fill="#FBCDBB" d="M57.4,41.5c-1.1,1.8,3.5,4.5,1.9,8c2.2,0.1,4.4-0.6,5.2-3.4C61.7,45.1,58.6,42.6,57.4,41.5z"/>
<path fill="#FFDB87" d="M76,45.8c-3,0.6-3.6,0.2-5.5,0c1.4,1.9,3.4,7.1-4.7,7.9C65.7,53.7,76.4,56,76,45.8z"/>
<path fill="#FFDB87" d="M69.6,47.5c1.8,2.9-0.5,3.9-1.8,4.2c-0.4-0.467-0.8-0.933-1.2-1.4C69.3,50.7,69.8,48.8,69.6,47.5z"/>
<path fill="#00B8B0" d="M52.6,77.4c5.8-4.533,11.6-9.067,17.4-13.6C71,69,64.2,74.1,52.6,77.4z"/>
<path fill="#A45DA4" d="M86.4,56.3c6.4-0.2,12.1,5.7,16.2,0c-0.167,1.133-0.333,2.267-0.5,3.4C95.9,64.5,94.3,57,86.4,56.3z"/>
<path fill="#A45DA4" d="M81.1,56.2c-3,3-9,4.1-12.3,2.1c0.7,3.8,7.2,6.4,12,4.3c-0.7-1-1.4-2-2.1-3C80.5,58.8,81.1,56.2,81.1,56.2z"
	/>
<path d="M52.9,60.1c-1.8,4.3-3.3,12-3.3,12c-1-4.9,0.3-10.5,0.3-10.5C50.9,61.1,51.9,60.6,52.9,60.1z"/>
<path d="M32.3,46.7c4.4,0.7,8.2-0.5,8.2-0.5c0.3,1.1,0.8,3.3,0.8,3.3C35.7,50,32.3,46.7,32.3,46.7z"/>
<path fill="#00B8B0" d="M35.9,54.6c3.167,2.733,6.333,5.467,9.5,8.2c-0.433,0.833-0.867,1.667-1.3,2.5
	C41.367,61.733,38.633,58.167,35.9,54.6z"/>
<path fill="#A45DA4" d="M82.8,115.2c-1.133-0.433-2.267-0.867-3.4-1.3c-0.1-2.2-0.2-4.4-0.3-6.6c0.7,0.667,1.4,1.333,2.1,2
	C81.733,111.267,82.267,113.233,82.8,115.2z"/>
<path d="M48.7,100.2c-0.333,6.067-0.667,12.133-1,18.2c-0.533-3-1.067-6-1.6-9C46.967,106.333,47.833,103.267,48.7,100.2z"/>
<path fill="#00B8B0" d="M84.2,79.2c0.667-0.767,1.333-1.533,2-2.3c-1.3-1.3-3-6.6-3-6.6C82.6,72.1,84.2,79.2,84.2,79.2z"/>
<path fill="#00B8B0" d="M85.7,139.7c17.4,8.2,19.3,32.8,19.3,32.8c-6.6-0.7-13.8,2.3-16.4,6.9C92.6,165.9,97.5,155.7,85.7,139.7z"/>
<path fill="#00B8B0" d="M84.6,174c4.3-5.7,5.2-16.6,3.5-24.4c0.1,4.6-7.1,20.7-15,31.3C80.4,176,79.7,176.6,84.6,174z"/>
<path fill="#00B8B0" d="M54.6,138.4c0,0,1,24.1,6.4,38.1c-2.5-16.2,0.7-36.6,0.7-36.6c0.2,4.9,3,14.5,3,14.5c-0.5-6.9,2.5-17,2.5-17
	C63.2,138.4,54.6,138.4,54.6,138.4z"/>
<path d="M49.9,169.3c2.533,5,5.067,10,7.6,15c-2.033-2.533-4.067-5.067-6.1-7.6C50.9,174.233,50.4,171.767,49.9,169.3z"/>
<path fill="#00B8B0" d="M91.2,141.3c10.3-0.2,16.7,9.3,16.7,9.3c-0.733,1.067-1.467,2.133-2.2,3.2C103,144.3,91.2,141.3,91.2,141.3z
	"/>
<path fill="#FBCDBB" d="M3.4,9.6C6.2,11.8,5,17.5,10,19c-0.667-2.8-1.333-5.6-2-8.4c-0.6,0.233-1.2,0.467-1.8,0.7
	C5.267,10.733,4.333,10.167,3.4,9.6z"/>
<path fill="#00B8B0" d="M23.2,36.7c-0.433,1.133-0.867,2.267-1.3,3.4c-0.633-0.367-1.267-0.733-1.9-1.1
	C21.067,38.233,22.133,37.467,23.2,36.7z"/>
<path d="M60.8,84.7c-0.333,0.6-0.667,1.2-1,1.8c-0.833,0.267-1.667,0.533-2.5,0.8c-0.233,1.467-0.467,2.933-0.7,4.4
	c1.6,2.1,3,2.6,5.1,2.5c0.367-0.433,0.733-0.867,1.1-1.3C62.133,90.167,61.467,87.433,60.8,84.7z"/>
<path d="M389.9,212.5c0-20.7,0-41.4,0-62.1c-8.033,0-16.067,0-24.101,0c0,20.7,0,41.4,0,62.1
	C373.833,212.5,381.867,212.5,389.9,212.5z"/>
<path fill="#91684B" d="M368.3,152.8c0,19.067,0,38.133,0,57.2c5.133,0,10.268,0,15.4,0c0-19.067,0-38.133,0-57.2
	C378.567,152.8,373.433,152.8,368.3,152.8z"/>
<path d="M290.1,242c-0.4,3.633-0.8,7.267-1.2,10.9c2.6,0.433,5.2,0.867,7.8,1.3c4.7,3.8,11.899,1.4,11.899,1.4
	c1.5-3.9-1.8-2.3-4.5-6.6c-1.367-2.067-2.733-4.133-4.1-6.2c-1.8-2.7,2.9-13.9,8.5-18.3c3.6-2.6,4.5-2.5,6.9-0.9
	c2.199,0.7,5.899-1.1,5.899-1.1c-4,5.2-2.8,9.3-1.6,13.8c2.8,8.8-0.4,20.4-0.4,20.4c2.867-0.133,5.733-0.267,8.601-0.4
	c4.3,1.4,14.6,0.2,14.6,0.2c0.033-0.367,0.067-0.733,0.1-1.1c5.301,0,10.601,0,15.9,0c0-3.6,0.8-4-4.4-6c-5.199-2-11-14.9-11-14.9
	c1.601,1.167,3.2,2.333,4.801,3.5c0.433-0.6,0.866-1.2,1.3-1.8c7.899,4.1,2.399,7.8,19.3,10.9c2.3-4.5,0.6-4.2-2-7.9
	c-1.4-2.467-2.8-4.933-4.2-7.4c-0.467-1.933-0.933-3.867-1.399-5.8c1.433-0.7,2.866-1.4,4.3-2.1
	c5.433-13.967,10.867-27.933,16.3-41.9c0.3-1.5,0.6-3,0.9-4.5c0,0-7.601-32.9-14.2-39.7c-3.9-2.8-0.101-5.1-2.3-8.5
	c-1.7-2.667-3.4-5.333-5.101-8c0.101-1.067,0.2-2.133,0.3-3.2c4.9-0.5,0.4-7.8,3-12.9c2.7-5.4-3.1-11.3-1.3-15.9
	c2.3-6,2.3-16.1-3.5-21.4c-1.3-2.233-2.6-4.467-3.899-6.7c-0.867-0.6-1.733-1.2-2.601-1.8c0.033-1.2,0.067-2.4,0.101-3.6
	c4,0.8,5.3-1.1,4.399-3.7c0,0,4.2-6,1.8-10.2c0.4-0.633,0.801-1.267,1.2-1.9c0.133-2.167,0.268-4.333,0.4-6.5c0.267-1,0.533-2,0.8-3
	c-5.5-4.9-26-7.7-24.4,9.3c0.301,2.433,0.601,4.867,0.9,7.3c-1.9,12.5-11.2,7.1-8.8,12.9c-4.9,3.4-14.7,5-14.101,26
	c5.301,10.9-9,5.5,4.9,30.5c-10.1,6.2-6.3,17.8-3.5,20.6c2,1.8,3.4,3.6,1.5,4.6c-2.233,1.067-4.467,2.133-6.7,3.2
	c-5.1,3-4.5,11.5-8.8,14.2c-6.4,4.9,2,14.6,2,14.6c-4,11.4-5.5,14.8-4.3,20.1c0.8,3.5-1.3,8.4-1.3,8.4
	c-2.333,4.733-4.667,9.467-7,14.2c1.333,1.233,2.667,2.467,4,3.7c-3.6,4.5-2.4,11.3-2.4,11.3c0.033,1.433,0.067,2.867,0.1,4.3
	c-0.5,0.067-1,0.133-1.5,0.2c-0.2,1.233-0.4,2.467-0.6,3.7C291.033,240.4,290.567,241.2,290.1,242z"/>
<path fill="#B281B9" d="M338.2,53.6c-0.3,2.7-5.9,5.2-5.9,5.2c-1.899,0.4,0.101,2.6,0.101,2.6c-6.5,3-15.5,5.4-15,25.1
	c4.899,8.6-8.7,7.6,4.5,29.3c2.5-1.8,7.899-1.6,11.699,0c1.601-9.4-3.399-6.9-2.199-12.3c2.199-3.1,5.3-7.6,4.1-12.4
	c-0.5,2.5-5.2,4.6-5.2,4.6c9.4-12.3,5.7-23,2-28.3c2.101-1.867,4.2-3.733,6.3-5.6c2.301,2.8,4.601,5.6,6.9,8.4c1.1-2,2.2-4,3.3-6
	C345.267,60.667,341.733,57.133,338.2,53.6z"/>
<path fill="#B281B9" d="M347.2,84.3c-3.101,3.8-6.2,7.6-9.3,11.4c1.899-3.4,2.899-7.1,1-9.1c2.6-3.7,4.199-10.6-3.5-18.1
	c1.1-2.667,2.199-5.333,3.3-8c1.732,4.3,3.467,8.6,5.2,12.9c2.366-1.467,4.732-2.933,7.1-4.4c8.4,8.6-4.6,24.9,2,30.2
	c1.167-0.5,2.333-1,3.5-1.5c1.5,5-10.2,16.3-10.2,16.3c-3.7,4-2.6-2.7-0.7-7.5c1.9-4.8,2.5-9.8,2.5-9.8
	c-2.967,2.167-5.933,4.333-8.899,6.5C341.867,96.9,344.533,90.6,347.2,84.3z"/>
<path fill="#FCDCCE" d="M354.6,31.3c-0.066,2.633-0.133,5.267-0.199,7.9c-1.268-0.233-2.533-0.467-3.801-0.7c-1,0.833-2,1.667-3,2.5
	c4.9,3.4-2.899,9.2,4.9,14.6c-1.633-0.133-3.267-0.267-4.9-0.4c-1.8-1.6-3.6-3.2-5.399-4.8c0.033-1.533,0.066-3.067,0.1-4.6
	c-0.5-0.233-1-0.467-1.5-0.7c-2.8-2.9-1.8-8.4,1.9-5.7c-0.033-0.967-0.067-1.933-0.101-2.9c1.033,0,2.067,0,3.101,0
	C342.7,33.1,346,29.9,354.6,31.3z"/>
<path fill="#FCDCCE" d="M354.9,40.8c0.133,1.867,0.267,3.733,0.399,5.6c0.5,0,1,0,1.5,0c-0.267-1.867-0.533-3.733-0.8-5.6
	C355.633,40.8,355.267,40.8,354.9,40.8z"/>
<path fill="#EF6188" d="M320,143.5c-5.6,2.3-10.7,2.7-12.3,11.4c-0.5,2.9-1.8,4.1-3.3,5.2c2.6,0.4,6.1,5.3,6.1,5.3
	c7.1-4.2,8-11.2,5.4-16.9c1.532-0.833,3.066-1.667,4.6-2.5c1.6,2.6,6,2.5,6,2.5c-0.033-0.733-0.067-1.467-0.1-2.2
	C322.8,146.9,320,143.5,320,143.5z"/>
<path fill="#FCDCCE" d="M310.4,178.6c-1.7,2.7,0.899,5.2,1.899,5.5c0.2,1.1,0.4,2.2,0.601,3.3c2.1,1.2,2-2,4.8-1.9
	c0.8,0.1,3.7,1.5,2.1-1.8c-0.6-1.167-1.2-2.333-1.8-3.5C316.5,177.7,310.4,178.6,310.4,178.6z"/>
<path fill="#FCDCCE" d="M303.1,162.3c-2.9,2.9,3.5,12,5.9,13.6C309.6,172.3,308.7,166.4,303.1,162.3z"/>
<path fill="#FCDCCE" d="M326.2,127.7c3.7,4.2-2.9,8.4,1.399,13.4c-5.699-0.5-7.899-4.8-8.199-6.9c3-1.5,4.8-4.2,4.199-6.9
	C323,124.6,326.2,127.7,326.2,127.7z"/>
<path fill="#FCDCCE" d="M336.3,135.5c-1,3-2.399,4.6-3.7,5.2c-0.133,0.967-0.267,1.933-0.399,2.9c3.1,0.5,6.399,4.7,5.1,10.7
	c1.9-0.933,3.8-1.867,5.7-2.8c0.633,0.467,1.267,0.933,1.9,1.4c0.699-0.567,1.399-1.133,2.1-1.7c-0.833-2.633-1.667-5.267-2.5-7.9
	C341.767,140.7,339.033,138.1,336.3,135.5z"/>
<path fill="#57326E" d="M334.4,116c4.8,1.8,5.5,9.3,3.199,12.3c-2.3,2.5,0.2,3-0.8,6.2c4,2.133,8,4.267,12,6.4
	c-1.633-3.767-3.267-7.533-4.899-11.3c2.267,1.633,4.532,3.267,6.8,4.9c-0.867-3.3-1.733-6.6-2.601-9.9
	c1.733,0.833,3.468,1.667,5.2,2.5c-0.167-1.6-0.333-3.2-0.5-4.8c-3.867-0.133-7.732-0.267-11.6-0.4c-0.101-1.167-0.2-2.333-0.3-3.5
	c3.899,0.167,7.8,0.333,11.699,0.5c-0.032-0.933-0.066-1.867-0.1-2.8C346.467,116.067,340.433,116.033,334.4,116z"/>
<path fill="#EF6188" d="M302.7,196.5c0.4,3.1-1.4,5.7-1.4,5.7c-2.133,4.733-4.267,9.467-6.4,14.2c2.9,4.1,8.9,6.3,8.9,6.3
	c1.467-8.5,2.934-17,4.4-25.5C306.367,196.967,304.533,196.733,302.7,196.5z"/>
<path fill="#FFFFFF" d="M352.7,166.3c-0.768,6.1-1.533,12.2-2.3,18.3c-8.9,12.9-8.601,38.4-8.601,38.4
	c1.033-1.4,2.067-2.8,3.101-4.2c-0.468-0.733-0.934-1.467-1.4-2.2c3.4-7.033,6.8-14.067,10.2-21.1c-0.133-0.733-0.268-1.467-0.4-2.2
	c0.8-4.1,6.4-8.3,6.4-8.3c-0.601-1-1.2-2-1.8-3c0.833-0.733,1.667-1.467,2.5-2.2C357.833,175.3,355.267,170.8,352.7,166.3z"/>
<path fill="#57326E" d="M353.8,128.5c0.101,2.1,0.2,4.2,0.3,6.3c0.9,1.4,1.801,2.8,2.7,4.2c-1,5.8-2,11.6-3,17.4
	c5.434,2.667,10.867,5.333,16.3,8c-3.3,0.233-6.6,0.467-9.899,0.7c4.399,3.233,8.8,6.467,13.2,9.7
	c-2.268,0.467-4.533,0.933-6.801,1.4c2.301,2.467,4.601,4.933,6.9,7.4c1.9-1.667,3.8-3.333,5.7-5c-1.9-8.3-7.5-30.2-12.3-36.9
	c-0.733-0.233-1.468-0.467-2.2-0.7c-1.867,1.8-3.733,3.6-5.601,5.4c1.468-3.233,2.934-6.467,4.4-9.7c1.2-2.9-1.9-7.6-4.2-11.7
	c-0.167,1.667-0.333,3.333-0.5,5C357.133,129.5,355.467,129,353.8,128.5z"/>
<path fill="#EF6188" d="M302.5,194.3c8.9,2.7,18.7,2.7,22.2-0.4c1.1-1,0.8-3.1,0.8-3.1C317.5,196.4,302.5,194.3,302.5,194.3z"/>
<path fill="#EF6188" d="M308.9,192.6c0.1-6.8-4.8-5.4-2.9-10.3c1-2.3-1.4-2.6-0.4-6.5c-1.8,5.9-4.9,12.1-3.7,16.8
	C303.9,193.3,307.2,192.9,308.9,192.6z"/>
<path fill="#57326E" d="M371.6,183.1c-6.399,0.7-14.5,6.3-15.199,11.1c0.032,0.533,0.066,1.067,0.1,1.6
	c-3.167,6.933-6.333,13.867-9.5,20.8c2.433,1.733,4.867,3.467,7.3,5.2C360.067,208.9,365.833,196,371.6,183.1z"/>
<path fill="#6D6E70" d="M343.9,224.6c3.767,3.6,7.532,7.2,11.3,10.8c1.333-1.033,2.667-2.067,4-3.1c-0.333-1.667-0.667-3.333-1-5
	c-3.768-2.133-7.533-4.267-11.3-6.4C345.9,222.133,344.9,223.367,343.9,224.6z"/>
<path fill="#EF6188" d="M327.4,194.3c1.366,7.5,2.732,15,4.1,22.5c-1.9,2.4-6.7,3.1-6.7,3.1c-0.167-7.833-0.333-15.667-0.5-23.5
	c0.733,0.667,1.467,1.333,2.2,2C326.8,197.033,327.1,195.667,327.4,194.3z"/>
<path fill="#D25579" d="M322.3,253.1c1.733-0.167,3.467-0.333,5.2-0.5c1.1,0.533,2.2,1.067,3.3,1.6
	c3.467,0.133,6.934,0.267,10.4,0.4c-0.833-0.967-1.667-1.933-2.5-2.9c-1.3-0.067-2.601-0.133-3.9-0.2c-2.033-2.4-4.066-4.8-6.1-7.2
	c-0.101,2.8-3.2,3.8-5.7,0.4C323.8,248.2,322.3,253.1,322.3,253.1z"/>
<path fill="#57326E" d="M340.8,235.8c-1.133-1.367-2.267-2.733-3.399-4.1c-0.2,2.167-0.4,4.333-0.601,6.5
	c-0.867-0.633-1.732-1.267-2.6-1.9c0.867-2.833,1.732-5.667,2.6-8.5c-1.566,2.333-3.133,4.667-4.7,7c0.567-5.6,1.134-11.2,1.7-16.8
	c-0.433,0.533-0.867,1.067-1.3,1.6c0.7,4.8-4.6,7.6-2.6,22.1c0.399,0.2,0.8,0.4,1.199,0.6c1.968,2.333,3.934,4.667,5.9,7
	c0.933,0.033,1.867,0.067,2.8,0.1c-0.2-3.367-0.399-6.733-0.6-10.1c0.767-0.067,1.533-0.133,2.3-0.2
	C341.267,238,341.033,236.9,340.8,235.8z"/>
<path fill="#D25579" d="M292.8,242.3c-0.333,2.667-0.667,5.333-1,8c5.7-0.3,7.9,2.6,9.6,1.5c-1.8-3.033-3.6-6.067-5.4-9.1
	C293.9,243.9,292.8,242.3,292.8,242.3z"/>
<path fill="#FCDCCE" d="M338.2,160.9c0,0,0,5.8-4,12.7c0,0,6.2-6.2,6.7-12.1c0.1-3.3-1.601-4,0.3-6.8c-0.9,0.6-1.8,1.2-2.7,1.8
	C337.8,157.6,338.2,160.9,338.2,160.9z"/>
<path fill="#B281B9" d="M358.7,79.3c3,6.6-1.3,12.1-1.3,12.1c-0.533-0.667-1.067-1.333-1.601-2C358.7,86.8,358.7,79.3,358.7,79.3z"
	/>
<path fill="#57326E" d="M341.7,170.1c-0.233,3.7-0.467,7.4-0.7,11.1c-5.2,3.9-4.9,26.6-4.9,26.6c-1.3-3.6-2.6-7.2-3.899-10.8
	c1.1-1.733,2.2-3.467,3.3-5.2c-1.3-0.533-2.6-1.067-3.9-1.6c2.067-2.4,4.134-4.8,6.2-7.2c-1-0.867-2-1.733-3-2.6
	C337.1,176.967,339.4,173.533,341.7,170.1z"/>
<path fill="#B281B9" d="M359.4,106.7c1.199,3.3,2.5,7.9-0.601,9.8c-0.767-0.233-1.533-0.467-2.3-0.7
	C359.4,113.2,359.4,106.7,359.4,106.7z"/>
<path d="M331.3,81.8c0.9,5-7.7,8.2-7.7,8.2c-3.5,2.8,3,2.4,3,2.4C334.4,88.9,331.3,81.8,331.3,81.8z"/>
<path fill="#B281B9" d="M351.8,62.5c0.533,2.233,1.067,4.467,1.601,6.7c0.366-1.367,0.732-2.733,1.1-4.1
	C353.6,64.233,352.7,63.367,351.8,62.5z"/>
<path fill="#FCDCCE" d="M342.7,46.6c-1,0.967-2,1.933-3,2.9c-0.233,0.767-0.467,1.533-0.7,2.3c1.8,1.867,3.6,3.733,5.4,5.6
	c-0.367-2.9-0.733-5.8-1.101-8.7C343.1,48,342.9,47.3,342.7,46.6z"/>
<path d="M332.9,96.7c-2.7,5.9-5.9,7.7-11.301,9.1c-4.399,0.2-4.1-3.3-1.199-3.9C330.3,101.5,332.9,96.7,332.9,96.7z"/>
<path fill="#B281B9" d="M334.7,105.7c3.8,2.7,1.2,7.5,1.2,7.5c4.1-3.7,2.6-7.6,1-9.1C336.167,104.633,335.433,105.167,334.7,105.7z"
	/>
<path fill="#EF6188" d="M326.6,188.9c-1.1-4.4-9.1-16.2-9.1-16.2c1.767,0.233,3.533,0.467,5.3,0.7c4.4,0.3,3.4-8.5-1.2-13.4
	c2.867-0.167,5.733-0.333,8.601-0.5c-0.101-3.767-0.2-7.533-0.3-11.3c3.1-3.1,5.899,3,5,9.3c-0.801,6.5-6.801,5.4-3.9,11.1
	c3.3,5-3,3.1-1.1,10.2C332.4,183.9,329.2,187.8,326.6,188.9z"/>
<path fill="#FCDCCE" d="M332.5,132.4c2,1.1-0.5,3-1,2C330.6,132.5,332.5,132.4,332.5,132.4z"/>
<path fill="#EF6188" d="M312.1,167.5c2.801-1.8,4.801-5.3,5.301-9.1c1.1,3.2-0.601,9.2-4.301,11.3
	C312.9,168.9,312.1,167.5,312.1,167.5z"/>
<path fill="#715838" d="M327,117.6c7.1-1.2,10.3,6.9,6.9,9.6c-0.867-0.067-1.733-0.133-2.601-0.2C335.8,122,330.4,117.6,327,117.6z"
	/>
<path fill="#715838" d="M329.7,126.8c3.1-2.6,1.8-4.3,0.5-5.9c1.1,1.4-0.2,5.3-2.2,5.7C328.567,126.667,329.133,126.733,329.7,126.8
	z"/>
<path d="M342.2,146.4c0.7,1.633,1.399,3.267,2.1,4.9c-0.6-0.367-1.2-0.733-1.8-1.1C342.4,148.933,342.3,147.667,342.2,146.4z"/>
<path fill="#EF6188" d="M316.8,221.3c-0.867-0.4-1.732-0.8-2.6-1.2c0.933-7.033,1.867-14.067,2.8-21.1c1.5,2.7,3,5.4,4.5,8.1
	c-1.2-0.6-2.4-1.2-3.6-1.8c0.732,1.967,1.467,3.933,2.199,5.9c-1.267-0.467-2.532-0.933-3.8-1.4c0.733,3.6,1.467,7.2,2.2,10.8
	C317.933,220.833,317.367,221.067,316.8,221.3z"/>
<path fill="#FCDCCE" d="M297.2,222c-3.4,2.3-2.1,10.9-2.1,10.9c0.4,0.167,0.8,0.333,1.2,0.5c-0.1-4.2,3.9-9,3.9-9
	C298.9,224.5,297.2,222,297.2,222z"/>
<path d="M365.5,191.8c-2.367,0.9-4.733,1.8-7.1,2.7c0.5,1.067,1,2.133,1.5,3.2C361.767,195.733,363.633,193.767,365.5,191.8z"/>
<path d="M360.8,157.3c2.967,0.9,5.934,1.8,8.9,2.7c0.333-0.667,0.667-1.333,1-2C367.4,157.767,364.1,157.533,360.8,157.3z"/>
<path fill="#6D6E70" d="M361.8,241.7c1.4,0.9,4.3,1.4,4.3,1.4c-0.467-0.533-0.933-1.067-1.399-1.6
	C363.733,241.567,362.767,241.633,361.8,241.7z"/>
</svg>
