<?xml version="1.0" encoding="utf-8"?>
<!-- Generator: Adobe Illustrator 16.0.0, SVG Export Plug-In . SVG Version: 6.00 Build 0)  -->
<!DOCTYPE svg PUBLIC "-//W3C//DTD SVG 1.1//EN" "http://www.w3.org/Graphics/SVG/1.1/DTD/svg11.dtd">
<svg version="1.1" id="Layer_1" xmlns="http://www.w3.org/2000/svg" xmlns:xlink="http://www.w3.org/1999/xlink" x="0px" y="0px"
	 width="294.927px" height="339.402px" viewBox="0 0 294.927 339.402" enable-background="new 0 0 294.927 339.402"
	 xml:space="preserve">
<g>
	<g>
		<g>
			<g>
				<g>
					<path fill="#FFFFFF" d="M127.09,103.497c-3.5-3.5-7.6-6.3-12.2-8.5c-4.6-2-9.3-3.5-14.3-4.1c-6.1-0.8-12.6-0.5-19.3,0.8
						c-7,1.4-14,3.9-21.2,7.7c-7,3.7-13.6,8.3-19.8,13.8c-6,5.3-11.5,11.3-16.5,17.8c-5.7,7.6-10.4,15.6-14.101,24
						c-3.899,8.7-6.7,17.601-8.2,26.601c-1.5,8.399-1.8,16.3-1.2,23.899c0.8,7.7,2.6,14.601,5.399,21c2.601,6,6.101,11,10.2,15.3
						c2.7,2.601,5.5,4.9,8.7,6.801c3.1,1.899,6.4,3.5,9.9,4.699c2.2,0.7,4.7,1.2,7.4,1.7c2.1,0.3,4.6,0.5,7.5,0.8
						c0.5-0.1,1.1-0.199,2-0.199c0.9,0.1,1.6,0,1.9,0c4.7-0.301,9.399-1.101,14.2-2.301c8.6-2.399,17-6.399,25.3-12
						c10.7-7.3,20-16.3,28.2-27.3c5.3-7.399,9.7-15,13.3-23c3.7-8.3,6.4-16.8,8-25.3c1.5-8.7,2-17,1.3-25.1
						c-0.7-7.6-2.5-14.6-5.3-21c-0.1-0.4-0.3-0.7-0.4-1.1c-1.3-2.4-2.5-4.4-3.5-6C132.29,109.096,129.79,106.096,127.09,103.497z
						 M108.19,100.396c4,1.7,7.6,4.2,10.9,7.4c3.2,3.1,5.9,6.6,8.1,10.4c3.6,6.4,5.9,13.8,6.8,22.1c0.8,7.7,0.4,15.7-1.1,24.2
						c-1.3,7.101-3.5,14-6.4,21c-2.8,6.601-6.3,13-10.5,19.2c-4.2,6.3-9,12-14.2,17.1c-5.5,5.4-11.2,10-17.5,13.801
						c-6.3,3.899-12.7,6.8-19.1,8.6c-5.6,1.6-11,2.3-16.3,2.3c-4,0-7.8-0.5-11.4-1.5c-4-0.899-7.4-2.399-10.7-4.399
						c-3.2-1.801-6.101-4.101-8.7-6.801c-2.6-2.699-4.8-5.699-6.7-8.899c-3.6-6.2-5.9-13.3-6.9-21.4c-0.9-7.399-0.6-15.3,0.7-23.399
						c1.5-8.2,4-16.4,7.601-24.5c4.6-10.6,10.899-20.3,18.6-29.1c5.8-6.5,11.9-12,18.6-16.6c7-4.8,14.2-8.4,21.5-10.8
						c7.3-2.2,14.3-3.1,21-2.6C98.09,96.796,103.29,98.096,108.19,100.396z"/>
				</g>
			</g>
			<g>
				<g>
					<path fill="#FFFFFF" d="M111.89,116.997c-3.6-4.1-7.7-7.3-12.7-9.5c-3.7-1.6-7.7-2.5-11.9-2.9c-4-0.4-8-0.1-12.1,0.6
						c-6.5,1.2-12.8,3.5-19.2,7c-5.5,3.2-10.7,7-15.7,11.6c-4.8,4.3-9,9.2-12.9,14.7c-6,8.2-10.5,17.1-13.6,26.7
						c-2.7,8.3-4.101,16.3-4.101,24.3c-0.1,8.5,1.4,16,4.3,22.7c1.5,3.5,3.5,6.7,5.9,9.5c2.4,3,5.2,5.4,8.2,7.4
						c3.3,2.1,6.7,3.6,10.7,4.5c3.7,0.899,7.5,1.3,11.5,1.1c5.7-0.2,11.6-1.6,17.6-4c5.6-2.2,11-5.2,16.3-9.1
						c6.3-4.601,12-10.101,17-16.4c5-6.2,9.1-12.8,12.6-20.1c3.9-8.2,6.5-16.5,7.8-25c1.2-8.4,1-16.2-0.5-23.6
						C119.49,128.796,116.39,122.296,111.89,116.997z M56.09,125.196c5.2-2.6,10.2-4.1,15.1-4.5c4.601-0.3,8.8,0.2,12.8,1.8
						c2.3,0.9,4.3,2.1,6.3,3.7c2,1.7,3.6,3.5,5,5.7c1.7,2.5,3,5.4,3.9,8.6c0.9,3,1.4,6.1,1.4,9.5c0.4,8.101-1.3,16.5-5,25.101
						c-1.9,4.5-4.3,8.8-7.1,12.899c-3,4-6.2,7.7-9.8,11c-6.5,6.101-13.5,10.2-20.8,12.3c-3.2,0.9-6.3,1.4-9.4,1.4
						c-3.3,0.1-6.4-0.4-9.3-1.4c-2.3-0.8-4.399-2-6.399-3.399c-2-1.5-3.7-3.2-5.2-5.2c-1.7-2.4-3.2-5.2-4.2-8.2
						c-1-2.899-1.5-5.899-1.8-9.1c-0.6-7.101,0.5-14.4,3-22.101c1.7-4.8,3.8-9.399,6.4-13.8c2.6-4.4,5.8-8.4,9.3-12.1
						C45.09,132.196,50.49,128.196,56.09,125.196z"/>
				</g>
			</g>
			<g>
				<g>
					<path fill="#FFFFFF" d="M78.29,130.596c-1.5-0.7-3.3-1.2-5.101-1.5c-2.6-0.5-5.399-0.4-8.2,0.1c-2.7,0.5-5.3,1.3-8,2.5
						c-4.2,2-8.1,4.8-11.8,8.2c-3.399,3.1-6.5,6.8-9.2,11c-2.5,4-4.4,8.1-5.9,12.3c-1.5,4.5-2.3,9-2.5,13.4c0,3.1,0.3,6.1,1,8.899
						c0.7,3,1.8,5.7,3.3,8.101c1.1,1.5,2.4,2.899,3.8,4.1c1.4,1.3,2.9,2.3,4.7,3c3.3,1.5,7,2,11.1,1.7c3.9-0.4,7.9-1.8,12-3.9
						c6.3-3.399,11.9-8.3,16.7-14.8c2.9-4,5.3-8.1,7-12.5c1.8-4.6,3-9.2,3.5-13.8c0.3-3.3,0.2-6.4-0.3-9.4c-0.5-3.2-1.5-6.1-2.9-8.8
						c-1-1.8-2.3-3.6-3.9-5.1S80.29,131.497,78.29,130.596z M72.79,160.496c-0.5,4.3-2.2,8.5-5,12.5c-2.8,3.9-6,6.601-9.7,8.4
						c-3.1,1.5-5.9,1.8-8.6,1.399c-1.3-0.3-2.5-0.699-3.5-1.399c-1.1-0.7-2-1.4-2.7-2.5c-1.7-2.3-2.5-5.3-2.4-8.8
						c0.1-2.2,0.5-4.5,1.1-6.7c0.8-2.2,1.8-4.3,3-6.4c2.4-3.7,5.3-6.6,8.6-8.8c1.9-1.2,3.9-2,5.9-2.4c2.3-0.4,4.4-0.3,6.3,0.3
						c1.2,0.4,2.399,1.1,3.399,2c0.8,0.899,1.601,1.899,2.3,3.1C72.79,153.796,73.189,156.896,72.79,160.496z"/>
				</g>
			</g>
		</g>
		<g>
			<g>
				<g>
					<path fill="#E11376" d="M119.09,107.796c-3.3-3.2-6.9-5.7-10.9-7.4c-4.9-2.3-10.1-3.6-15.7-3.9c-6.7-0.5-13.7,0.4-21,2.6
						c-7.3,2.4-14.5,6-21.5,10.8c-6.7,4.6-12.8,10.1-18.6,16.6c-7.7,8.8-14,18.5-18.6,29.1c-3.601,8.1-6.101,16.3-7.601,24.5
						c-1.3,8.1-1.6,16-0.7,23.399c1,8.101,3.3,15.2,6.9,21.4c1.9,3.2,4.1,6.2,6.7,8.899c2.6,2.7,5.5,5,8.7,6.801
						c3.3,2,6.7,3.5,10.7,4.399c3.6,1,7.4,1.5,11.4,1.5c5.3,0,10.7-0.7,16.3-2.3c6.4-1.8,12.8-4.7,19.1-8.6
						c6.3-3.801,12-8.4,17.5-13.801c5.2-5.1,10-10.8,14.2-17.1c4.2-6.2,7.7-12.6,10.5-19.2c2.9-7,5.1-13.899,6.4-21
						c1.5-8.5,1.9-16.5,1.1-24.2c-0.9-8.3-3.2-15.7-6.8-22.1C124.99,114.396,122.29,110.896,119.09,107.796z M99.19,107.497
						c5,2.2,9.1,5.4,12.7,9.5c4.5,5.3,7.6,11.8,9.2,19.5c1.5,7.4,1.7,15.2,0.5,23.6c-1.3,8.5-3.9,16.8-7.8,25
						c-3.5,7.3-7.6,13.899-12.6,20.1c-5,6.3-10.7,11.8-17,16.4c-5.3,3.899-10.7,6.899-16.3,9.1c-6,2.4-11.9,3.8-17.6,4
						c-4,0.2-7.8-0.2-11.5-1.1c-4-0.9-7.4-2.4-10.7-4.5c-3-2-5.8-4.4-8.2-7.4c-2.4-2.8-4.4-6-5.9-9.5c-2.9-6.7-4.4-14.2-4.3-22.7
						c0-8,1.4-16,4.101-24.3c3.1-9.6,7.6-18.5,13.6-26.7c3.9-5.5,8.1-10.4,12.9-14.7c5-4.6,10.2-8.4,15.7-11.6
						c6.4-3.5,12.7-5.8,19.2-7c4.101-0.7,8.1-1,12.1-0.6C91.49,104.997,95.49,105.896,99.19,107.497z"/>
				</g>
			</g>
			<g>
				<g>
					<path fill="#E11376" d="M83.99,122.497c-4-1.6-8.2-2.1-12.8-1.8c-4.899,0.4-9.899,1.9-15.1,4.5c-5.6,3-11,7-15.8,12.2
						c-3.5,3.7-6.7,7.7-9.3,12.1c-2.6,4.4-4.7,9-6.4,13.8c-2.5,7.7-3.6,15-3,22.101c0.3,3.2,0.8,6.2,1.8,9.1c1,3,2.5,5.8,4.2,8.2
						c1.5,2,3.2,3.7,5.2,5.2c2,1.399,4.1,2.6,6.399,3.399c2.9,1,6,1.5,9.3,1.4c3.1,0,6.2-0.5,9.4-1.4c7.3-2.1,14.3-6.199,20.8-12.3
						c3.6-3.3,6.8-7,9.8-11c2.8-4.1,5.2-8.399,7.1-12.899c3.7-8.601,5.4-17,5-25.101c0-3.4-0.5-6.5-1.4-9.5
						c-0.9-3.2-2.2-6.1-3.9-8.6c-1.4-2.2-3-4-5-5.7C88.29,124.596,86.29,123.396,83.99,122.497z M64.99,129.196
						c2.8-0.5,5.6-0.6,8.2-0.1c1.8,0.3,3.601,0.8,5.101,1.5c2,0.9,3.7,2,5.3,3.5s2.9,3.3,3.9,5.1c1.4,2.7,2.4,5.6,2.9,8.8
						c0.5,3,0.6,6.101,0.3,9.4c-0.5,4.6-1.7,9.2-3.5,13.8c-1.7,4.4-4.1,8.5-7,12.5c-4.8,6.5-10.399,11.4-16.7,14.8
						c-4.1,2.101-8.1,3.5-12,3.9c-4.1,0.3-7.8-0.2-11.1-1.7c-1.8-0.7-3.3-1.7-4.7-3c-1.399-1.2-2.7-2.6-3.8-4.1
						c-1.5-2.4-2.6-5.101-3.3-8.101c-0.7-2.8-1-5.8-1-8.899c0.2-4.4,1-8.9,2.5-13.4c1.5-4.2,3.4-8.3,5.9-12.3
						c2.7-4.2,5.8-7.9,9.2-11c3.7-3.4,7.601-6.2,11.8-8.2C59.689,130.497,62.29,129.696,64.99,129.196z"/>
				</g>
			</g>
			<g>
				<path fill="#E11376" d="M67.79,172.996c2.8-4,4.5-8.2,5-12.5c0.399-3.6,0-6.7-1.3-9.3c-0.7-1.2-1.5-2.2-2.3-3.1
					c-1-0.9-2.2-1.6-3.399-2c-1.9-0.6-4-0.7-6.3-0.3c-2,0.4-4,1.2-5.9,2.4c-3.3,2.2-6.2,5.1-8.6,8.8c-1.2,2.101-2.2,4.2-3,6.4
					c-0.6,2.2-1,4.5-1.1,6.7c-0.1,3.5,0.7,6.5,2.4,8.8c0.7,1.1,1.6,1.8,2.7,2.5c1,0.7,2.2,1.1,3.5,1.399
					c2.7,0.4,5.5,0.101,8.6-1.399C61.79,179.597,64.99,176.896,67.79,172.996z"/>
			</g>
		</g>
		<g>
			<g>
				<path fill="#7C7C7C" d="M129.19,236.496c4.7-4.6,9.1-9.7,12.9-15.2c3.7-5.399,6.8-11.3,9.4-17.399c2.9-7.3,4.9-14.5,5.9-21.9
					c1-7.8,0.9-15.399-0.3-22.6c-1.3-7.3-3.7-13.9-7.2-20l-7.5-13c-1.9-3.5-3.4-6.2-4.5-7.9c0.1,0.4,0.3,0.7,0.4,1.1
					c2.8,6.4,4.6,13.4,5.3,21c0.7,8.1,0.2,16.4-1.3,25.1c-1.6,8.5-4.3,17-8,25.3c-3.6,8-8,15.601-13.3,23c-8.2,11-17.5,20-28.2,27.3
					c-8.3,5.601-16.7,9.601-25.3,12c-4.8,1.2-9.5,2-14.2,2.301c-0.3,0-1,0.1-1.9,0c-0.9,0-1.5,0.1-2,0.199
					c0.1,0,0.5,0.101,0.8,0.101c0.3,0.1,0.5,0,0.9,0.1l15.6,1.5c1.4,0,3.601,0.3,6.5,0.601c2.601,0.199,4.7,0.3,6.5,0.199
					c8.6,0,17.3-2.1,25.9-5.8C114.09,248.597,121.89,243.296,129.19,236.496z"/>
			</g>
		</g>
	</g>
	<g>
		<g>
			<g>
				<g>
					<path fill="#FFFFFF" d="M264.889,160.696c4.5-1.9,8.7-4.6,12.5-8c3.7-3.3,6.801-7.2,9.4-11.6c3.1-5.3,5.3-11.3,6.7-18
						c1.399-7,1.8-14.5,1.1-22.5c-0.7-7.9-2.399-15.7-5-23.7c-2.6-7.5-6-14.9-10.2-22c-4.699-8.2-10.199-15.5-16.5-22.3
						c-6.5-6.9-13.6-12.9-21.3-17.9c-7.1-4.5-14.3-7.9-21.5-10.2c-7.399-2.3-14.5-3.4-21.399-3.3c-6.5,0.2-12.5,1.3-18.101,3.6
						c-3.399,1.4-6.7,3.1-9.7,5.2c-3,2.2-5.6,4.7-8.1,7.4c-1.5,1.8-3,3.8-4.4,6.1c-1.1,1.9-2.3,4.2-3.6,6.7c-0.1,0.4-0.4,1-0.7,1.8
						c-0.3,0.9-0.5,1.5-0.7,1.9c-1.6,4.3-2.7,9-3.3,13.9c-1.2,8.9-0.8,18.2,1.2,28c2.5,12.6,7.3,24.7,14.3,36.5
						c4.601,7.7,9.9,14.7,16,21.2c6.2,6.5,12.9,12.2,20.2,17c7.4,4.9,14.9,8.5,22.5,11c7.3,2.2,14.5,3.4,21.5,3.2
						c0.3,0,0.6,0.1,1,0.1c2.8-0.3,5.1-0.6,7-0.8C257.79,163.196,261.389,162.196,264.889,160.696z M275.089,144.497
						c-3.2,2.9-6.8,5.2-11,7.1c-4.2,1.8-8.399,2.899-12.8,3.399c-7.4,0.9-15,0.101-23-2.3c-7.4-2.1-14.6-5.6-21.9-10.3
						c-5.899-3.9-11.6-8.7-16.699-14c-5.101-5.3-9.601-10.9-13.801-17.2c-4.1-6.2-7.5-12.8-10.199-19.7c-2.8-7-4.8-14.1-5.9-21.3
						c-1.1-7.4-1.3-14.4-0.5-21c0.6-5.8,2-11.1,4.2-16c1.5-3.5,3.399-6.9,5.8-9.9c2.4-3.1,5-5.9,8.1-8.1c2.9-2.2,6.2-4,9.7-5.4
						c3.5-1.3,7.101-2.2,10.8-2.6c7-0.9,14.5-0.3,22.301,2c7.199,2,14.3,5.2,21.3,9.6c7.1,4.5,13.6,9.9,19.7,16.4
						c7.899,8.5,14.399,18,19.6,28.5c3.8,7.7,6.4,15.6,8.1,23.5c1.7,8.3,2.2,16.3,1.5,24c-0.8,7.5-2.6,14.3-5.6,20.3
						C282.29,136.596,279.089,140.896,275.089,144.497z"/>
				</g>
			</g>
			<g>
				<g>
					<path fill="#FFFFFF" d="M258.29,141.396c5.2-1.6,9.8-4.3,13.7-8c2.899-2.8,5.399-6,7.3-9.8c1.8-3.5,3.3-7.4,4.1-11.5
						c1.5-6.3,1.7-13.1,1-20.2c-0.8-6.4-2.3-12.7-4.6-19c-2.2-6-5-11.9-8.5-17.6c-5.3-8.7-11.8-16.3-19.3-22.9
						c-6.601-5.7-13.601-10-20.8-13.2c-7.9-3.3-15.4-4.9-22.601-4.8c-3.899,0.1-7.5,0.6-11,1.7c-3.7,1.1-7,2.7-10,4.8
						c-3.2,2.1-5.899,4.8-8.3,8c-2.3,3.1-4.1,6.5-5.5,10.3c-2,5.2-3,11.2-3.1,17.7c-0.2,6,0.5,12.2,2.1,18.5
						c1.8,7.6,4.6,15,8.5,22.1c3.7,6.9,8.3,13.4,13.5,19.4c6.1,6.7,12.8,12.3,20.1,16.7c7.301,4.4,14.5,7.4,21.9,8.8
						C244.589,143.896,251.79,143.497,258.29,141.396z M272.29,86.896c0.5,5.7-0.1,10.9-1.7,15.6c-1.3,4.4-3.5,8.1-6.5,11.1
						c-1.7,1.8-3.7,3.3-6,4.4c-2.2,1.1-4.5,2-6.899,2.4c-3.101,0.6-6.301,0.6-9.601,0.2c-3-0.3-6.2-1.1-9.3-2.3
						c-7.6-2.8-14.6-7.7-21.1-14.3c-3.4-3.6-6.4-7.5-9-11.6c-2.7-4.2-4.9-8.7-6.5-13.2c-3.101-8.5-4.101-16.5-3.301-24
						c0.4-3.3,1.2-6.3,2.301-9.2c1.3-3,2.899-5.7,5-8c1.6-1.8,3.5-3.3,5.6-4.6c2.1-1.2,4.4-2.2,6.7-2.7c2.899-0.7,6.1-1,9.3-0.7
						c3,0.2,6,0.8,9.1,1.9c6.7,2.1,13,5.9,19.101,11.3c3.8,3.3,7.2,7,10.2,11.2c3.1,4.1,5.5,8.5,7.699,13.1
						C270.089,73.997,271.79,80.497,272.29,86.896z"/>
				</g>
			</g>
			<g>
				<g>
					<path fill="#FFFFFF" d="M258.79,105.296c1.3-1.2,2.4-2.6,3.3-4.2c1.5-2.2,2.5-4.8,3.2-7.6c0.6-2.6,0.8-5.4,0.6-8.3
						c-0.1-4.7-1-9.3-2.8-14c-1.6-4.5-3.8-8.7-6.7-12.8c-2.6-3.8-5.6-7.2-9-10.1c-3.6-3.1-7.3-5.6-11.3-7.5
						c-2.899-1.3-5.7-2.2-8.5-2.6c-3.1-0.5-6-0.5-8.8,0c-1.9,0.3-3.6,1-5.3,1.7c-1.7,1-3.2,2-4.601,3.3c-2.6,2.5-4.6,5.7-5.699,9.5
						c-1.101,3.8-1.5,8-1.101,12.5c0.601,7.2,3,14.3,7.101,21.2c2.5,4.2,5.5,8,8.699,11.3c3.5,3.5,7.4,6.4,11.5,8.5
						c2.9,1.7,5.801,2.8,8.7,3.4c3.2,0.9,6.3,1,9.3,0.8c2.101-0.3,4.2-0.8,6.101-1.7C255.49,107.896,257.29,106.696,258.79,105.296z
						 M233.49,88.696c-3.8-2.3-7.101-5.5-9.601-9.5s-3.8-8.2-4-12.3c-0.1-3.2,0.5-6,2-8.4c0.7-1,1.601-2,2.7-2.6
						c1-0.8,2.101-1.3,3.3-1.5c2.801-0.7,5.801-0.4,9,1.1c2,0.9,4,2.2,5.801,3.7c1.699,1.5,3.3,3.2,4.699,5.2
						c2.5,3.6,4.101,7.3,4.7,11.3c0.4,2.2,0.3,4.4,0,6.3c-0.5,2.4-1.399,4.2-2.8,5.7c-0.9,1-1.9,1.8-3,2.3c-1.2,0.5-2.5,0.9-3.8,1
						C239.589,91.096,236.69,90.396,233.49,88.696z"/>
				</g>
			</g>
		</g>
		<g>
			<g>
				<g>
					<path fill="#E11376" d="M264.089,151.597c4.2-1.9,7.8-4.2,11-7.1c4-3.6,7.2-7.9,9.7-13c3-6,4.8-12.8,5.6-20.3
						c0.7-7.7,0.2-15.7-1.5-24c-1.699-7.9-4.3-15.8-8.1-23.5c-5.2-10.5-11.7-20-19.6-28.5c-6.101-6.5-12.601-11.9-19.7-16.4
						c-7-4.4-14.101-7.6-21.3-9.6c-7.801-2.3-15.301-2.9-22.301-2c-3.699,0.4-7.3,1.3-10.8,2.6c-3.5,1.4-6.8,3.2-9.7,5.4
						c-3.1,2.2-5.699,5-8.1,8.1c-2.4,3-4.3,6.4-5.8,9.9c-2.2,4.9-3.6,10.2-4.2,16c-0.8,6.6-0.6,13.6,0.5,21
						c1.1,7.2,3.1,14.3,5.9,21.3c2.699,6.9,6.1,13.5,10.199,19.7c4.2,6.3,8.7,11.9,13.801,17.2c5.1,5.3,10.8,10.1,16.699,14
						c7.301,4.7,14.5,8.2,21.9,10.3c8,2.4,15.6,3.2,23,2.3C255.69,154.496,259.889,153.396,264.089,151.597z M271.99,133.396
						c-3.9,3.7-8.5,6.4-13.7,8c-6.5,2.1-13.7,2.5-21.5,1c-7.4-1.4-14.6-4.4-21.9-8.8c-7.3-4.4-14-10-20.1-16.7
						c-5.2-6-9.8-12.5-13.5-19.4c-3.9-7.1-6.7-14.5-8.5-22.1c-1.6-6.3-2.3-12.5-2.1-18.5c0.1-6.5,1.1-12.5,3.1-17.7
						c1.4-3.8,3.2-7.2,5.5-10.3c2.4-3.2,5.1-5.9,8.3-8c3-2.1,6.3-3.7,10-4.8c3.5-1.1,7.101-1.6,11-1.7c7.2-0.1,14.7,1.5,22.601,4.8
						c7.199,3.2,14.199,7.5,20.8,13.2c7.5,6.6,14,14.2,19.3,22.9c3.5,5.7,6.3,11.6,8.5,17.6c2.3,6.3,3.8,12.6,4.6,19
						c0.7,7.1,0.5,13.9-1,20.2c-0.8,4.1-2.3,8-4.1,11.5C277.389,127.396,274.889,130.596,271.99,133.396z"/>
				</g>
			</g>
			<g>
				<g>
					<path fill="#E11376" d="M264.089,113.596c3-3,5.2-6.7,6.5-11.1c1.601-4.7,2.2-9.9,1.7-15.6c-0.5-6.4-2.2-12.9-4.9-19.4
						c-2.199-4.6-4.6-9-7.699-13.1c-3-4.2-6.4-7.9-10.2-11.2c-6.101-5.4-12.4-9.2-19.101-11.3c-3.1-1.1-6.1-1.7-9.1-1.9
						c-3.2-0.3-6.4,0-9.3,0.7c-2.3,0.5-4.601,1.5-6.7,2.7c-2.1,1.3-4,2.8-5.6,4.6c-2.101,2.3-3.7,5-5,8
						c-1.101,2.9-1.9,5.9-2.301,9.2c-0.8,7.5,0.2,15.5,3.301,24c1.6,4.5,3.8,9,6.5,13.2c2.6,4.1,5.6,8,9,11.6
						c6.5,6.6,13.5,11.5,21.1,14.3c3.1,1.2,6.3,2,9.3,2.3c3.3,0.4,6.5,0.4,9.601-0.2c2.399-0.4,4.699-1.3,6.899-2.4
						C260.389,116.896,262.389,115.396,264.089,113.596z M265.29,93.497c-0.7,2.8-1.7,5.4-3.2,7.6c-0.899,1.6-2,3-3.3,4.2
						c-1.5,1.4-3.3,2.6-5.3,3.4c-1.9,0.9-4,1.4-6.101,1.7c-3,0.2-6.1,0.1-9.3-0.8c-2.899-0.6-5.8-1.7-8.7-3.4c-4.1-2.1-8-5-11.5-8.5
						c-3.199-3.3-6.199-7.1-8.699-11.3c-4.101-6.9-6.5-14-7.101-21.2c-0.399-4.5,0-8.7,1.101-12.5c1.1-3.8,3.1-7,5.699-9.5
						c1.4-1.3,2.9-2.3,4.601-3.3c1.7-0.7,3.399-1.4,5.3-1.7c2.8-0.5,5.7-0.5,8.8,0c2.8,0.4,5.601,1.3,8.5,2.6
						c4,1.9,7.7,4.4,11.3,7.5c3.4,2.9,6.4,6.3,9,10.1c2.9,4.1,5.101,8.3,6.7,12.8c1.8,4.7,2.7,9.3,2.8,14
						C266.089,88.096,265.889,90.896,265.29,93.497z"/>
				</g>
			</g>
			<g>
				<path fill="#E11376" d="M223.889,79.196c2.5,4,5.801,7.2,9.601,9.5c3.2,1.7,6.1,2.4,9,2.3c1.3-0.1,2.6-0.5,3.8-1
					c1.1-0.5,2.1-1.3,3-2.3c1.4-1.5,2.3-3.3,2.8-5.7c0.3-1.9,0.4-4.1,0-6.3c-0.6-4-2.2-7.7-4.7-11.3c-1.399-2-3-3.7-4.699-5.2
					c-1.801-1.5-3.801-2.8-5.801-3.7c-3.199-1.5-6.199-1.8-9-1.1c-1.199,0.2-2.3,0.7-3.3,1.5c-1.1,0.6-2,1.6-2.7,2.6
					c-1.5,2.4-2.1,5.2-2,8.4C220.089,70.997,221.389,75.196,223.889,79.196z"/>
			</g>
		</g>
		<g>
			<g>
				<path fill="#7C7C7C" d="M141.69,111.096c2.3,6.1,5.2,12.1,8.9,17.7c3.6,5.6,7.7,10.7,12.5,15.4c5.4,5.6,11.299,10.2,17.7,14
					c6.9,3.9,13.9,6.8,21,8.4c7.2,1.699,14.3,2.1,21.3,1.3l14.8-1.9c4-0.5,7-0.899,8.9-1.2c-0.4,0-0.7-0.1-1-0.1
					c-7,0.2-14.2-1-21.5-3.2c-7.6-2.5-15.1-6.1-22.5-11c-7.3-4.8-14-10.5-20.2-17c-6.1-6.5-11.399-13.5-16-21.2
					c-7-11.8-11.8-23.9-14.3-36.5c-2-9.8-2.4-19.1-1.2-28c0.6-4.9,1.7-9.6,3.3-13.9c0.2-0.4,0.4-1,0.7-1.9c0.3-0.8,0.6-1.4,0.7-1.8
					c-0.1,0.1-0.4,0.4-0.5,0.7c-0.1,0.2-0.2,0.5-0.4,0.8l-7.4,13.7c-0.7,1.3-1.7,3.2-3.1,5.8c-1.1,2.2-2.1,4.2-2.7,6
					c-3.3,7.9-4.8,16.6-4.5,26C136.29,92.497,138.19,101.696,141.69,111.096z"/>
			</g>
		</g>
	</g>
	<g>
		<g>
			<g>
				<g>
					<path fill="#FFFFFF" d="M140.29,17.196c-1-2.6-2.6-5-4.5-7.2c-2-2.1-4.1-3.8-6.6-5.3c-3-1.8-6.5-3-10.4-3.8
						c-4-0.9-8.2-1.1-12.8-0.7c-4.5,0.5-9,1.4-13.5,3c-4.3,1.4-8.6,3.2-12.7,5.7c-4.601,2.7-8.9,5.8-12.7,9.5
						c-4,3.7-7.4,7.8-10.2,12.1c-2.6,4.1-4.5,8.2-5.9,12.4c-1.3,4.1-1.9,8.3-1.8,12.1c0.101,3.8,0.7,7.2,2,10.4c0.8,2,1.8,3.8,3,5.5
						c1.2,1.8,2.7,3.3,4.2,4.7c1,0.8,2.2,1.6,3.5,2.5c1.1,0.6,2.3,1.3,3.8,2.1c0.3,0.1,0.601,0.2,1,0.3c0.601,0.3,0.9,0.4,1.101,0.4
						c2.5,1,5.2,1.6,8,2c5,0.6,10.4,0.4,16-0.7c7.2-1.5,14.1-4.2,20.9-8.2c4.3-2.6,8.4-5.7,12.1-9.1c3.8-3.5,7-7.4,9.7-11.6
						c2.8-4.2,4.9-8.5,6.3-12.9c1.3-4.2,1.9-8.3,1.9-12.2c-0.1-0.3,0-0.5,0-0.7c-0.1-1.6-0.3-2.8-0.5-4
						C141.79,21.296,141.19,19.196,140.29,17.196z M131.09,11.396c1.7,1.8,3,3.9,4.1,6.3c1,2.3,1.6,4.7,1.9,7.3
						c0.5,4.2,0.1,8.5-1.3,13.2c-1.2,4.2-3.2,8.3-6,12.4c-2.2,3.4-4.9,6.6-8,9.6c-2.9,2.9-6.1,5.5-9.7,7.8
						c-3.6,2.4-7.4,4.4-11.3,5.9c-4,1.6-8.1,2.8-12.2,3.4c-4.3,0.7-8.3,0.7-12,0.3c-3.3-0.4-6.3-1.2-9.1-2.4c-2.2-0.8-4-2-5.7-3.3
						c-1.8-1.4-3.4-2.9-4.7-4.7c-1.2-1.7-2.2-3.5-3.1-5.5c-0.7-2-1.2-4-1.5-6.2c-0.5-4.1,0-8.3,1.1-12.8c1.2-4,3-8.2,5.6-12.2
						c2.601-4,5.7-7.7,9.3-11.1c5-4.7,10.3-8.4,16.3-11.3c4.5-2.1,9-3.7,13.5-4.6c4.8-1,9.4-1.3,13.8-0.9c4.3,0.4,8.2,1.5,11.6,3.3
						C126.59,7.296,128.99,9.096,131.09,11.396z"/>
				</g>
			</g>
			<g>
				<g>
					<path fill="#FFFFFF" d="M129.29,20.997c-0.9-3-2.5-5.6-4.5-7.8c-1.6-1.7-3.5-3.1-5.6-4.3c-2-1-4.3-1.8-6.6-2.3
						c-3.6-0.8-7.5-1-11.6-0.5c-3.7,0.4-7.2,1.3-10.9,2.6c-3.4,1.2-6.8,2.8-10.1,4.8c-4.9,3.1-9.2,6.8-13,11.1
						c-3.2,3.8-5.8,7.8-7.5,11.9c-2,4.4-2.9,8.8-2.9,12.9c0.1,2.2,0.4,4.3,1,6.3c0.7,2.1,1.6,4,2.8,5.7c1.2,1.8,2.7,3.3,4.6,4.8
						c1.8,1.2,3.7,2.3,5.8,3.1c3,1.1,6.5,1.7,10.2,1.8c3.4,0.1,7-0.4,10.5-1.2c4.4-1,8.6-2.7,12.7-4.9c4-2.1,7.6-4.7,11.1-7.8
						c3.8-3.4,7-7.3,9.5-11.4c2.6-4.1,4.3-8.4,5-12.5C130.69,28.896,130.49,24.696,129.29,20.997z M98.19,12.896
						c3.2-0.2,6.1,0.1,8.9,1c2.5,0.8,4.6,2,6.4,3.8c1,1,1.8,2.1,2.5,3.4c0.6,1.3,1.1,2.6,1.3,4c0.4,1.7,0.4,3.5,0.2,5.4
						c-0.3,1.8-0.7,3.5-1.4,5.4c-1.6,4.3-4.3,8.3-8.2,12c-2.1,2-4.2,3.7-6.6,5.2c-2.5,1.5-5,2.8-7.6,3.7c-4.8,1.7-9.4,2.4-13.7,1.9
						c-1.8-0.3-3.6-0.7-5.2-1.3c-1.8-0.7-3.3-1.7-4.601-2.9c-1-0.9-1.899-2-2.7-3.3c-0.7-1.2-1.2-2.4-1.5-3.8
						c-0.4-1.7-0.5-3.4-0.4-5.3c0.2-1.7,0.4-3.4,1-5.2c1.3-3.8,3.5-7.4,6.6-10.9c1.8-2.1,4-4.1,6.3-5.8c2.4-1.8,5-3.2,7.6-4.3
						C90.79,14.196,94.49,13.196,98.19,12.896z"/>
				</g>
			</g>
			<g>
				<g>
					<path fill="#FFFFFF" d="M108.69,20.696c-0.7-0.8-1.5-1.4-2.4-1.9c-1.3-0.9-2.7-1.4-4.4-1.8c-1.5-0.3-3.1-0.5-4.7-0.5
						c-2.7,0.2-5.4,0.7-8,1.7c-2.5,1-4.9,2.2-7.4,3.8c-2.101,1.5-4.101,3.2-5.8,5.2s-3.2,4.2-4.2,6.5c-0.8,1.6-1.3,3.2-1.5,4.8
						c-0.3,1.8-0.3,3.5,0,5.1c0.2,1.1,0.5,2.1,1,3c0.5,1,1.1,1.8,1.8,2.6c1.4,1.5,3.3,2.6,5.5,3.3c2.2,0.7,4.6,0.9,7.2,0.7
						c4-0.5,8.1-1.8,12-4.2c2.5-1.4,4.7-3.1,6.5-5c2-2,3.7-4.1,4.9-6.5c0.9-1.6,1.6-3.3,2-5c0.4-1.8,0.6-3.6,0.4-5.3
						c-0.1-1.2-0.5-2.4-0.9-3.5C110.19,22.497,109.49,21.497,108.69,20.696z M99.19,35.196c-1.3,2.1-3.2,4-5.5,5.5
						c-2.3,1.3-4.7,2.1-6.9,2.2c-2,0.1-3.5-0.2-5-1.1c-0.5-0.4-1-0.9-1.5-1.6c-0.3-0.5-0.601-1.2-0.8-1.8c-0.3-1.6-0.2-3.4,0.7-5.2
						c0.5-1.2,1.3-2.3,2.1-3.3c0.9-1,1.9-1.9,3-2.7c2-1.4,4.2-2.3,6.4-2.7c1.3-0.2,2.6-0.2,3.6,0c1.4,0.3,2.5,0.9,3.4,1.6
						c0.5,0.5,0.9,1.1,1.2,1.8c0.3,0.6,0.5,1.3,0.6,2.1C100.59,31.696,100.09,33.396,99.19,35.196z"/>
				</g>
			</g>
		</g>
		<g>
			<g>
				<g>
					<path fill="#E11376" d="M135.19,17.696c-1.1-2.4-2.4-4.5-4.1-6.3c-2.1-2.3-4.5-4.1-7.4-5.5c-3.4-1.8-7.3-2.9-11.6-3.3
						c-4.4-0.4-9-0.1-13.8,0.9c-4.5,0.9-9,2.5-13.5,4.6c-6,2.9-11.3,6.6-16.3,11.3c-3.6,3.4-6.7,7.1-9.3,11.1
						c-2.6,4-4.399,8.2-5.6,12.2c-1.1,4.5-1.6,8.7-1.1,12.8c0.3,2.2,0.8,4.2,1.5,6.2c0.9,2,1.9,3.8,3.1,5.5c1.3,1.8,2.9,3.3,4.7,4.7
						c1.7,1.3,3.5,2.5,5.7,3.3c2.8,1.2,5.8,2,9.1,2.4c3.7,0.4,7.7,0.4,12-0.3c4.1-0.6,8.2-1.8,12.2-3.4c3.9-1.5,7.7-3.5,11.3-5.9
						c3.6-2.3,6.8-4.9,9.7-7.8c3.1-3,5.8-6.2,8-9.6c2.8-4.1,4.8-8.2,6-12.4c1.4-4.7,1.8-9,1.3-13.2
						C136.79,22.396,136.19,19.997,135.19,17.696z M124.79,13.196c2,2.2,3.6,4.8,4.5,7.8c1.2,3.7,1.4,7.9,0.5,12.3
						c-0.7,4.1-2.4,8.4-5,12.5c-2.5,4.1-5.7,8-9.5,11.4c-3.5,3.1-7.1,5.7-11.1,7.8c-4.1,2.2-8.3,3.9-12.7,4.9
						c-3.5,0.8-7.1,1.3-10.5,1.2c-3.7-0.1-7.2-0.7-10.2-1.8c-2.101-0.8-4-1.9-5.8-3.1c-1.9-1.5-3.4-3-4.6-4.8
						c-1.2-1.7-2.1-3.6-2.8-5.7c-0.6-2-0.9-4.1-1-6.3c0-4.1,0.9-8.5,2.9-12.9c1.7-4.1,4.3-8.1,7.5-11.9c3.8-4.3,8.1-8,13-11.1
						c3.3-2,6.7-3.6,10.1-4.8c3.7-1.3,7.2-2.2,10.9-2.6c4.1-0.5,8-0.3,11.6,0.5c2.3,0.5,4.6,1.3,6.6,2.3
						C121.29,10.096,123.19,11.497,124.79,13.196z"/>
				</g>
			</g>
			<g>
				<g>
					<path fill="#E11376" d="M113.49,17.696c-1.8-1.8-3.9-3-6.4-3.8c-2.8-0.9-5.7-1.2-8.9-1c-3.7,0.3-7.4,1.3-11.1,3
						c-2.6,1.1-5.2,2.5-7.6,4.3c-2.3,1.7-4.5,3.7-6.3,5.8c-3.1,3.5-5.3,7.1-6.6,10.9c-0.6,1.8-0.8,3.5-1,5.2c-0.1,1.9,0,3.6,0.4,5.3
						c0.3,1.4,0.8,2.6,1.5,3.8c0.8,1.3,1.7,2.4,2.7,3.3c1.3,1.2,2.8,2.2,4.601,2.9c1.6,0.6,3.399,1,5.2,1.3
						c4.3,0.5,8.9-0.2,13.7-1.9c2.6-0.9,5.1-2.2,7.6-3.7c2.4-1.5,4.5-3.2,6.6-5.2c3.9-3.7,6.6-7.7,8.2-12c0.7-1.9,1.1-3.6,1.4-5.4
						c0.2-1.9,0.2-3.7-0.2-5.4c-0.2-1.4-0.7-2.7-1.3-4C115.29,19.796,114.49,18.696,113.49,17.696z M101.89,16.997
						c1.7,0.4,3.1,0.9,4.4,1.8c0.9,0.5,1.7,1.1,2.4,1.9c0.8,0.8,1.5,1.8,2,3c0.4,1.1,0.8,2.3,0.9,3.5c0.2,1.7,0,3.5-0.4,5.3
						c-0.4,1.7-1.1,3.4-2,5c-1.2,2.4-2.9,4.5-4.9,6.5c-1.8,1.9-4,3.6-6.5,5c-3.9,2.4-8,3.7-12,4.2c-2.6,0.2-5,0-7.2-0.7
						c-2.2-0.7-4.1-1.8-5.5-3.3c-0.7-0.8-1.3-1.6-1.8-2.6c-0.5-0.9-0.8-1.9-1-3c-0.3-1.6-0.3-3.3,0-5.1c0.2-1.6,0.7-3.2,1.5-4.8
						c1-2.3,2.5-4.5,4.2-6.5s3.7-3.7,5.8-5.2c2.5-1.6,4.9-2.8,7.4-3.8c2.6-1,5.3-1.5,8-1.7
						C98.79,16.497,100.39,16.696,101.89,16.997z"/>
				</g>
			</g>
			<g>
				<path fill="#E11376" d="M93.69,40.696c2.3-1.5,4.2-3.4,5.5-5.5c0.9-1.8,1.4-3.5,1.3-5.2c-0.1-0.8-0.3-1.5-0.6-2.1
					c-0.3-0.7-0.7-1.3-1.2-1.8c-0.9-0.7-2-1.3-3.4-1.6c-1-0.2-2.3-0.2-3.6,0c-2.2,0.4-4.4,1.3-6.4,2.7c-1.1,0.8-2.1,1.7-3,2.7
					c-0.8,1-1.6,2.1-2.1,3.3c-0.899,1.8-1,3.6-0.7,5.2c0.2,0.6,0.5,1.3,0.8,1.8c0.5,0.7,1,1.2,1.5,1.6c1.5,0.9,3,1.2,5,1.1
					C88.99,42.796,91.39,41.997,93.69,40.696z"/>
			</g>
		</g>
		<g>
			<g>
				<path fill="#7C7C7C" d="M111.99,87.696c3.6-1.3,6.9-3,10.1-5.1c3.2-2.1,6.2-4.4,8.8-7.1c3.2-3.2,5.9-6.6,8-10.3
					c2.3-3.8,3.9-7.8,4.9-12c0.9-4,1.1-8.1,0.6-12l-1.1-8.5c-0.2-2.3-0.4-4-0.6-5.2c0,0.2-0.1,0.4,0,0.7c0,3.9-0.6,8-1.9,12.2
					c-1.4,4.4-3.5,8.7-6.3,12.9c-2.7,4.2-5.9,8.1-9.7,11.6c-3.7,3.4-7.8,6.5-12.1,9.1c-6.8,4-13.7,6.7-20.9,8.2
					c-5.6,1.1-11,1.3-16,0.7c-2.8-0.4-5.5-1-8-2c-0.2,0-0.5-0.1-1.101-0.4c-0.399-0.1-0.7-0.2-1-0.3c0.101,0,0.2,0.2,0.4,0.2
					c0.1,0.1,0.2,0.1,0.4,0.3l7.9,4.2c0.8,0.4,1.9,1,3.3,1.8c1.3,0.7,2.5,1.2,3.4,1.5c4.6,1.9,9.5,2.8,14.9,2.7
					C101.29,90.696,106.69,89.696,111.99,87.696z"/>
			</g>
		</g>
	</g>
	<g>
		<g>
			<g>
				<g>
					<path fill="#FFFFFF" d="M168.29,330.196c4,3,8.4,5.3,13.3,6.9c4.7,1.5,9.601,2.3,14.601,2.3c6.199,0.1,12.5-1,19-3.2
						c6.8-2.3,13.5-5.7,20.1-10.3c6.5-4.5,12.5-9.9,18-16.2c5.2-5.9,9.8-12.4,14-19.7c4.6-8.2,8.3-16.7,11-25.5
						c2.8-9.1,4.4-18.2,4.8-27.399c0.4-8.4-0.2-16.301-1.8-23.7c-1.8-7.601-4.4-14.3-7.9-20.2c-3.399-5.6-7.5-10.2-12.199-13.8
						c-2.801-2.4-5.9-4.3-9.4-5.8c-3.4-1.5-6.8-2.601-10.4-3.301c-2.3-0.399-4.8-0.699-7.5-0.8c-2.1-0.1-4.699,0-7.6,0.101
						c-0.4,0.199-1,0.3-1.9,0.399c-0.899,0.101-1.6,0.2-1.899,0.3c-4.601,0.801-9.2,2.2-13.8,4.101c-8.2,3.399-16,8.5-23.601,15
						c-9.7,8.6-17.8,18.7-24.399,30.7c-4.4,7.8-7.9,15.899-10.4,24.399c-2.6,8.601-4.2,17.3-4.7,26c-0.5,8.8,0.1,17.2,1.8,24.9
						c1.7,7.6,4.3,14.399,7.9,20.3c0.1,0.3,0.3,0.7,0.5,1c1.5,2.2,3,4.1,4.2,5.6C162.59,325.396,165.29,327.996,168.29,330.196z
						 M187.589,330.996c-4.3-1.3-8.1-3.3-11.8-6c-3.5-2.6-6.7-5.8-9.4-9.3c-4.299-5.9-7.5-12.9-9.5-21c-1.7-7.5-2.4-15.6-1.8-24.2
						c0.4-7.2,1.7-14.3,3.7-21.5c1.9-7,4.6-13.899,7.9-20.5c3.5-6.7,7.399-13,12-18.7c4.6-5.899,9.899-11.3,15.5-15.8
						c5.8-4.7,11.8-8.3,18-11c5.3-2.2,10.6-3.6,15.8-4.3c3.899-0.5,7.8-0.4,11.6,0c3.8,0.6,7.601,1.5,11,3c3.4,1.5,6.5,3.4,9.5,5.8
						c2.9,2.3,5.5,5,7.7,8c4.3,5.601,7.5,12.5,9.5,20.3c1.8,7.2,2.6,15,2.3,23.301c-0.399,8.399-1.8,16.699-4.3,25.199
						c-3.4,11.101-8.4,21.5-14.9,31.2c-5,7.2-10.399,13.4-16.399,18.7c-6.3,5.7-12.9,10.2-20.101,13.4c-6.8,3.1-13.6,4.899-20.3,5.3
						C197.889,333.196,192.69,332.597,187.589,330.996z"/>
				</g>
			</g>
			<g>
				<g>
					<path fill="#FFFFFF" d="M181.79,314.896c4,3.7,8.6,6.3,13.8,7.899c3.8,1.101,7.8,1.601,12.101,1.4c4-0.2,8-0.8,12-2.1
						c6.199-2,12.199-5.101,18-9.4c5.1-3.8,9.899-8.3,14.1-13.4c4.2-4.899,7.8-10.3,11.1-16.199c4.7-8.9,8.2-18.301,10.101-28.101
						c1.6-8.5,1.899-16.8,1.1-24.8c-1.1-8.3-3.5-15.6-7.2-21.9c-2-3.3-4.3-6.1-7-8.699c-2.8-2.601-5.8-4.601-9.1-6.2
						c-3.5-1.601-7.1-2.7-11.1-3.101c-3.801-0.399-7.7-0.3-11.5,0.301c-5.7,1-11.4,3-17,6.1c-5.4,2.9-10.301,6.7-15.101,11.2
						c-5.6,5.3-10.5,11.399-14.8,18.399c-4.1,6.7-7.5,13.801-10,21.4c-2.7,8.6-4.3,17.2-4.5,25.8c-0.2,8.4,1,16.3,3.4,23.3
						C172.79,304.196,176.69,310.296,181.79,314.896z M235.99,299.796c-4.7,3.2-9.5,5.4-14.3,6.4c-4.5,1-8.9,1-12.9-0.2
						c-2.5-0.6-4.7-1.6-6.9-2.899c-2-1.301-3.899-2.9-5.6-4.801c-2-2.399-3.6-5.1-4.9-8.199c-1.199-2.9-2.1-5.9-2.6-9.2
						c-1.3-8-0.7-16.5,1.9-25.5c1.3-4.8,3.1-9.3,5.5-13.7c2.3-4.4,5.1-8.5,8.1-12.2c5.8-6.8,12.2-11.7,19.2-14.8
						c3.1-1.3,6.1-2.2,9.1-2.6c3.2-0.4,6.4-0.2,9.4,0.399c2.399,0.5,4.6,1.3,6.8,2.5c2.1,1.2,4,2.7,5.8,4.5
						c2,2.101,3.7,4.7,5.2,7.601c1.3,2.699,2.3,5.699,2.9,8.899c1.5,6.9,1.399,14.3-0.301,22.2c-0.899,4.9-2.5,9.8-4.5,14.4
						c-2.1,4.699-4.699,9.1-7.699,13.199C245.99,291.496,241.29,296.196,235.99,299.796z"/>
				</g>
			</g>
			<g>
				<g>
					<path fill="#FFFFFF" d="M213.29,297.296c1.6,0.5,3.4,0.801,5.3,0.9c2.7,0,5.3-0.4,8.101-1.2c2.6-0.8,5.1-2,7.6-3.6
						c4-2.4,7.5-5.601,10.7-9.5c3-3.5,5.6-7.601,7.7-12c2-4.3,3.399-8.601,4.3-12.9c0.899-4.7,1.1-9.2,0.8-13.7
						c-0.3-3.1-0.9-5.899-2-8.6c-1.1-2.9-2.5-5.5-4.4-7.6c-1.199-1.5-2.6-2.7-4.199-3.7c-1.601-1.101-3.301-1.9-5-2.4
						c-3.5-1-7.301-1-11.2-0.2c-3.8,1-7.7,2.7-11.4,5.301c-5.899,4.1-10.8,9.699-14.8,16.8c-2.4,4.3-4.1,8.7-5.4,13.2
						c-1.199,4.8-1.8,9.6-1.6,14.199c0,3.301,0.5,6.4,1.4,9.2c0.899,3.3,2.199,6,4,8.4c1.199,1.8,2.699,3.3,4.5,4.5
						C209.389,295.696,211.29,296.696,213.29,297.296z M215.089,266.996c0-4.399,1.101-8.7,3.4-13c2.2-4.2,5.1-7.399,8.6-9.5
						c2.7-1.899,5.5-2.7,8.3-2.5c1.301,0.101,2.4,0.3,3.601,0.9c1.1,0.6,2.1,1.2,2.899,2.2c2,2,3.2,4.899,3.601,8.399
						c0.2,2.2,0.1,4.5-0.3,6.8c-0.5,2.2-1.101,4.5-2.101,6.7c-1.899,4-4.399,7.2-7.5,9.7c-1.8,1.4-3.7,2.5-5.5,3.1
						c-2.3,0.801-4.3,1-6.399,0.5c-1.301-0.199-2.4-0.699-3.4-1.5c-1.1-0.8-2-1.699-2.7-2.8
						C215.889,273.597,215.19,270.597,215.089,266.996z"/>
				</g>
			</g>
		</g>
		<g>
			<g>
				<g>
					<path fill="#E11376" d="M175.79,324.996c3.7,2.7,7.5,4.7,11.8,6c5.101,1.601,10.3,2.2,16,1.9c6.7-0.4,13.5-2.2,20.3-5.3
						c7.2-3.2,13.801-7.7,20.101-13.4c6-5.3,11.399-11.5,16.399-18.7c6.5-9.7,11.5-20.1,14.9-31.2c2.5-8.5,3.9-16.8,4.3-25.199
						c0.3-8.301-0.5-16.101-2.3-23.301c-2-7.8-5.2-14.699-9.5-20.3c-2.2-3-4.8-5.7-7.7-8c-3-2.399-6.1-4.3-9.5-5.8
						c-3.399-1.5-7.2-2.4-11-3c-3.8-0.4-7.7-0.5-11.6,0c-5.2,0.7-10.5,2.1-15.8,4.3c-6.2,2.7-12.2,6.3-18,11
						c-5.601,4.5-10.9,9.9-15.5,15.8c-4.601,5.7-8.5,12-12,18.7c-3.3,6.601-6,13.5-7.9,20.5c-2,7.2-3.3,14.3-3.7,21.5
						c-0.6,8.601,0.1,16.7,1.8,24.2c2,8.1,5.2,15.1,9.5,21C169.089,319.196,172.29,322.396,175.79,324.996z M195.589,322.796
						c-5.2-1.6-9.8-4.199-13.8-7.899c-5.1-4.601-9-10.7-11.6-18.101c-2.4-7-3.601-14.899-3.4-23.3c0.2-8.6,1.8-17.2,4.5-25.8
						c2.5-7.6,5.9-14.7,10-21.4c4.3-7,9.2-13.1,14.8-18.399c4.8-4.5,9.7-8.3,15.101-11.2c5.6-3.1,11.3-5.1,17-6.1
						c3.8-0.601,7.699-0.7,11.5-0.301c4,0.4,7.6,1.5,11.1,3.101c3.3,1.6,6.3,3.6,9.1,6.2c2.7,2.6,5,5.399,7,8.699
						c3.7,6.301,6.101,13.601,7.2,21.9c0.8,8,0.5,16.3-1.1,24.8c-1.9,9.8-5.4,19.2-10.101,28.101c-3.3,5.899-6.899,11.3-11.1,16.199
						c-4.2,5.101-9,9.601-14.1,13.4c-5.801,4.3-11.801,7.4-18,9.4c-4,1.3-8,1.899-12,2.1
						C203.389,324.396,199.389,323.896,195.589,322.796z"/>
				</g>
			</g>
			<g>
				<g>
					<path fill="#E11376" d="M208.79,305.996c4,1.2,8.4,1.2,12.9,0.2c4.8-1,9.6-3.2,14.3-6.4c5.3-3.6,10-8.3,14.2-14
						c3-4.1,5.6-8.5,7.699-13.199c2-4.601,3.601-9.5,4.5-14.4c1.7-7.9,1.801-15.3,0.301-22.2c-0.601-3.2-1.601-6.2-2.9-8.899
						c-1.5-2.9-3.2-5.5-5.2-7.601c-1.8-1.8-3.7-3.3-5.8-4.5c-2.2-1.2-4.4-2-6.8-2.5c-3-0.6-6.2-0.8-9.4-0.399
						c-3,0.399-6,1.3-9.1,2.6c-7,3.1-13.4,8-19.2,14.8c-3,3.7-5.8,7.8-8.1,12.2c-2.4,4.4-4.2,8.9-5.5,13.7
						c-2.601,9-3.2,17.5-1.9,25.5c0.5,3.3,1.4,6.3,2.6,9.2c1.301,3.1,2.9,5.8,4.9,8.199c1.7,1.9,3.6,3.5,5.6,4.801
						C204.089,304.396,206.29,305.396,208.79,305.996z M226.69,296.996c-2.801,0.8-5.4,1.2-8.101,1.2c-1.899-0.1-3.7-0.4-5.3-0.9
						c-2-0.6-3.9-1.6-5.6-2.899c-1.801-1.2-3.301-2.7-4.5-4.5c-1.801-2.4-3.101-5.101-4-8.4c-0.9-2.8-1.4-5.899-1.4-9.2
						c-0.2-4.6,0.4-9.399,1.6-14.199c1.301-4.5,3-8.9,5.4-13.2c4-7.101,8.9-12.7,14.8-16.8c3.7-2.601,7.601-4.301,11.4-5.301
						c3.899-0.8,7.7-0.8,11.2,0.2c1.699,0.5,3.399,1.3,5,2.4c1.6,1,3,2.2,4.199,3.7c1.9,2.1,3.301,4.699,4.4,7.6
						c1.1,2.7,1.7,5.5,2,8.6c0.3,4.5,0.1,9-0.8,13.7c-0.9,4.3-2.3,8.601-4.3,12.9c-2.101,4.399-4.7,8.5-7.7,12
						c-3.2,3.899-6.7,7.1-10.7,9.5C231.79,294.996,229.29,296.196,226.69,296.996z"/>
				</g>
			</g>
			<g>
				<path fill="#E11376" d="M218.49,253.996c-2.3,4.3-3.4,8.601-3.4,13c0.101,3.601,0.8,6.601,2.5,9c0.7,1.101,1.601,2,2.7,2.8
					c1,0.801,2.1,1.301,3.4,1.5c2.1,0.5,4.1,0.301,6.399-0.5c1.8-0.6,3.7-1.699,5.5-3.1c3.101-2.5,5.601-5.7,7.5-9.7
					c1-2.2,1.601-4.5,2.101-6.7c0.399-2.3,0.5-4.6,0.3-6.8c-0.4-3.5-1.601-6.399-3.601-8.399c-0.8-1-1.8-1.601-2.899-2.2
					c-1.2-0.601-2.3-0.8-3.601-0.9c-2.8-0.2-5.6,0.601-8.3,2.5C223.589,246.597,220.69,249.796,218.49,253.996z"/>
			</g>
		</g>
		<g>
			<g>
				<path fill="#7C7C7C" d="M149.69,198.696c-4.1,5.2-7.8,10.7-10.9,16.6c-3,5.9-5.4,12.2-7.1,18.5c-2,7.5-3.1,15-3.1,22.5
					c-0.1,7.801,1,15.301,3.1,22.4c2.1,7,5.3,13.3,9.6,19l9,11.8c2.4,3.3,4.2,5.7,5.5,7.2c-0.2-0.3-0.4-0.7-0.5-1
					c-3.6-5.9-6.2-12.7-7.9-20.3c-1.7-7.7-2.3-16.101-1.8-24.9c0.5-8.7,2.1-17.399,4.7-26c2.5-8.5,6-16.6,10.4-24.399
					c6.6-12,14.699-22.101,24.399-30.7c7.601-6.5,15.4-11.601,23.601-15c4.6-1.9,9.199-3.3,13.8-4.101c0.3-0.1,1-0.199,1.899-0.3
					c0.9-0.1,1.5-0.2,1.9-0.399c-0.1,0-0.5,0-0.8,0c-0.2,0-0.5,0-0.8,0l-15.601,0.5c-1.5,0.1-3.7,0.1-6.6,0.3
					c-2.601,0.1-4.7,0.2-6.601,0.5c-8.5,1.2-16.699,4.2-24.8,9.1C163.19,184.796,156.09,190.996,149.69,198.696z"/>
			</g>
		</g>
	</g>
</g>
</svg>
