<?xml version="1.0"?>
<svg
    xmlns="http://www.w3.org/2000/svg" version="1.1"
    width="100" height="100" viewBox="0 0 1792 1792">

<path transform="translate(0,1536) scale(1,-1)"
    fill="black"
    d="M1216 576v128q0 26 -19 45t-45 19h-256v256q0 26 -19 45t-45 19h-128q-26 0 -45 -19t-19 -45v-256h-256q-26 0 -45 -19t-19 -45v-128q0 -26 19 -45t45 -19h256v-256q0 -26 19 -45t45 -19h128q26 0 45 19t19 45v256h256q26 0 45 19t19 45zM1536 640q0 -209 -103 -385.5 t-279.5 -279.5t-385.5 -103t-385.5 103t-279.5 279.5t-103 385.5t103 385.5t279.5 279.5t385.5 103t385.5 -103t279.5 -279.5t103 -385.5z"/>

</svg>
