<?xml version="1.0"?>
<svg xmlns="http://www.w3.org/2000/svg" height="138" version="1.1" width="138" viewBox="0 0 138 138" style="overflow: hidden; position: relative;">
  <desc>Created with Rapha&#xEB;l 2.1.0</desc>
  <defs>
    <linearGradient id="351190-_7EDAD2-_6DF889" x1="0" y1="1" x2="6.123233995736766e-17" y2="0" gradientTransform="matrix(1,0,0,1,0,0)">
      <stop offset="0%" stop-color="#7edad2"/>
      <stop offset="100%" stop-color="#6df889"/>
    </linearGradient>
    <linearGradient id="351290-_4C65F6-_466C13" x1="0" y1="1" x2="6.123233995736766e-17" y2="0" gradientTransform="matrix(1,0,0,1,0,0)">
      <stop offset="0%" stop-color="#4c65f6"/>
      <stop offset="100%" stop-color="#466c13"/>
    </linearGradient>
  </defs>
  <rect x="0" y="0" width="138" height="138" r="17" rx="17" ry="17" fill="url(#351190-_7EDAD2-_6DF889)" stroke="none" opacity="1" fill-opacity="1" style="opacity: 1; fill-opacity: 1;"/>
  <path fill="url(#351290-_4C65F6-_466C13)" stroke="none" d="M11.791,25.229C12.818,25.125,12.953,24.038,12.471,23.563C12.073,23.171,9.873000000000001,21.541,9.3,20.898999999999997C9.033,20.6,8.673,20.454,8.52,20.12C8.168,19.349,7.922,18.251,8.369,17.462C8.45,17.318,8.501999999999999,17.384,8.44,17.682C8.088999999999999,19.366,9.186,20.741,9.426,20.035999999999998C9.593,19.549,9.439,18.677999999999997,9.528,17.985C9.686,16.759,10.801,14.408,11.291,14.273C10.536,12.875,12.177,11.779,12.157,10.55C12.143,9.752,12.858,11.532,13.576,11.909C14.378,12.331000000000001,15.26,11.115,16.512,10.499C16.866,10.323,17.321,10.123000000000001,17.288,9.975000000000001C17.142,9.257000000000001,15.644,10.861,14.309000000000001,10.914000000000001C13.699000000000002,10.938,13.472000000000001,10.794000000000002,13.237000000000002,10.567000000000002C12.525000000000002,9.878000000000002,13.310000000000002,10.452000000000002,14.369000000000002,10.260000000000002C14.840000000000002,10.175,14.998000000000001,10.097000000000001,15.497000000000002,9.895000000000001C15.997000000000002,9.694,16.566000000000003,9.395000000000001,17.133000000000003,9.241000000000001C17.528000000000002,9.135000000000002,17.494000000000003,8.839000000000002,17.341,8.750000000000002C17.253,8.699000000000002,17.122,8.704000000000002,17.02,8.883000000000003C16.776,9.302000000000003,15.637,9.544000000000002,15.28,9.654000000000003C14.822999999999999,9.794000000000004,14.318,9.925000000000004,13.645999999999999,9.897000000000004C12.625,9.855000000000004,12.863999999999999,9.388000000000003,12.133,8.969000000000003C11.92,8.847000000000003,11.976999999999999,8.525000000000002,12.261999999999999,8.240000000000004C12.409999999999998,8.092000000000004,12.818999999999999,8.008000000000004,13.021999999999998,7.668000000000004C13.049999999999999,7.621000000000004,13.310999999999998,7.348000000000003,13.515999999999998,7.207000000000003C13.585999999999999,7.158000000000003,13.591999999999999,5.9120000000000035,12.953999999999999,5.887000000000003C12.411,5.866000000000003,12.257,6.285000000000003,12.278999999999998,6.705000000000003C12.300999999999998,7.124000000000002,12.523999999999997,7.470000000000002,12.671999999999999,7.469000000000003C12.956999999999999,7.465000000000003,12.690999999999999,7.780000000000003,12.533999999999999,7.830000000000003C12.296999999999999,7.908000000000003,11.972,6.896000000000003,12.008999999999999,6.412000000000003C12.047999999999998,5.906000000000002,12.312,5.012000000000002,12.950999999999999,5.029000000000003C13.527,5.045000000000003,13.943999999999999,5.766000000000003,13.924,7.012000000000002C13.921,7.2230000000000025,14.859,6.911000000000002,15.171,7.241000000000002C15.395,7.477000000000002,14.404,5.0340000000000025,16.608999999999998,4.866000000000002C17.191,4.977000000000002,17.749,5.171000000000002,17.979999999999997,6.507000000000002C17.894,6.646000000000003,18.125999999999998,7.577000000000003,17.764999999999997,7.689000000000002C17.326999999999998,7.824000000000002,17.057999999999996,7.669000000000002,17.311999999999998,7.251000000000002C17.483999999999998,6.833000000000002,17.316,5.7680000000000025,16.429999999999996,5.831000000000002C15.542999999999996,5.895000000000002,15.660999999999996,7.468000000000002,15.903999999999996,7.499000000000002C16.146999999999995,7.530000000000002,16.757999999999996,7.964000000000002,17.185999999999996,8.048000000000002C18.586999999999996,8.319000000000003,17.556999999999995,9.123000000000001,17.740999999999996,10.096000000000002C17.945999999999994,11.195000000000002,18.669999999999995,10.905000000000001,19.318999999999996,13.813000000000002C19.455999999999996,13.990000000000002,19.994999999999994,14.158000000000003,20.517999999999997,16.392000000000003C20.990999999999996,18.403000000000002,20.322999999999997,19.865000000000002,21.455999999999996,19.745000000000005C21.711999999999996,19.719000000000005,22.084999999999997,19.645000000000003,22.247999999999998,19.077000000000005C22.673,17.588000000000005,22.034999999999997,15.814000000000005,21.392999999999997,14.617000000000004C21.017999999999997,13.919000000000004,20.663999999999998,13.443000000000005,20.476999999999997,13.280000000000005C21.214999999999996,13.716000000000005,22.159999999999997,15.109000000000005,22.374999999999996,16.142000000000003C22.660999999999998,17.500000000000004,22.864999999999995,18.076000000000004,22.433999999999997,19.512000000000004C22.683999999999997,19.637000000000004,23.304999999999996,19.902000000000005,23.304999999999996,20.197000000000003C22.657999999999998,19.667,20.675999999999995,19.572000000000003,20.624999999999996,20.843000000000004C20.286999999999995,20.851000000000003,20.030999999999995,20.877000000000002,19.813999999999997,21.136000000000003C19.016999999999996,22.080000000000002,19.754999999999995,23.978,19.674999999999997,24.995000000000005C19.604999999999997,25.891000000000005,19.356999999999996,26.778000000000006,19.214999999999996,27.678000000000004C18.740999999999996,27.659000000000006,18.786999999999995,27.314000000000004,18.940999999999995,26.826000000000004C19.075999999999997,26.395000000000003,19.291999999999994,25.858000000000004,19.305999999999994,25.342000000000006C19.317999999999994,24.875000000000007,19.266999999999992,24.583000000000006,19.149999999999995,24.511000000000006C19.031999999999996,24.439000000000007,18.846999999999994,24.585000000000008,18.590999999999994,24.996000000000006C18.047999999999995,25.871000000000006,16.868999999999993,26.257000000000005,15.769999999999994,26.393000000000004C14.670999999999994,26.531000000000006,13.646999999999995,26.421000000000003,13.105999999999995,25.815000000000005C12.919999999999995,25.608000000000004,12.613999999999994,25.873000000000005,12.576999999999995,25.926000000000005C12.527999999999995,26.000000000000007,12.756999999999994,26.145000000000007,12.928999999999995,26.459000000000007C13.179999999999994,26.920000000000005,13.418999999999995,27.618000000000006,12.823999999999995,27.938000000000006C12.83,26.314,12.316,26.221,11.791,25.229L11.791,25.229ZM11.398,25.188C11.793,25.808999999999997,13.181,28.419999999999998,10.746,28.759C9.932,28.873,8.621,28.285,7.3500000000000005,27.975C6.208,27.696,5.049,27.531000000000002,4.401000000000001,27.348000000000003C4.010000000000001,27.240000000000002,3.8470000000000004,27.098000000000003,3.8130000000000006,26.934C3.7220000000000004,26.5,4.287000000000001,25.893,4.316000000000001,25.379C4.344,24.865000000000002,4.128000000000001,24.6,3.952000000000001,24.18C3.775000000000001,23.759999999999998,3.7280000000000006,23.445999999999998,3.871000000000001,23.266C3.980000000000001,23.125,4.205000000000001,23.066999999999997,4.569000000000001,23.101999999999997C5.031000000000001,23.148999999999997,5.589,23.052999999999997,5.888000000000001,22.871999999999996C6.393000000000001,22.562999999999995,6.630000000000001,21.932999999999996,6.404000000000001,21.172999999999995C6.404000000000001,21.916999999999994,6.160000000000001,22.197999999999993,5.549000000000001,22.538999999999994C4.972000000000001,22.857999999999993,4.082000000000001,22.600999999999996,3.6740000000000013,22.954999999999995C3.1820000000000013,23.381999999999994,3.849000000000001,24.482999999999993,3.7940000000000014,25.292999999999996C3.7520000000000016,25.914999999999996,3.1040000000000014,26.614999999999995,3.3930000000000016,27.238999999999997C3.6840000000000015,27.865999999999996,5.041000000000001,27.933999999999997,6.457000000000002,28.228999999999996C8.469000000000001,28.650999999999996,9.641000000000002,29.381999999999994,10.570000000000002,29.416999999999994C11.926000000000002,29.466999999999995,12.134000000000002,28.074999999999996,14.263000000000002,28.056999999999995C14.884000000000002,28.023999999999994,15.492,28.004999999999995,16.098000000000003,27.996999999999996C16.786,27.987999999999996,17.473000000000003,27.993999999999996,18.177000000000003,28.010999999999996C19.594000000000005,28.044999999999995,19.108000000000004,28.783999999999995,20.028000000000002,29.256999999999994C20.802000000000003,29.653999999999993,22.198,29.497999999999994,22.532000000000004,29.179999999999993C22.983000000000004,28.74899999999999,24.194000000000003,27.712999999999994,25.124000000000002,27.244999999999994C26.28,26.661999999999995,29.000000000000004,25.656999999999993,27.026000000000003,24.432999999999993C26.565000000000005,24.147999999999993,25.479000000000003,23.84499999999999,25.387000000000004,21.75699999999999C24.975000000000005,22.12299999999999,25.022000000000006,24.068999999999992,26.171000000000003,24.45399999999999C27.454000000000004,24.88499999999999,28.256000000000004,25.60599999999999,25.870000000000005,26.42299999999999C24.290000000000006,26.96299999999999,24.021000000000004,27.12899999999999,22.771000000000004,28.16999999999999C21.504000000000005,29.22399999999999,19.626000000000005,28.80599999999999,19.956000000000003,26.58799999999999C20.127000000000002,25.43299999999999,20.225,24.47799999999999,19.937000000000005,23.47399999999999C19.795000000000005,22.98399999999999,19.726000000000006,22.35499999999999,19.823000000000004,21.91199999999999C20.010000000000005,21.053999999999988,20.474000000000004,20.794999999999987,20.929000000000006,21.61899999999999C21.214000000000006,22.137999999999987,21.314000000000007,22.74099999999999,22.337000000000007,22.78999999999999C23.944000000000006,22.86699999999999,24.263000000000005,21.236999999999988,24.776000000000007,21.16299999999999C25.119000000000007,21.11299999999999,25.462000000000007,20.14299999999999,25.201000000000008,18.57399999999999C24.921000000000006,16.89299999999999,23.93200000000001,14.24199999999999,22.665000000000006,12.896999999999991C21.612000000000005,11.778999999999991,20.948000000000008,10.798999999999992,20.53000000000001,9.399999999999991C20.178000000000008,8.22499999999999,19.983000000000008,7.081999999999992,20.055000000000007,5.9879999999999916C20.149000000000008,4.570999999999992,19.364000000000008,2.5989999999999918,18.112000000000005,1.6719999999999917C17.330000000000005,1.0909999999999918,16.101000000000006,0.7789999999999917,14.990000000000006,0.7919999999999917C14.367000000000006,0.7989999999999917,13.780000000000005,0.8909999999999917,13.329000000000006,1.1349999999999918C11.474000000000006,2.142999999999992,11.216000000000006,3.5799999999999916,11.243000000000006,5.222999999999992C11.268000000000006,6.765999999999992,11.321000000000005,8.525999999999993,11.497000000000005,10.199999999999992C11.289000000000005,10.969999999999992,10.209000000000005,12.426999999999992,9.518000000000004,13.313999999999993C8.59,14.233,8.121,16.01,7.52,17.561C7.199,18.389,6.6579999999999995,18.761,6.611999999999999,19.826C6.6,20.122,6.61,20.891,6.894,20.672C7.98,19.829,9.343,21.95,11.398,25.188L11.398,25.188ZM17.044,2.953C16.984,3.129,16.744,3.274,16.898,3.396C17.05,3.519,17.137999999999998,3.225,17.447,3.1149999999999998C17.526999999999997,3.0869999999999997,17.896,3.127,17.965999999999998,2.9509999999999996C17.996,2.8739999999999997,17.775999999999996,2.7869999999999995,17.644999999999996,2.6599999999999997C17.511999999999997,2.5349999999999997,17.382999999999996,2.4239999999999995,17.258999999999997,2.4309999999999996C16.938,2.451,17.096,2.798,17.044,2.953L17.044,2.953ZM18.934,9.35C19.049,9.229,19.108,9.557,19.417,9.751999999999999C19.661,9.905999999999999,19.898000000000003,9.791999999999998,19.962000000000003,10.105999999999998C20.006000000000004,10.330999999999998,19.865000000000002,10.572999999999999,19.678000000000004,10.541999999999998C19.35,10.486,18.596,9.705,18.934,9.35L18.934,9.35ZM13.832,7.375C13.324000000000002,7.338,13.289000000000001,7.705,13.457,7.699C13.629,7.693,13.523,7.408,13.832,7.375L13.832,7.375ZM12.96,6.436C13.020000000000001,6.423,13.106000000000002,6.526,13.079,6.669C13.042,6.867999999999999,13.058,6.992999999999999,13.196000000000002,6.994C13.218000000000002,6.994,13.244000000000002,6.989,13.252,6.936999999999999C13.318000000000001,6.5409999999999995,13.112,6.249,13.027000000000001,6.225999999999999C12.834,6.178,12.857,6.458,12.96,6.436L12.96,6.436ZM16.663,6.268C16.792,6.3069999999999995,16.916,6.529999999999999,16.943,6.772C16.945,6.793,17.111,6.737,17.113000000000003,6.684C17.124000000000002,6.295,16.792,6.113,16.705000000000002,6.122C16.506,6.139,16.562,6.238,16.663,6.268L16.663,6.268ZM14.765,7.423C15.228,7.209,15.39,7.541,15.23,7.594C15.066,7.648,15.065,7.345,14.765,7.423L14.765,7.423ZM9.178,15.304C8.959000000000001,15.278,9.241000000000001,15.114,9.362,14.907C9.493,14.68,9.467,14.396,9.606,14.438S9.667,14.638,9.573,14.899000000000001C9.491,15.121,9.258,15.313,9.178,15.304L9.178,15.304Z" opacity="1" fill-opacity="1" transform="matrix(3.572,0,0,3.572,13.0784,12.0533)" stroke-width="0.2799552071668533" style="opacity: 1; fill-opacity: 1;"/>
</svg>
