<?xml version="1.0"?>
<svg xmlns="http://www.w3.org/2000/svg" height="138" version="1.1" width="138" viewBox="0 0 138 138" style="overflow: hidden; position: relative;">
  <desc>Created with Rapha&#xEB;l 2.1.0</desc>
  <defs>
    <linearGradient id="63090-_103A0E-_EFB62E" x1="0" y1="1" x2="6.123233995736766e-17" y2="0" gradientTransform="matrix(1,0,0,1,0,0)">
      <stop offset="0%" stop-color="#103a0e"/>
      <stop offset="100%" stop-color="#efb62e"/>
    </linearGradient>
    <linearGradient id="63190-_E29F6C-_98D29F" x1="0" y1="1" x2="6.123233995736766e-17" y2="0" gradientTransform="matrix(1,0,0,1,0,0)">
      <stop offset="0%" stop-color="#e29f6c"/>
      <stop offset="100%" stop-color="#98d29f"/>
    </linearGradient>
  </defs>
  <circle cx="69" cy="69" r="69" fill="url(#63090-_103A0E-_EFB62E)" stroke="none" opacity="1" fill-opacity="1" style="opacity: 1; fill-opacity: 1;"/>
  <path fill="url(#63190-_E29F6C-_98D29F)" stroke="none" d="M17.001,15.5L16.501,7.624C16.501,7.071999999999999,16.053,6.624,15.501000000000001,6.624C14.949000000000002,6.624,14.501000000000001,7.072,14.501000000000001,7.624L14.035000000000002,14.966999999999999L11.031000000000002,16.927C10.553000000000003,17.204,10.389000000000003,17.817,10.666000000000002,18.291999999999998C10.941000000000003,18.770999999999997,11.555000000000001,18.935999999999996,12.031000000000002,18.659L15.336000000000002,16.982C15.39,16.99,15.444,17,15.501,17C16.329,17,17.001,16.329,17.001,15.5ZM18.939,21.455C18.46,21.732,18.295,22.343999999999998,18.573,22.822C18.847,23.299,19.461000000000002,23.465,19.939,23.186999999999998C20.417,22.912,20.581,22.296999999999997,20.304,21.822C20.027,21.344,19.417,21.18,18.939,21.455ZM19.938,7.813C19.461,7.537,18.848,7.702,18.573999999999998,8.179C18.299,8.659,18.462999999999997,9.27,18.939999999999998,9.546C19.416999999999998,9.822,20.028,9.658,20.304999999999996,9.18C20.581,8.702,20.418,8.089,19.938,7.813ZM21.823,20.305C22.3,20.579,22.912,20.416999999999998,23.187,19.94C23.463,19.461000000000002,23.299,18.848000000000003,22.823,18.573C22.343,18.298000000000002,21.73,18.462,21.456,18.938C21.182,19.416,21.344,20.029,21.823,20.305ZM22.822,12.428C23.3,12.153,23.465,11.540000000000001,23.186999999999998,11.062000000000001C22.912999999999997,10.584000000000001,22.296999999999997,10.420000000000002,21.822,10.696000000000002C21.343,10.974000000000002,21.179,11.586000000000002,21.456,12.063000000000002S22.344,12.705,22.822,12.428ZM24.378,15.5C24.378,14.949,23.93,14.5,23.378,14.5C22.824,14.502,22.377,14.95,22.377,15.5C22.378,16.052,22.825,16.5,23.378,16.5C23.93,16.5,24.378,16.053,24.378,15.5ZM9.546,12.062C9.821,11.584,9.657,10.972999999999999,9.18,10.696C8.701,10.42,8.09,10.584,7.814,11.062S7.703,12.152,8.179,12.427999999999999C8.658,12.704,9.269,12.541,9.546,12.062ZM6.624,15.5C6.624,16.053,7.0729999999999995,16.5,7.624,16.5C8.176,16.5,8.623999999999999,16.053,8.625,15.5C8.624,14.948,8.177,14.501,7.6240000000000006,14.5C7.071,14.5,6.624,14.948,6.624,15.5ZM9.179,20.305C9.658,20.03,9.822000000000001,19.416999999999998,9.546,18.938C9.27,18.461,8.658,18.296999999999997,8.178999999999998,18.573C7.700999999999999,18.85,7.536999999999998,19.462,7.813999999999998,19.94C8.089,20.418,8.703,20.58,9.179,20.305ZM12.062,9.545C12.540999999999999,9.269,12.703999999999999,8.657,12.427999999999999,8.179C12.152,7.7010000000000005,11.54,7.537,11.062,7.813000000000001S10.42,8.701,10.696,9.179C10.973,9.658,11.584,9.822,12.062,9.545ZM14.501,23.377C14.501,23.93,14.949,24.377,15.501,24.377C16.053,24.377,16.500999999999998,23.93,16.500999999999998,23.377S16.052999999999997,22.377,15.500999999999998,22.377C14.949,22.377,14.501,22.824,14.501,23.377ZM10.696,21.822C10.421,22.301,10.584999999999999,22.912,11.062,23.186999999999998C11.54,23.462999999999997,12.152999999999999,23.296999999999997,12.427,22.822C12.703999999999999,22.343,12.54,21.732,12.062,21.455C11.584,21.18,10.973,21.344,10.696,21.822ZM28.674,14.087L25.404,12.901C25.695,14.006,25.814,15.175,25.713,16.379C25.221,22.018,20.264000000000003,26.188000000000002,14.622000000000002,25.712000000000003C8.983,25.217000000000002,4.813000000000002,20.262000000000004,5.2890000000000015,14.622000000000003C5.783000000000001,8.981000000000003,10.738000000000001,4.810000000000004,16.378,5.287000000000003C18.806,5.499000000000002,20.945,6.553000000000003,22.572,8.120000000000003L20.935,9.497000000000003L27.965999999999998,12.045000000000003L26.656999999999996,4.681000000000004L24.885999999999996,6.173000000000004C22.752999999999997,4.022000000000004,19.889999999999993,2.5760000000000036,16.635999999999996,2.296000000000004C9.346,1.67,2.926,7.072,2.297,14.364C1.6720000000000002,21.655,7.074,28.074,14.363000000000001,28.703000000000003C21.656000000000002,29.328000000000003,28.076,23.927000000000003,28.705000000000002,16.637C28.779,15.771,28.762,14.919,28.674,14.087Z" opacity="1" fill-opacity="1" transform="matrix(3.2,0,0,3.2,18.9007,18.9013)" stroke-width="0.3125" style="opacity: 1; fill-opacity: 1;"/>
  <path fill="#ffffff" stroke="none" d="M69.014556,-0.00369946C39.251922,-0.00369946,13.880881000000002,18.77861,4.273032499999999,45.0588C4.2730728,45.0691,4.272942,45.0798,4.273032499999999,45.089999999999996C4.375683199999999,56.680589999999995,33.292688999999996,66.09,68.983113,66.09C104.67352,66.09,133.62198,56.68059,133.72462000000002,45.09C133.72162000000003,45.081,133.72762,45.067800000000005,133.72462000000002,45.058800000000005C124.11665,18.77891,98.776981,-0.00369946,69.014556,-0.00369946Z" fill-opacity="0.3" transform="matrix(1,0,0,1,0,0)" style="fill-opacity: 0.3;"/>
</svg>
