<?xml version="1.0"?>
<svg xmlns="http://www.w3.org/2000/svg" height="138" version="1.1" width="138" viewBox="0 0 138 138" style="overflow: hidden; position: relative;">
  <desc>Created with Rapha&#xEB;l 2.1.0</desc>
  <defs>
    <linearGradient id="111690-_63E912-_2A31CE" x1="0" y1="1" x2="6.123233995736766e-17" y2="0" gradientTransform="matrix(1,0,0,1,0,0)">
      <stop offset="0%" stop-color="#63e912"/>
      <stop offset="100%" stop-color="#2a31ce"/>
    </linearGradient>
    <linearGradient id="111790-_ABDEBE-_94AAB0" x1="0" y1="1" x2="6.123233995736766e-17" y2="0" gradientTransform="matrix(1,0,0,1,0,0)">
      <stop offset="0%" stop-color="#abdebe"/>
      <stop offset="100%" stop-color="#94aab0"/>
    </linearGradient>
  </defs>
  <rect x="0" y="0" width="138" height="138" r="17" rx="17" ry="17" fill="url(#111690-_63E912-_2A31CE)" stroke="none" opacity="1" fill-opacity="1" style="opacity: 1; fill-opacity: 1;"/>
  <path fill="#a403a2" stroke="#a403a2" d="M68.9958,95.56299999999999C68.9958,95.56299999999999,35.236599999999996,120.09199999999998,35.236599999999996,120.09199999999998C35.236599999999996,120.09199999999998,48.1414,80.42759999999998,48.1414,80.42759999999998C48.1414,80.42759999999998,14.386000000000003,55.88719999999998,14.386000000000003,55.88719999999998C14.386000000000003,55.88719999999998,56.1062,55.89479999999998,56.1062,55.89479999999998C56.1062,55.89479999999998,69.0034,16.237999999999996,69.0034,16.237999999999996C69.0034,16.237999999999996,81.88919999999999,55.88719999999999,81.88919999999999,55.88719999999999C81.88919999999999,55.88719999999999,123.61699999999999,55.88719999999999,123.61699999999999,55.88719999999999C123.61699999999999,55.88719999999999,89.8502,80.42379999999999,89.8502,80.42379999999999C89.8502,80.42379999999999,102.755,120.09199999999998,102.755,120.09199999999998C102.755,120.09199999999998,68.9958,95.56299999999999,68.9958,95.56299999999999C68.9958,95.56299999999999,68.9958,95.56299999999999,68.9958,95.56299999999999C68.9958,95.56299999999999,68.9958,95.56299999999999,68.9958,95.56299999999999M95.51599999999999,110.1322C95.51599999999999,110.1322,85.3928,78.95319999999998,85.3928,78.95319999999998C85.3928,78.95319999999998,111.91299999999998,59.71759999999998,111.91299999999998,59.71759999999998C111.91299999999998,59.71759999999998,79.13039999999998,59.71759999999998,79.13039999999998,59.71759999999998C79.13039999999998,59.71759999999998,68.9958,28.508199999999995,68.9958,28.508199999999995C68.9958,28.508199999999995,58.864999999999995,59.69099999999999,58.864999999999995,59.69099999999999C58.864999999999995,59.69099999999999,26.086199999999998,59.69099999999999,26.086199999999998,59.69099999999999C26.086199999999998,59.69099999999999,52.6064,78.957,52.6064,78.957C52.6064,78.957,42.4756,110.12839999999998,42.4756,110.12839999999998C42.4756,110.12839999999998,68.9958,90.8928,68.9958,90.8928C68.9958,90.8928,95.51599999999999,110.1322,95.51599999999999,110.1322C95.51599999999999,110.1322,95.51599999999999,110.1322,95.51599999999999,110.1322C95.51599999999999,110.1322,95.51599999999999,110.1322,95.51599999999999,110.1322" stroke-linejoin="round" stroke-linecap="round" stroke-width="2" opacity="0.091" transform="matrix(1,0,0,1,0,0)" style="stroke-linejoin: round; stroke-linecap: round; opacity: 0.091;"/>
  <path fill="#a403a2" stroke="#a403a2" d="M68.9958,95.56299999999999C68.9958,95.56299999999999,35.236599999999996,120.09199999999998,35.236599999999996,120.09199999999998C35.236599999999996,120.09199999999998,48.1414,80.42759999999998,48.1414,80.42759999999998C48.1414,80.42759999999998,14.386000000000003,55.88719999999998,14.386000000000003,55.88719999999998C14.386000000000003,55.88719999999998,56.1062,55.89479999999998,56.1062,55.89479999999998C56.1062,55.89479999999998,69.0034,16.237999999999996,69.0034,16.237999999999996C69.0034,16.237999999999996,81.88919999999999,55.88719999999999,81.88919999999999,55.88719999999999C81.88919999999999,55.88719999999999,123.61699999999999,55.88719999999999,123.61699999999999,55.88719999999999C123.61699999999999,55.88719999999999,89.8502,80.42379999999999,89.8502,80.42379999999999C89.8502,80.42379999999999,102.755,120.09199999999998,102.755,120.09199999999998C102.755,120.09199999999998,68.9958,95.56299999999999,68.9958,95.56299999999999C68.9958,95.56299999999999,68.9958,95.56299999999999,68.9958,95.56299999999999C68.9958,95.56299999999999,68.9958,95.56299999999999,68.9958,95.56299999999999M95.51599999999999,110.1322C95.51599999999999,110.1322,85.3928,78.95319999999998,85.3928,78.95319999999998C85.3928,78.95319999999998,111.91299999999998,59.71759999999998,111.91299999999998,59.71759999999998C111.91299999999998,59.71759999999998,79.13039999999998,59.71759999999998,79.13039999999998,59.71759999999998C79.13039999999998,59.71759999999998,68.9958,28.508199999999995,68.9958,28.508199999999995C68.9958,28.508199999999995,58.864999999999995,59.69099999999999,58.864999999999995,59.69099999999999C58.864999999999995,59.69099999999999,26.086199999999998,59.69099999999999,26.086199999999998,59.69099999999999C26.086199999999998,59.69099999999999,52.6064,78.957,52.6064,78.957C52.6064,78.957,42.4756,110.12839999999998,42.4756,110.12839999999998C42.4756,110.12839999999998,68.9958,90.8928,68.9958,90.8928C68.9958,90.8928,95.51599999999999,110.1322,95.51599999999999,110.1322C95.51599999999999,110.1322,95.51599999999999,110.1322,95.51599999999999,110.1322C95.51599999999999,110.1322,95.51599999999999,110.1322,95.51599999999999,110.1322" stroke-linejoin="round" stroke-linecap="round" stroke-width="4" opacity="0.091" transform="matrix(1,0,0,1,0,0)" style="stroke-linejoin: round; stroke-linecap: round; opacity: 0.091;"/>
  <path fill="#a403a2" stroke="#a403a2" d="M68.9958,95.56299999999999C68.9958,95.56299999999999,35.236599999999996,120.09199999999998,35.236599999999996,120.09199999999998C35.236599999999996,120.09199999999998,48.1414,80.42759999999998,48.1414,80.42759999999998C48.1414,80.42759999999998,14.386000000000003,55.88719999999998,14.386000000000003,55.88719999999998C14.386000000000003,55.88719999999998,56.1062,55.89479999999998,56.1062,55.89479999999998C56.1062,55.89479999999998,69.0034,16.237999999999996,69.0034,16.237999999999996C69.0034,16.237999999999996,81.88919999999999,55.88719999999999,81.88919999999999,55.88719999999999C81.88919999999999,55.88719999999999,123.61699999999999,55.88719999999999,123.61699999999999,55.88719999999999C123.61699999999999,55.88719999999999,89.8502,80.42379999999999,89.8502,80.42379999999999C89.8502,80.42379999999999,102.755,120.09199999999998,102.755,120.09199999999998C102.755,120.09199999999998,68.9958,95.56299999999999,68.9958,95.56299999999999C68.9958,95.56299999999999,68.9958,95.56299999999999,68.9958,95.56299999999999C68.9958,95.56299999999999,68.9958,95.56299999999999,68.9958,95.56299999999999M95.51599999999999,110.1322C95.51599999999999,110.1322,85.3928,78.95319999999998,85.3928,78.95319999999998C85.3928,78.95319999999998,111.91299999999998,59.71759999999998,111.91299999999998,59.71759999999998C111.91299999999998,59.71759999999998,79.13039999999998,59.71759999999998,79.13039999999998,59.71759999999998C79.13039999999998,59.71759999999998,68.9958,28.508199999999995,68.9958,28.508199999999995C68.9958,28.508199999999995,58.864999999999995,59.69099999999999,58.864999999999995,59.69099999999999C58.864999999999995,59.69099999999999,26.086199999999998,59.69099999999999,26.086199999999998,59.69099999999999C26.086199999999998,59.69099999999999,52.6064,78.957,52.6064,78.957C52.6064,78.957,42.4756,110.12839999999998,42.4756,110.12839999999998C42.4756,110.12839999999998,68.9958,90.8928,68.9958,90.8928C68.9958,90.8928,95.51599999999999,110.1322,95.51599999999999,110.1322C95.51599999999999,110.1322,95.51599999999999,110.1322,95.51599999999999,110.1322C95.51599999999999,110.1322,95.51599999999999,110.1322,95.51599999999999,110.1322" stroke-linejoin="round" stroke-linecap="round" stroke-width="6" opacity="0.091" transform="matrix(1,0,0,1,0,0)" style="stroke-linejoin: round; stroke-linecap: round; opacity: 0.091;"/>
  <path fill="#a403a2" stroke="#a403a2" d="M68.9958,95.56299999999999C68.9958,95.56299999999999,35.236599999999996,120.09199999999998,35.236599999999996,120.09199999999998C35.236599999999996,120.09199999999998,48.1414,80.42759999999998,48.1414,80.42759999999998C48.1414,80.42759999999998,14.386000000000003,55.88719999999998,14.386000000000003,55.88719999999998C14.386000000000003,55.88719999999998,56.1062,55.89479999999998,56.1062,55.89479999999998C56.1062,55.89479999999998,69.0034,16.237999999999996,69.0034,16.237999999999996C69.0034,16.237999999999996,81.88919999999999,55.88719999999999,81.88919999999999,55.88719999999999C81.88919999999999,55.88719999999999,123.61699999999999,55.88719999999999,123.61699999999999,55.88719999999999C123.61699999999999,55.88719999999999,89.8502,80.42379999999999,89.8502,80.42379999999999C89.8502,80.42379999999999,102.755,120.09199999999998,102.755,120.09199999999998C102.755,120.09199999999998,68.9958,95.56299999999999,68.9958,95.56299999999999C68.9958,95.56299999999999,68.9958,95.56299999999999,68.9958,95.56299999999999C68.9958,95.56299999999999,68.9958,95.56299999999999,68.9958,95.56299999999999M95.51599999999999,110.1322C95.51599999999999,110.1322,85.3928,78.95319999999998,85.3928,78.95319999999998C85.3928,78.95319999999998,111.91299999999998,59.71759999999998,111.91299999999998,59.71759999999998C111.91299999999998,59.71759999999998,79.13039999999998,59.71759999999998,79.13039999999998,59.71759999999998C79.13039999999998,59.71759999999998,68.9958,28.508199999999995,68.9958,28.508199999999995C68.9958,28.508199999999995,58.864999999999995,59.69099999999999,58.864999999999995,59.69099999999999C58.864999999999995,59.69099999999999,26.086199999999998,59.69099999999999,26.086199999999998,59.69099999999999C26.086199999999998,59.69099999999999,52.6064,78.957,52.6064,78.957C52.6064,78.957,42.4756,110.12839999999998,42.4756,110.12839999999998C42.4756,110.12839999999998,68.9958,90.8928,68.9958,90.8928C68.9958,90.8928,95.51599999999999,110.1322,95.51599999999999,110.1322C95.51599999999999,110.1322,95.51599999999999,110.1322,95.51599999999999,110.1322C95.51599999999999,110.1322,95.51599999999999,110.1322,95.51599999999999,110.1322" stroke-linejoin="round" stroke-linecap="round" stroke-width="8" opacity="0.091" transform="matrix(1,0,0,1,0,0)" style="stroke-linejoin: round; stroke-linecap: round; opacity: 0.091;"/>
  <path fill="#a403a2" stroke="#a403a2" d="M68.9958,95.56299999999999C68.9958,95.56299999999999,35.236599999999996,120.09199999999998,35.236599999999996,120.09199999999998C35.236599999999996,120.09199999999998,48.1414,80.42759999999998,48.1414,80.42759999999998C48.1414,80.42759999999998,14.386000000000003,55.88719999999998,14.386000000000003,55.88719999999998C14.386000000000003,55.88719999999998,56.1062,55.89479999999998,56.1062,55.89479999999998C56.1062,55.89479999999998,69.0034,16.237999999999996,69.0034,16.237999999999996C69.0034,16.237999999999996,81.88919999999999,55.88719999999999,81.88919999999999,55.88719999999999C81.88919999999999,55.88719999999999,123.61699999999999,55.88719999999999,123.61699999999999,55.88719999999999C123.61699999999999,55.88719999999999,89.8502,80.42379999999999,89.8502,80.42379999999999C89.8502,80.42379999999999,102.755,120.09199999999998,102.755,120.09199999999998C102.755,120.09199999999998,68.9958,95.56299999999999,68.9958,95.56299999999999C68.9958,95.56299999999999,68.9958,95.56299999999999,68.9958,95.56299999999999C68.9958,95.56299999999999,68.9958,95.56299999999999,68.9958,95.56299999999999M95.51599999999999,110.1322C95.51599999999999,110.1322,85.3928,78.95319999999998,85.3928,78.95319999999998C85.3928,78.95319999999998,111.91299999999998,59.71759999999998,111.91299999999998,59.71759999999998C111.91299999999998,59.71759999999998,79.13039999999998,59.71759999999998,79.13039999999998,59.71759999999998C79.13039999999998,59.71759999999998,68.9958,28.508199999999995,68.9958,28.508199999999995C68.9958,28.508199999999995,58.864999999999995,59.69099999999999,58.864999999999995,59.69099999999999C58.864999999999995,59.69099999999999,26.086199999999998,59.69099999999999,26.086199999999998,59.69099999999999C26.086199999999998,59.69099999999999,52.6064,78.957,52.6064,78.957C52.6064,78.957,42.4756,110.12839999999998,42.4756,110.12839999999998C42.4756,110.12839999999998,68.9958,90.8928,68.9958,90.8928C68.9958,90.8928,95.51599999999999,110.1322,95.51599999999999,110.1322C95.51599999999999,110.1322,95.51599999999999,110.1322,95.51599999999999,110.1322C95.51599999999999,110.1322,95.51599999999999,110.1322,95.51599999999999,110.1322" stroke-linejoin="round" stroke-linecap="round" stroke-width="10" opacity="0.091" transform="matrix(1,0,0,1,0,0)" style="stroke-linejoin: round; stroke-linecap: round; opacity: 0.091;"/>
  <path fill="#a403a2" stroke="#a403a2" d="M68.9958,95.56299999999999C68.9958,95.56299999999999,35.236599999999996,120.09199999999998,35.236599999999996,120.09199999999998C35.236599999999996,120.09199999999998,48.1414,80.42759999999998,48.1414,80.42759999999998C48.1414,80.42759999999998,14.386000000000003,55.88719999999998,14.386000000000003,55.88719999999998C14.386000000000003,55.88719999999998,56.1062,55.89479999999998,56.1062,55.89479999999998C56.1062,55.89479999999998,69.0034,16.237999999999996,69.0034,16.237999999999996C69.0034,16.237999999999996,81.88919999999999,55.88719999999999,81.88919999999999,55.88719999999999C81.88919999999999,55.88719999999999,123.61699999999999,55.88719999999999,123.61699999999999,55.88719999999999C123.61699999999999,55.88719999999999,89.8502,80.42379999999999,89.8502,80.42379999999999C89.8502,80.42379999999999,102.755,120.09199999999998,102.755,120.09199999999998C102.755,120.09199999999998,68.9958,95.56299999999999,68.9958,95.56299999999999C68.9958,95.56299999999999,68.9958,95.56299999999999,68.9958,95.56299999999999C68.9958,95.56299999999999,68.9958,95.56299999999999,68.9958,95.56299999999999M95.51599999999999,110.1322C95.51599999999999,110.1322,85.3928,78.95319999999998,85.3928,78.95319999999998C85.3928,78.95319999999998,111.91299999999998,59.71759999999998,111.91299999999998,59.71759999999998C111.91299999999998,59.71759999999998,79.13039999999998,59.71759999999998,79.13039999999998,59.71759999999998C79.13039999999998,59.71759999999998,68.9958,28.508199999999995,68.9958,28.508199999999995C68.9958,28.508199999999995,58.864999999999995,59.69099999999999,58.864999999999995,59.69099999999999C58.864999999999995,59.69099999999999,26.086199999999998,59.69099999999999,26.086199999999998,59.69099999999999C26.086199999999998,59.69099999999999,52.6064,78.957,52.6064,78.957C52.6064,78.957,42.4756,110.12839999999998,42.4756,110.12839999999998C42.4756,110.12839999999998,68.9958,90.8928,68.9958,90.8928C68.9958,90.8928,95.51599999999999,110.1322,95.51599999999999,110.1322C95.51599999999999,110.1322,95.51599999999999,110.1322,95.51599999999999,110.1322C95.51599999999999,110.1322,95.51599999999999,110.1322,95.51599999999999,110.1322" stroke-linejoin="round" stroke-linecap="round" stroke-width="12" opacity="0.091" transform="matrix(1,0,0,1,0,0)" style="stroke-linejoin: round; stroke-linecap: round; opacity: 0.091;"/>
  <path fill="url(#111790-_ABDEBE-_94AAB0)" stroke="none" d="M16,22.375L7.116,28.83L10.512,18.391999999999996L1.6290000000000013,11.933999999999996L12.608,11.935999999999996L16.002,1.5L19.393,11.934H30.374000000000002L21.488000000000003,18.391L24.884000000000004,28.83L16,22.375L16,22.375ZM22.979,26.209L20.314999999999998,18.003999999999998L27.293999999999997,12.941999999999997H18.666999999999994L16,4.729L13.334,12.934999999999999H4.708L11.687000000000001,18.005L9.021,26.208L16,21.146L22.979,26.209L22.979,26.209Z" opacity="1" fill-opacity="1" transform="matrix(3.8,0,0,3.8,8.1958,10.538)" stroke-width="0.2631578947368421" style="opacity: 1; fill-opacity: 1;"/>
  <path fill="#ffffff" stroke="none" d="M22.444235,4.4963017C12.693095,4.4963017,4.809554899999998,13.248652,4.809554899999998,24.123792L4.809554899999998,85.124892C14.419054999999998,86.897732,24.584214999999997,87.883172,35.096795,87.883172C94.822574,87.883172,143.2348,57.213652,143.2348,19.36685200000001C143.2348,19.038142000000008,143.2063,18.695042000000008,143.19910000000002,18.36747200000001C143.19310000000002,18.34217200000001,143.20510000000002,18.31217200000001,143.19910000000002,18.28747200000001C140.97716000000003,10.286892000000012,134.31157000000002,4.496241700000011,126.38877000000002,4.496241700000011L22.444375000000022,4.496241700000011Z" fill-opacity="0.3" transform="matrix(1,0,0,1,-5,-5)" style="fill-opacity: 0.3;"/>
</svg>
