<?xml version="1.0" encoding="utf-8"?>
<!-- Generator: Adobe Illustrator 16.0.0, SVG Export Plug-In . SVG Version: 6.00 Build 0)  -->
<!DOCTYPE svg PUBLIC "-//W3C//DTD SVG 1.1//EN" "http://www.w3.org/Graphics/SVG/1.1/DTD/svg11.dtd">
<svg version="1.1" id="Layer_1" xmlns="http://www.w3.org/2000/svg" xmlns:xlink="http://www.w3.org/1999/xlink" x="0px" y="0px"
	 width="467.042px" height="370.717px" viewBox="0 0 467.042 370.717" enable-background="new 0 0 467.042 370.717"
	 xml:space="preserve">
<g>
	<g>
		<linearGradient id="SVGID_1_" gradientUnits="userSpaceOnUse" x1="42.7598" y1="-5.7358" x2="41.4307" y2="89.962">
			<stop  offset="0" style="stop-color:#F5F7F6"/>
			<stop  offset="1" style="stop-color:#3B3B3B"/>
		</linearGradient>
		<path fill="url(#SVGID_1_)" d="M84.179,18.244V5.614c0-2.936-2.381-5.317-5.316-5.317H66.016V0.294H0.002v5.282
			C0.002,5.588,0,5.601,0,5.614V79.16c0,2.936,2.381,5.316,5.317,5.316h12.85v0.032h66.014V18.244H84.179z"/>
		<linearGradient id="SVGID_2_" gradientUnits="userSpaceOnUse" x1="42.6909" y1="-0.7954" x2="41.4982" y2="85.0801">
			<stop  offset="0" style="stop-color:#F5F7F6"/>
			<stop  offset="1" style="stop-color:#CCCCCC"/>
		</linearGradient>
		<path fill="url(#SVGID_2_)" d="M79.859,20.723V9.389c0-2.634-2.136-4.771-4.771-4.771H63.561V4.616H4.322v4.739
			c0,0.012-0.002,0.023-0.002,0.034v65.998c0,2.635,2.136,4.771,4.771,4.771h11.532v0.029h59.239V20.723H79.859z"/>
		<linearGradient id="SVGID_3_" gradientUnits="userSpaceOnUse" x1="42.2778" y1="16.4224" x2="41.8309" y2="78.9694">
			<stop  offset="0" style="stop-color:#ED8423"/>
			<stop  offset="1" style="stop-color:#D86427"/>
		</linearGradient>
		<path fill="url(#SVGID_3_)" d="M78.836,21.311V10.284c0-2.563-2.078-4.641-4.642-4.641H62.979V5.64H5.345v4.611
			c0,0.011-0.002,0.022-0.002,0.033v64.209c0,2.564,2.078,4.643,4.641,4.643h11.219v0.027h57.635V21.311H78.836z"/>
		<path opacity="0.2" fill="#FFFFFF" d="M83.336,18.993h-0.001V6.655c0-2.868-2.326-5.193-5.194-5.193H65.589V1.458H1.098v5.159
			c0,0.013-0.002,0.025-0.002,0.038v49.935c24.434-13.036,52.139-19.376,82.24-16.083V18.993z"/>
		<g>
			<path fill="#C54827" d="M21.777,17.561v8.834c21.511,0.038,38.901,17.433,38.941,38.942h8.84
				C69.558,38.945,48.168,17.561,21.777,17.561z M21.601,33.82v8.835c5.28-0.027,11.124,2.783,15.517,7.246
				c4.421,4.429,7.211,10.336,7.181,15.623h8.836C52.8,49.122,38.084,34.165,21.601,33.82z M25.992,52.808
				c-3.492,0-6.324,2.833-6.324,6.331c0,3.496,2.832,6.328,6.324,6.328c3.497,0,6.337-2.832,6.337-6.328
				C32.329,55.642,29.488,52.808,25.992,52.808z"/>
			<linearGradient id="SVGID_4_" gradientUnits="userSpaceOnUse" x1="43.3101" y1="39.3369" x2="43.9746" y2="89.8442">
				<stop  offset="0" style="stop-color:#F5F7F6"/>
				<stop  offset="1" style="stop-color:#A1A1A1"/>
			</linearGradient>
			<path fill="url(#SVGID_4_)" d="M20.78,18.059v8.834c21.51,0.037,38.901,17.433,38.941,38.942h8.839
				C68.561,39.444,47.172,18.059,20.78,18.059z M20.604,34.318v8.835c5.28-0.027,11.124,2.783,15.517,7.246
				c4.421,4.43,7.211,10.336,7.181,15.624h8.836C51.803,49.621,37.087,34.663,20.604,34.318z M24.995,53.307
				c-3.493,0-6.324,2.833-6.324,6.331c0,3.496,2.831,6.328,6.324,6.328c3.497,0,6.337-2.832,6.337-6.328
				C31.332,56.14,28.492,53.307,24.995,53.307z"/>
		</g>
	</g>
	<g>
		<linearGradient id="SVGID_5_" gradientUnits="userSpaceOnUse" x1="138.2793" y1="-5.7358" x2="136.9502" y2="89.962">
			<stop  offset="0" style="stop-color:#F5F7F6"/>
			<stop  offset="1" style="stop-color:#3B3B3B"/>
		</linearGradient>
		<path fill="url(#SVGID_5_)" d="M179.698,18.244V5.614c0-2.936-2.381-5.317-5.316-5.317h-12.847V0.294H95.521v5.282
			c0,0.013-0.002,0.025-0.002,0.039V79.16c0,2.936,2.38,5.316,5.316,5.316h12.85v0.032H179.7V18.244H179.698z"/>
		<linearGradient id="SVGID_6_" gradientUnits="userSpaceOnUse" x1="138.2104" y1="-0.7949" x2="137.0178" y2="85.0806">
			<stop  offset="0" style="stop-color:#F5F7F6"/>
			<stop  offset="1" style="stop-color:#CCCCCC"/>
		</linearGradient>
		<path fill="url(#SVGID_6_)" d="M175.378,20.723V9.389c0-2.634-2.136-4.771-4.771-4.771H159.08V4.616H99.841v4.739
			c0,0.012-0.002,0.023-0.002,0.034v65.998c0,2.635,2.137,4.771,4.771,4.771h11.531v0.029h59.24V20.723H175.378z"/>
		<path fill="#AFD7E6" d="M174.354,21.311V10.284c0-2.563-2.078-4.641-4.641-4.641h-11.215V5.64h-57.634v4.611
			c0,0.011-0.002,0.022-0.002,0.033v64.209c0,2.564,2.079,4.643,4.641,4.643h11.219v0.027h57.635V21.311H174.354z"/>
		<path opacity="0.2" fill="#FFFFFF" d="M178.855,18.993h-0.002V6.655c0-2.868-2.325-5.193-5.193-5.193h-12.551V1.458H96.618v5.159
			c0,0.013-0.002,0.025-0.002,0.038v49.935c24.434-13.036,52.139-19.376,82.24-16.083V18.993z"/>
		<path fill="#8CC2CF" d="M153.198,52.812h-10.287c-7.319,0-8.487-3.112-8.487-5.995c0-1.369,0.091-3.624,0.178-6.386h17.189
			c2.57,0,7.478-1.014,7.478-5.531c0-4.516-2.264-7.479-5.299-7.479h-19.154c-0.02-6.514-0.463-13.005-7.088-13.005
			c-2.741,0-4.965,1.082-5.903,3.766c-1.231,3.524-0.907,7.658-0.889,11.328c0.004,0.7,0.006,1.4,0.009,2.102
			c0.009,2.403,0.06,4.824,0.071,7.243c0.007,2.602,0.01,5.204,0.01,7.804c0,14.568,13.791,18.696,16.433,18.696
			c2.647,0,13.008,0.236,14.877,0.236c1.873,0,7.244-0.476,7.244-5.692C159.58,54.682,155.769,52.812,153.198,52.812z"/>
		<linearGradient id="SVGID_7_" gradientUnits="userSpaceOnUse" x1="139.3296" y1="37.438" x2="138.8123" y2="110.9121">
			<stop  offset="0" style="stop-color:#F5F7F6"/>
			<stop  offset="0.2009" style="stop-color:#EAECEB"/>
			<stop  offset="0.5541" style="stop-color:#CECFCE"/>
			<stop  offset="1" style="stop-color:#A1A1A1"/>
		</linearGradient>
		<path fill="url(#SVGID_7_)" d="M152.255,53.429h-10.287c-7.318,0-8.487-3.112-8.487-5.995c0-1.37,0.091-3.624,0.179-6.387h17.188
			c2.57,0,7.478-1.014,7.478-5.531c0-4.516-2.264-7.478-5.298-7.478h-19.154c-0.019-6.514-0.462-13.005-7.088-13.005
			c-2.742,0-4.965,1.082-5.903,3.767c-1.231,3.524-0.906,7.658-0.89,11.327c0.004,0.7,0.007,1.401,0.01,2.103
			c0.009,2.403,0.06,4.824,0.071,7.243c0.007,2.601,0.01,5.204,0.01,7.804c0,14.567,13.79,18.696,16.433,18.696
			c2.647,0,13.008,0.236,14.877,0.236c1.873,0,7.243-0.475,7.243-5.692C158.637,55.299,154.826,53.429,152.255,53.429z"/>
	</g>
	<g>
		<linearGradient id="SVGID_8_" gradientUnits="userSpaceOnUse" x1="233.9771" y1="-5.7358" x2="232.6479" y2="89.962">
			<stop  offset="0" style="stop-color:#F5F7F6"/>
			<stop  offset="1" style="stop-color:#3B3B3B"/>
		</linearGradient>
		<path fill="url(#SVGID_8_)" d="M275.396,18.244V5.614c0-2.936-2.381-5.317-5.316-5.317h-12.848V0.294h-66.013v5.282
			c0,0.013-0.002,0.025-0.002,0.039V79.16c0,2.936,2.38,5.316,5.317,5.316h12.85v0.032h66.015V18.244H275.396z"/>
		<linearGradient id="SVGID_9_" gradientUnits="userSpaceOnUse" x1="233.9087" y1="-0.7949" x2="232.716" y2="85.0806">
			<stop  offset="0" style="stop-color:#F5F7F6"/>
			<stop  offset="1" style="stop-color:#CCCCCC"/>
		</linearGradient>
		<path fill="url(#SVGID_9_)" d="M271.077,20.723V9.389c0-2.634-2.136-4.771-4.771-4.771h-11.528V4.616h-59.239v4.739
			c0,0.012-0.002,0.023-0.002,0.034v65.998c0,2.635,2.137,4.771,4.771,4.771h11.531v0.029h59.24V20.723H271.077z"/>
		<path fill="#0D75B6" d="M270.054,21.311V10.284c0-2.563-2.079-4.641-4.643-4.641h-11.215V5.64h-57.634v4.611
			c0,0.011-0.002,0.022-0.002,0.033v64.209c0,2.564,2.079,4.643,4.641,4.643h11.219v0.027h57.635V21.311H270.054z"/>
		<path opacity="0.2" fill="#C9E8F7" d="M274.554,18.993h-0.002V6.655c0-2.868-2.325-5.193-5.194-5.193h-12.551V1.458h-64.491v5.159
			c0,0.013-0.002,0.025-0.002,0.038v49.935c24.434-13.036,52.139-19.376,82.24-16.083V18.993z"/>
		<g>
			<path fill="#05619B" d="M247.996,32.926h-8.301v-5.447c0-2.038,1.355-2.519,2.31-2.519c0.951,0,5.855,0,5.855,0v-8.982
				l-8.065-0.034c-8.953,0-10.99,6.704-10.99,10.991v5.991h-5.177v9.256h5.177c0,11.886,0,26.202,0,26.202h10.891
				c0,0,0-14.459,0-26.202h7.349L247.996,32.926z"/>
			<linearGradient id="SVGID_10_" gradientUnits="userSpaceOnUse" x1="234.958" y1="28.0747" x2="233.9235" y2="88.0961">
				<stop  offset="0" style="stop-color:#F5F7F6"/>
				<stop  offset="1" style="stop-color:#A1A1A1"/>
			</linearGradient>
			<path fill="url(#SVGID_10_)" d="M247.044,33.73h-8.3v-5.447c0-2.042,1.354-2.519,2.309-2.519c0.952,0,5.854,0,5.854,0v-8.982
				l-8.064-0.034c-8.953,0-10.991,6.702-10.991,10.991v5.991h-5.176v9.256h5.176c0,11.884,0,26.202,0,26.202h10.893
				c0,0,0-14.459,0-26.202h7.347L247.044,33.73z"/>
		</g>
	</g>
	<g>
		<linearGradient id="SVGID_11_" gradientUnits="userSpaceOnUse" x1="233.543" y1="279.7715" x2="232.2139" y2="375.4699">
			<stop  offset="0" style="stop-color:#F5F7F6"/>
			<stop  offset="1" style="stop-color:#3B3B3B"/>
		</linearGradient>
		<path fill="url(#SVGID_11_)" d="M274.963,303.751v-12.63c0-2.936-2.381-5.316-5.317-5.316h-12.847v-0.004h-66.014v5.281
			c0,0.013-0.002,0.025-0.002,0.039v73.545c0,2.937,2.38,5.317,5.316,5.317h12.85v0.032h66.015L274.963,303.751L274.963,303.751z"/>
		<linearGradient id="SVGID_12_" gradientUnits="userSpaceOnUse" x1="233.4731" y1="284.7109" x2="232.2805" y2="370.5854">
			<stop  offset="0" style="stop-color:#F5F7F6"/>
			<stop  offset="1" style="stop-color:#CCCCCC"/>
		</linearGradient>
		<path fill="url(#SVGID_12_)" d="M270.643,306.229v-11.334c0-2.633-2.136-4.771-4.771-4.771h-11.528v-0.003h-59.239v4.74
			c0,0.011-0.002,0.021-0.002,0.033v65.998c0,2.635,2.137,4.771,4.771,4.771h11.531v0.029h59.239L270.643,306.229L270.643,306.229z"
			/>
		<path fill="#0E82C6" d="M269.619,306.817V295.79c0-2.562-2.077-4.641-4.642-4.641h-11.215v-0.003h-57.634v4.61
			c0,0.011-0.002,0.022-0.002,0.033V360c0,2.563,2.079,4.642,4.641,4.642h11.219v0.027h57.635v-57.852H269.619z"/>
		<path opacity="0.2" fill="#FFFFFF" d="M274.119,304.5L274.119,304.5l-0.001-12.338c0-2.869-2.327-5.195-5.195-5.195h-12.55v-0.003
			h-64.492v5.161c0,0.012-0.002,0.023-0.002,0.037v49.934c24.434-13.036,52.14-19.375,82.24-16.082V304.5z"/>
		<g>
			<path fill="#0173B2" d="M216.752,320.286h-7.338v14.795h12.101v-21.254h-4.762V320.286z M216.752,331.102h-2.489v-6.72h2.489
				V331.102z M231.454,335.138h7.338v2.31h-7.424v4.148h10.085l0,0h2.105v-21.25h-12.104V335.138z M236.306,324.32h2.486v6.723
				h-2.486V324.32z M223.972,318.124h4.939v-4.033h-4.939V318.124z M223.972,335.138h4.939v-14.881h-4.939V335.138z
				 M246.071,320.346v14.792h7.335v2.31h-7.423v4.148h10.086l0,0h2.104v-21.25H246.071z M253.406,331.043h-2.48v-6.723h2.48V331.043
				z"/>
			<linearGradient id="SVGID_13_" gradientUnits="userSpaceOnUse" x1="232.5381" y1="318.6748" x2="235.1257" y2="372.4875">
				<stop  offset="0" style="stop-color:#F5F7F6"/>
				<stop  offset="1" style="stop-color:#A1A1A1"/>
			</linearGradient>
			<path fill="url(#SVGID_13_)" d="M215.965,321.013h-7.338v14.79h12.103v-21.25h-4.765V321.013z M215.965,331.829h-2.487v-6.724
				h2.487V331.829z M230.669,335.859h7.336v2.313h-7.422v4.15h10.084l0,0h2.105v-21.252h-12.104V335.859z M235.521,325.046h2.485
				v6.724h-2.485V325.046z M223.188,318.851h4.938v-4.034h-4.938V318.851z M223.188,335.859h4.938v-14.875h-4.938V335.859z
				 M245.286,321.071v14.788h7.336v2.313h-7.423v4.15h10.085l0,0h2.104v-21.252H245.286z M252.622,331.77h-2.482v-6.724h2.482
				V331.77z"/>
		</g>
	</g>
	<g>
		<linearGradient id="SVGID_14_" gradientUnits="userSpaceOnUse" x1="425.1416" y1="-5.7358" x2="423.8125" y2="89.9614">
			<stop  offset="0" style="stop-color:#F5F7F6"/>
			<stop  offset="1" style="stop-color:#3B3B3B"/>
		</linearGradient>
		<path fill="url(#SVGID_14_)" d="M466.562,18.244V5.614c0-2.936-2.381-5.317-5.316-5.317h-12.848V0.294h-66.013v5.282
			c0,0.013-0.002,0.025-0.002,0.039V79.16c0,2.936,2.38,5.316,5.315,5.316h12.85v0.032h66.016V18.244H466.562z"/>
		<linearGradient id="SVGID_15_" gradientUnits="userSpaceOnUse" x1="425.0732" y1="-0.7954" x2="423.8806" y2="85.0801">
			<stop  offset="0" style="stop-color:#F5F7F6"/>
			<stop  offset="1" style="stop-color:#CCCCCC"/>
		</linearGradient>
		<path fill="url(#SVGID_15_)" d="M462.241,20.723V9.389c0-2.634-2.136-4.771-4.771-4.771h-11.528V4.616h-59.238v4.739
			c0,0.012-0.002,0.023-0.002,0.034v65.998c0,2.635,2.137,4.771,4.771,4.771h11.531v0.029h59.239V20.723H462.241z"/>
		<linearGradient id="SVGID_16_" gradientUnits="userSpaceOnUse" x1="426.168" y1="82.5122" x2="424.1743" y2="35.3285">
			<stop  offset="0" style="stop-color:#034B76"/>
			<stop  offset="1" style="stop-color:#056193"/>
		</linearGradient>
		<path fill="url(#SVGID_16_)" d="M461.218,21.311V10.284c0-2.563-2.078-4.641-4.642-4.641H445.36V5.64h-57.633v4.611
			c0,0.011-0.002,0.022-0.002,0.033v64.209c0,2.564,2.079,4.643,4.64,4.643h11.22v0.027h57.636V21.311H461.218z"/>
		<path opacity="0.2" fill="#FFFFFF" d="M465.718,18.993h-0.002V6.655c0-2.868-2.325-5.193-5.193-5.193h-12.551V1.458H383.48v5.159
			c0,0.013-0.003,0.025-0.003,0.038v49.935c24.435-13.036,52.14-19.376,82.24-16.083V18.993z"/>
		<g>
			<path fill="#024461" d="M434.251,35.723c-2.712,0-5.176,1.055-7.004,2.777c-1.155-2.613-3.771-4.438-6.812-4.438
				c-2.264,0-4.289,1.01-5.655,2.606c-1.081-1.913-3.134-3.202-5.484-3.202c-3.483,0-6.309,2.823-6.309,6.305v11.554h10.002v3.833
				h11.03v9.552h20.464V45.956C444.482,40.306,439.899,35.723,434.251,35.723z M434.184,34.274c4.191,0,7.591-3.399,7.591-7.588
				c0-4.192-3.399-7.588-7.591-7.588c-4.19,0-7.584,3.396-7.584,7.588C426.6,30.875,429.993,34.274,434.184,34.274z M420.387,33.007
				c3.05,0,5.522-2.473,5.522-5.522c0-3.051-2.473-5.524-5.522-5.524c-3.049,0-5.521,2.474-5.521,5.524
				C414.865,30.535,417.338,33.007,420.387,33.007z M409.254,32.572c2.579,0,4.675-2.093,4.675-4.672
				c0-2.585-2.096-4.678-4.675-4.678c-2.586,0-4.677,2.092-4.677,4.678C404.577,30.479,406.668,32.572,409.254,32.572z"/>
			<linearGradient id="SVGID_17_" gradientUnits="userSpaceOnUse" x1="422.918" y1="37.6128" x2="423.9531" y2="76.9368">
				<stop  offset="0" style="stop-color:#F5F7F6"/>
				<stop  offset="1" style="stop-color:#A1A1A1"/>
			</linearGradient>
			<path fill="url(#SVGID_17_)" d="M433.747,36.646c-2.713,0-5.177,1.057-7.004,2.778c-1.157-2.614-3.771-4.438-6.813-4.438
				c-2.263,0-4.288,1.01-5.654,2.603c-1.083-1.91-3.134-3.199-5.485-3.199c-3.482,0-6.308,2.823-6.308,6.304V52.25h9.999v3.833
				h11.032v9.553h20.465V46.88C443.979,41.227,439.395,36.646,433.747,36.646z M433.679,35.196c4.19,0,7.591-3.396,7.591-7.586
				s-3.4-7.587-7.591-7.587c-4.188,0-7.584,3.396-7.584,7.587S429.49,35.196,433.679,35.196z M419.883,33.932
				c3.049,0,5.522-2.473,5.522-5.524c0-3.05-2.474-5.523-5.522-5.523c-3.05,0-5.522,2.473-5.522,5.523
				C414.36,31.459,416.833,33.932,419.883,33.932z M408.749,33.496c2.579,0,4.676-2.093,4.676-4.675
				c0-2.582-2.097-4.678-4.676-4.678c-2.585,0-4.679,2.097-4.679,4.678C404.07,31.403,406.164,33.496,408.749,33.496z"/>
		</g>
	</g>
	<g>
		<linearGradient id="SVGID_18_" gradientUnits="userSpaceOnUse" x1="42.7593" y1="89.2979" x2="41.4302" y2="184.9951">
			<stop  offset="0" style="stop-color:#F5F7F6"/>
			<stop  offset="1" style="stop-color:#3B3B3B"/>
		</linearGradient>
		<path fill="url(#SVGID_18_)" d="M84.179,113.278v-12.63c0-2.936-2.381-5.316-5.316-5.316H66.016v-0.003H0.002v5.281
			c0,0.013-0.002,0.025-0.002,0.038v73.547c0,2.936,2.381,5.315,5.317,5.315h12.85v0.032h66.014v-66.264H84.179z"/>
		<linearGradient id="SVGID_19_" gradientUnits="userSpaceOnUse" x1="42.6919" y1="94.2383" x2="41.4992" y2="180.1138">
			<stop  offset="0" style="stop-color:#F5F7F6"/>
			<stop  offset="1" style="stop-color:#CCCCCC"/>
		</linearGradient>
		<path fill="url(#SVGID_19_)" d="M79.859,115.757v-11.334c0-2.635-2.136-4.771-4.771-4.771H63.561v-0.003H4.322v4.739
			c0,0.012-0.002,0.022-0.002,0.034v65.999c0,2.635,2.136,4.77,4.771,4.77h11.532v0.029h59.239v-59.464H79.859z"/>
		<path fill="#B3CA35" d="M78.836,116.344v-11.026c0-2.564-2.078-4.642-4.642-4.642H62.979v-0.003H5.345v4.611
			c0,0.011-0.002,0.021-0.002,0.034v64.208c0,2.564,2.078,4.643,4.641,4.643h11.219v0.028h57.635v-57.853H78.836z"/>
		<path opacity="0.3" fill="#FFFFFF" d="M83.336,114.027h-0.001v-12.339c0-2.868-2.326-5.194-5.194-5.194H65.589v-0.003H1.098v5.159
			c0,0.013-0.002,0.024-0.002,0.038v49.935c24.434-13.036,52.139-19.376,82.24-16.082V114.027z"/>
		<g>
			<g>
				<g>
					<polygon fill="#97BF3D" points="43.577,143.673 18.023,123.891 18.023,154.1 69.187,154.1 69.187,124.978 					"/>
					<polygon fill="#97BF3D" points="67.092,123.374 21.466,123.374 43.604,140.511 					"/>
				</g>
			</g>
			<g>
				<linearGradient id="SVGID_20_" gradientUnits="userSpaceOnUse" x1="42.7031" y1="132.1377" x2="42.2598" y2="175.1113">
					<stop  offset="0" style="stop-color:#F5F7F6"/>
					<stop  offset="0.1916" style="stop-color:#F0F2F1"/>
					<stop  offset="0.4259" style="stop-color:#E1E3E2"/>
					<stop  offset="0.6825" style="stop-color:#C9CACA"/>
					<stop  offset="0.9533" style="stop-color:#A8A8A8"/>
					<stop  offset="1" style="stop-color:#A1A1A1"/>
				</linearGradient>
				<polygon fill="url(#SVGID_20_)" points="42.599,144.279 17.044,124.5 17.044,154.713 68.209,154.713 68.209,125.59 				"/>
				<linearGradient id="SVGID_21_" gradientUnits="userSpaceOnUse" x1="43.2158" y1="132.1436" x2="42.7725" y2="175.1193">
					<stop  offset="0" style="stop-color:#F5F7F6"/>
					<stop  offset="0.1916" style="stop-color:#F0F2F1"/>
					<stop  offset="0.4259" style="stop-color:#E1E3E2"/>
					<stop  offset="0.6825" style="stop-color:#C9CACA"/>
					<stop  offset="0.9533" style="stop-color:#A8A8A8"/>
					<stop  offset="1" style="stop-color:#A1A1A1"/>
				</linearGradient>
				<polygon fill="url(#SVGID_21_)" points="66.114,123.987 20.488,123.987 42.626,141.125 				"/>
			</g>
		</g>
	</g>
	<g>
		<g>
			<linearGradient id="SVGID_22_" gradientUnits="userSpaceOnUse" x1="138.2798" y1="89.2974" x2="136.9507" y2="184.9947">
				<stop  offset="0" style="stop-color:#F5F7F6"/>
				<stop  offset="1" style="stop-color:#3B3B3B"/>
			</linearGradient>
			<path fill="url(#SVGID_22_)" d="M179.698,113.278v-12.63c0-2.936-2.381-5.316-5.316-5.316h-12.847v-0.003H95.521v5.281
				c0,0.013-0.002,0.025-0.002,0.038v73.547c0,2.936,2.38,5.315,5.316,5.315h12.85v0.032H179.7v-66.264H179.698z"/>
			<linearGradient id="SVGID_23_" gradientUnits="userSpaceOnUse" x1="138.2114" y1="94.2388" x2="137.0188" y2="180.1143">
				<stop  offset="0" style="stop-color:#F5F7F6"/>
				<stop  offset="1" style="stop-color:#CCCCCC"/>
			</linearGradient>
			<path fill="url(#SVGID_23_)" d="M175.378,115.757v-11.334c0-2.635-2.136-4.771-4.771-4.771H159.08v-0.003H99.841v4.739
				c0,0.012-0.002,0.022-0.002,0.034v65.999c0,2.635,2.137,4.77,4.771,4.77h11.531v0.029h59.24v-59.464H175.378z"/>
			<linearGradient id="SVGID_24_" gradientUnits="userSpaceOnUse" x1="137.6099" y1="128.6328" x2="137.6099" y2="164.0773">
				<stop  offset="0" style="stop-color:#F7B618"/>
				<stop  offset="1" style="stop-color:#E04626"/>
			</linearGradient>
			<path fill="url(#SVGID_24_)" d="M174.354,116.344v-11.026c0-2.564-2.078-4.642-4.641-4.642h-11.215v-0.003h-57.634v4.611
				c0,0.011-0.002,0.021-0.002,0.034v64.208c0,2.564,2.079,4.643,4.641,4.643h11.219v0.028h57.635v-57.853H174.354z"/>
			<path opacity="0.2" fill="#FFFFFF" d="M178.855,114.027h-0.002v-12.339c0-2.868-2.325-5.194-5.193-5.194h-12.551v-0.003H96.618
				v5.159c0,0.013-0.002,0.024-0.002,0.038v49.935c24.434-13.036,52.139-19.376,82.24-16.082V114.027z"/>
		</g>
		<g>
			<path fill="#DB7527" d="M160.387,132.469c-4.747,0-5.257-2.138-5.398-5.119c-0.186-3.909-3.722-13.308-11.167-13.308
				c-0.465,0-16.193,0.093-17.032,0.093c-0.93,0.187-10.329,2.606-11.167,12.564c-0.838,9.958-0.188,20.009-0.188,21.591
				c0,1.583,2.885,13.681,13.03,13.681s20.66,0.186,22.056,0.093c1.396-0.093,13.402-3.723,13.402-15.635
				C163.923,134.517,165.133,132.469,160.387,132.469z M130.188,126.605h9.678c1.464,0,2.652,1.188,2.652,2.653
				s-1.188,2.653-2.652,2.653h-9.678c-1.466,0-2.653-1.188-2.653-2.653S128.722,126.605,130.188,126.605z M148.428,149.966h-17.124
				c-1.67,0-3.025-1.354-3.025-3.025c0-1.67,1.354-3.025,3.025-3.025h17.124c1.67,0,3.024,1.354,3.024,3.025
				C151.452,148.611,150.098,149.966,148.428,149.966z"/>
			<linearGradient id="SVGID_25_" gradientUnits="userSpaceOnUse" x1="139.085" y1="134.1455" x2="136.8693" y2="176.6778">
				<stop  offset="0" style="stop-color:#F5F7F6"/>
				<stop  offset="1" style="stop-color:#A1A1A1"/>
			</linearGradient>
			<path fill="url(#SVGID_25_)" d="M159.556,133.133c-4.747,0-5.257-2.138-5.398-5.119c-0.187-3.909-3.722-13.308-11.168-13.308
				c-0.465,0-16.193,0.093-17.031,0.093c-0.93,0.186-10.329,2.606-11.167,12.563c-0.838,9.958-0.187,20.009-0.187,21.591
				s2.885,13.68,13.029,13.68c10.145,0,20.661,0.187,22.057,0.094c1.396-0.094,13.401-3.724,13.401-15.636
				C163.092,135.182,164.302,133.133,159.556,133.133z M129.356,127.27h9.679c1.464,0,2.652,1.188,2.652,2.652
				c0,1.465-1.188,2.653-2.652,2.653h-9.679c-1.465,0-2.653-1.188-2.653-2.653C126.704,128.458,127.891,127.27,129.356,127.27z
				 M147.597,150.63h-17.124c-1.671,0-3.025-1.354-3.025-3.025c0-1.671,1.354-3.025,3.025-3.025h17.124
				c1.67,0,3.025,1.354,3.025,3.025C150.622,149.276,149.267,150.63,147.597,150.63z"/>
		</g>
	</g>
	<g>
		<linearGradient id="SVGID_26_" gradientUnits="userSpaceOnUse" x1="329.374" y1="-6.0298" x2="328.0449" y2="89.6681">
			<stop  offset="0" style="stop-color:#F5F7F6"/>
			<stop  offset="1" style="stop-color:#3B3B3B"/>
		</linearGradient>
		<path fill="url(#SVGID_26_)" d="M370.793,17.95V5.32c0-2.937-2.381-5.317-5.316-5.317H352.63V0h-66.015v5.282
			c0,0.013-0.002,0.025-0.002,0.039v73.546c0,2.936,2.381,5.316,5.317,5.316h12.85v0.032h66.015V17.95H370.793z"/>
		<linearGradient id="SVGID_27_" gradientUnits="userSpaceOnUse" x1="329.3047" y1="-1.0894" x2="328.112" y2="84.7867">
			<stop  offset="0" style="stop-color:#F5F7F6"/>
			<stop  offset="1" style="stop-color:#CCCCCC"/>
		</linearGradient>
		<path fill="url(#SVGID_27_)" d="M366.474,20.429V9.095c0-2.634-2.136-4.771-4.771-4.771h-11.528V4.322h-59.238v4.739
			c0,0.012-0.002,0.023-0.002,0.035v65.998c0,2.635,2.136,4.771,4.77,4.771h11.532v0.029h59.24V20.429H366.474z"/>
		<linearGradient id="SVGID_28_" gradientUnits="userSpaceOnUse" x1="328.7041" y1="33.3047" x2="328.7041" y2="68.7485">
			<stop  offset="0" style="stop-color:#F5F7F6"/>
			<stop  offset="1" style="stop-color:#A1A1A1"/>
		</linearGradient>
		<path fill="url(#SVGID_28_)" d="M365.45,21.017V9.99c0-2.564-2.079-4.642-4.643-4.642h-11.215V5.346h-57.635v4.611
			c0,0.011-0.001,0.022-0.001,0.034v64.209c0,2.564,2.079,4.642,4.641,4.642h11.219v0.027h57.635L365.45,21.017L365.45,21.017z"/>
		<g>
			<polygon fill="#A3A3A2" points="354.492,16.563 306.31,16.563 306.31,16.573 306.279,16.573 306.279,40.894 306.31,40.894 
				306.31,65.151 330.344,65.151 330.344,65.261 354.463,65.261 354.463,65.151 354.492,65.151 			"/>
			<g>
				<rect x="305.809" y="17.17" fill="#151716" width="47.982" height="48.587"/>
				<linearGradient id="SVGID_29_" gradientUnits="userSpaceOnUse" x1="317.333" y1="23.4517" x2="318.8486" y2="40.7299">
					<stop  offset="0" style="stop-color:#FFFFFF"/>
					<stop  offset="1" style="stop-color:#E1DFDC"/>
				</linearGradient>
				<rect x="305.778" y="17.046" fill="url(#SVGID_29_)" width="24.119" height="24.321"/>
				<rect x="329.843" y="17.046" fill="#212B5D" width="24.119" height="24.321"/>
				<rect x="329.843" y="41.413" fill="#DBDAD8" width="24.119" height="24.321"/>
			</g>
		</g>
		<path opacity="0.2" fill="#FFFFFF" d="M369.95,18.7h-0.003V6.361c0-2.868-2.325-5.194-5.193-5.194h-12.551V1.164h-64.49v5.16
			c0,0.013-0.003,0.025-0.003,0.038v49.934c24.435-13.035,52.138-19.375,82.24-16.082V18.7z"/>
	</g>
	<g>
		<g>
			<linearGradient id="SVGID_30_" gradientUnits="userSpaceOnUse" x1="329.7842" y1="184.3315" x2="328.4551" y2="280.0288">
				<stop  offset="0" style="stop-color:#F5F7F6"/>
				<stop  offset="1" style="stop-color:#3B3B3B"/>
			</linearGradient>
			<path fill="url(#SVGID_30_)" d="M371.204,208.312v-12.631c0-2.936-2.38-5.316-5.316-5.316h-12.847v-0.003h-66.014v5.282
				c0,0.013-0.002,0.024-0.002,0.037v73.547c0,2.936,2.38,5.316,5.315,5.316h12.852v0.03h66.014v-66.263H371.204z"/>
			<linearGradient id="SVGID_31_" gradientUnits="userSpaceOnUse" x1="329.7158" y1="189.2705" x2="328.5231" y2="275.1477">
				<stop  offset="0" style="stop-color:#F5F7F6"/>
				<stop  offset="1" style="stop-color:#CCCCCC"/>
			</linearGradient>
			<path fill="url(#SVGID_31_)" d="M366.884,210.79v-11.334c0-2.635-2.136-4.771-4.771-4.771h-11.526v-0.003h-59.24v4.739
				c0,0.012-0.002,0.023-0.002,0.034v65.998c0,2.636,2.137,4.771,4.771,4.771h11.53v0.028h59.239V210.79H366.884z"/>
			<linearGradient id="SVGID_32_" gradientUnits="userSpaceOnUse" x1="329.2314" y1="226.0654" x2="328.5669" y2="263.2819">
				<stop  offset="0" style="stop-color:#DA1F26"/>
				<stop  offset="1" style="stop-color:#89181A"/>
			</linearGradient>
			<path fill="url(#SVGID_32_)" d="M365.861,211.377v-11.025c0-2.564-2.078-4.643-4.642-4.643h-11.216v-0.002H292.37v4.61
				c0,0.012-0.002,0.021-0.002,0.034v64.208c0,2.565,2.079,4.643,4.641,4.643h11.221v0.028h57.634v-57.854H365.861z"/>
			<path opacity="0.13" fill="#FFFFFF" d="M370.361,209.061h-0.002v-12.339c0-2.868-2.325-5.193-5.193-5.193h-12.552v-0.004h-64.491
				v5.159c0,0.014-0.002,0.026-0.002,0.038v49.935c24.434-13.035,52.14-19.376,82.24-16.081V209.061z"/>
		</g>
		<g>
			<g>
				<path fill="#84161A" d="M304.558,218.982l21.89-0.091c0,0,0,2.451,0.006,2.442c-6.333,0-6.333,0-6.333,0l9.5,13.481l9.047-8.505
					l-5.618-1.178l0.01-2.08l18.367-0.18c0,0-0.355,1.537-0.544,2.26c-0.453,0.092-6.243,1.087-6.243,1.087l-12.778,10.966
					l0.037,9.099h7.376l0.038,2.304l-21.724-0.021l0.023-2.282l5.677-0.019c0,0,0.813-0.865,0.994-1.045c0-7.962,0-7.962,0-7.962
					l-13.48-15.562l-6.248-0.019L304.558,218.982z"/>
				<path fill="#84161A" d="M351.203,226.185l5.607,1.331c0,0-8.467,13.666-8.825,14.404c-0.683,1.411-2.597,1.024-2.172-0.518
					C346.386,239.315,351.203,226.185,351.203,226.185z"/>
				<path fill="#84161A" d="M345.209,249.094c-0.062,0.133-0.195,0.203-0.3,0.155l-2.162-0.999
					c-0.104-0.048-0.137-0.194-0.075-0.329l0.843-2.481c0.062-0.134,0.194-0.205,0.3-0.156l2.677,1.236
					c0.105,0.048,0.139,0.195,0.077,0.33L345.209,249.094z"/>
			</g>
			<g>
				<linearGradient id="SVGID_33_" gradientUnits="userSpaceOnUse" x1="327.3691" y1="220.918" x2="326.0399" y2="263.4528">
					<stop  offset="0" style="stop-color:#F5F7F6"/>
					<stop  offset="1" style="stop-color:#A1A1A1"/>
				</linearGradient>
				<path fill="url(#SVGID_33_)" d="M303.92,219.508l21.889-0.09c0,0,0,2.451,0.007,2.442c-6.334,0-6.334,0-6.334,0l9.501,13.48
					l9.047-8.504l-5.619-1.178l0.01-2.08l18.367-0.181c0,0-0.355,1.537-0.544,2.262c-0.452,0.092-6.242,1.086-6.242,1.086
					l-12.779,10.965l0.037,9.1h7.377l0.037,2.304l-21.724-0.021l0.022-2.283l5.678-0.019c0,0,0.813-0.865,0.995-1.046
					c0-7.963,0-7.963,0-7.963l-13.482-15.562l-6.247-0.018L303.92,219.508z"/>
				<linearGradient id="SVGID_34_" gradientUnits="userSpaceOnUse" x1="352.4209" y1="227.9971" x2="343.1169" y2="265.2134">
					<stop  offset="0" style="stop-color:#F5F7F6"/>
					<stop  offset="1" style="stop-color:#A1A1A1"/>
				</linearGradient>
				<path fill="url(#SVGID_34_)" d="M350.564,226.711l5.607,1.33c0,0-8.466,13.666-8.824,14.406
					c-0.683,1.408-2.597,1.024-2.173-0.521C345.746,239.841,350.564,226.711,350.564,226.711z"/>
				<linearGradient id="SVGID_35_" gradientUnits="userSpaceOnUse" x1="349.166" y1="227.1729" x2="339.8576" y2="264.4065">
					<stop  offset="0" style="stop-color:#F5F7F6"/>
					<stop  offset="1" style="stop-color:#A1A1A1"/>
				</linearGradient>
				<path fill="url(#SVGID_35_)" d="M344.57,249.619c-0.062,0.134-0.196,0.203-0.3,0.157l-2.162-0.999
					c-0.104-0.048-0.138-0.195-0.075-0.33l0.842-2.481c0.062-0.135,0.195-0.204,0.301-0.159l2.678,1.238
					c0.104,0.049,0.139,0.195,0.077,0.33L344.57,249.619z"/>
			</g>
		</g>
	</g>
	<g>
		<g>
			<linearGradient id="SVGID_36_" gradientUnits="userSpaceOnUse" x1="330.2275" y1="89.2979" x2="328.8984" y2="184.9951">
				<stop  offset="0" style="stop-color:#F5F7F6"/>
				<stop  offset="1" style="stop-color:#3B3B3B"/>
			</linearGradient>
			<path fill="url(#SVGID_36_)" d="M371.646,113.278v-12.63c0-2.936-2.38-5.316-5.316-5.316h-12.846v-0.003H287.47v5.281
				c0,0.013-0.001,0.025-0.001,0.038v73.547c0,2.936,2.38,5.315,5.315,5.315h12.851v0.032h66.015v-66.264H371.646z"/>
			<linearGradient id="SVGID_37_" gradientUnits="userSpaceOnUse" x1="330.1592" y1="94.2383" x2="328.9665" y2="180.1138">
				<stop  offset="0" style="stop-color:#F5F7F6"/>
				<stop  offset="1" style="stop-color:#CCCCCC"/>
			</linearGradient>
			<path fill="url(#SVGID_37_)" d="M367.327,115.757v-11.334c0-2.635-2.136-4.771-4.771-4.771h-11.528v-0.003h-59.239v4.739
				c0,0.012-0.001,0.022-0.001,0.034v65.999c0,2.635,2.137,4.77,4.771,4.77h11.53v0.029h59.241v-59.464H367.327z"/>
			<linearGradient id="SVGID_38_" gradientUnits="userSpaceOnUse" x1="329.1426" y1="111.8789" x2="330.0284" y2="166.3741">
				<stop  offset="0" style="stop-color:#232B5F"/>
				<stop  offset="1" style="stop-color:#161A2E"/>
			</linearGradient>
			<path fill="url(#SVGID_38_)" d="M366.304,116.344v-11.026c0-2.564-2.078-4.642-4.641-4.642h-11.217v-0.003h-57.633v4.611
				c0,0.011-0.003,0.021-0.003,0.034v64.208c0,2.564,2.08,4.643,4.642,4.643h11.219v0.028h57.635v-57.853H366.304z"/>
			<path opacity="0.14" fill="#FFFFFF" d="M370.804,114.027h-0.002v-12.339c0-2.868-2.325-5.194-5.192-5.194h-12.552v-0.003h-64.491
				v5.159c0,0.013-0.003,0.024-0.003,0.038v49.935c24.435-13.036,52.14-19.376,82.24-16.082V114.027z"/>
		</g>
		<linearGradient id="SVGID_39_" gradientUnits="userSpaceOnUse" x1="330.2031" y1="117.0557" x2="328.7025" y2="166.5892">
			<stop  offset="0" style="stop-color:#F5F7F6"/>
			<stop  offset="1" style="stop-color:#A1A1A1"/>
		</linearGradient>
		<path fill="url(#SVGID_39_)" d="M329.559,112.942c-13.989,0-25.329,11.34-25.329,25.33c0,13.988,11.34,25.331,25.329,25.331
			s25.329-11.342,25.329-25.331C354.888,124.282,343.548,112.942,329.559,112.942z M329.559,162.101
			c-13.159,0-23.827-10.668-23.827-23.829c0-13.16,10.668-23.829,23.827-23.829c13.16,0,23.828,10.669,23.828,23.829
			C353.387,151.432,342.719,162.101,329.559,162.101z M307.793,138.272c0,7.985,4.303,14.961,10.714,18.749l-10.17-23.565
			C307.987,135.006,307.793,136.616,307.793,138.272z M324.327,150.726c0,0,4.013-9.779,4.573-11.539
			c-1.124-5.839-4.221-8.373-4.221-8.373h-1.83l-0.07-1.125l14.423,0.07v1.055c0,0,0,0-2.039,0c-1.479,0.352-1.125,1.76-1.125,1.76
			l6.905,18.031c1.924-5.147,5.147-10.42,3.296-18.031c-2.974-6.72,0.247-8.508,1.603-8.736c-3.985-4.494-9.804-7.329-16.282-7.329
			c-9.08,0-16.857,5.56-20.119,13.458l10.103-0.139c0,0,0.141,0.774,0,1.197c-2.955-0.141-3.166,1.125-2.955,1.899
			c0.352,0.915,2.814,7.528,4.996,13.438C323.837,152.202,324.327,150.726,324.327,150.726z M349.793,130.255
			c-0.022,0.666-0.078,1.364-0.207,1.684c-0.248,0.626-6.625,16.735-8.025,20.275l0.076,0.199l-2.061,5.179
			c6.979-3.626,11.747-10.914,11.747-19.32C351.323,135.44,350.776,132.737,349.793,130.255z M322.269,158.78
			c2.279,0.812,4.733,1.255,7.291,1.255c2.502,0,4.902-0.428,7.14-1.205l-7.023-16.83L322.269,158.78z"/>
	</g>
	<g>
		<linearGradient id="SVGID_40_" gradientUnits="userSpaceOnUse" x1="42.7598" y1="184.4971" x2="41.4307" y2="280.1949">
			<stop  offset="0" style="stop-color:#F5F7F6"/>
			<stop  offset="1" style="stop-color:#3B3B3B"/>
		</linearGradient>
		<path fill="url(#SVGID_40_)" d="M84.179,208.478v-12.63c0-2.938-2.381-5.317-5.316-5.317H66.016v-0.003H0.002v5.281
			c0,0.015-0.002,0.024-0.002,0.039v73.547c0,2.935,2.381,5.315,5.317,5.315h12.85v0.031h66.014v-66.264H84.179z"/>
		<linearGradient id="SVGID_41_" gradientUnits="userSpaceOnUse" x1="42.6919" y1="189.4365" x2="41.4992" y2="275.3137">
			<stop  offset="0" style="stop-color:#F5F7F6"/>
			<stop  offset="1" style="stop-color:#CCCCCC"/>
		</linearGradient>
		<path fill="url(#SVGID_41_)" d="M79.859,210.956v-11.333c0-2.635-2.136-4.771-4.771-4.771H63.561v-0.003H4.322v4.739
			c0,0.012-0.002,0.023-0.002,0.035v65.997c0,2.635,2.136,4.771,4.771,4.771h11.532v0.029h59.239v-59.465H79.859z"/>
		<linearGradient id="SVGID_42_" gradientUnits="userSpaceOnUse" x1="42.0903" y1="223.832" x2="42.0903" y2="259.2768">
			<stop  offset="0" style="stop-color:#F5F7F6"/>
			<stop  offset="1" style="stop-color:#A1A1A1"/>
		</linearGradient>
		<path fill="url(#SVGID_42_)" d="M78.836,211.543v-11.025c0-2.564-2.078-4.643-4.642-4.643H62.979v-0.003H5.345v4.611
			c0,0.011-0.002,0.022-0.002,0.034v64.209c0,2.564,2.078,4.643,4.641,4.643h11.219v0.027h57.635v-57.854H78.836z"/>
		<path opacity="0.2" fill="#FFFFFF" d="M83.336,209.226h-0.001v-12.338c0-2.868-2.326-5.192-5.194-5.192H65.589v-0.004H1.098v5.159
			c0,0.013-0.002,0.024-0.002,0.037v49.935c24.434-13.035,52.139-19.376,82.24-16.081V209.226z"/>
		<g>
			<path fill="#1A1A1A" d="M64.898,226.63c-2.138-1.445-4.867-1.255-6.533,0.325c-4.114-2.52-9.806-4.093-15.935-4.176
				c-0.02-1.047,0-5.136,0-7.616c0-1.939,0.608-3.173,3.05-3.173c4.087,0.49,7.811,1.66,9.43,1.925
				c-0.028,0.207-0.007,0.521-0.007,0.736c0,2.516,2.038,4.554,4.554,4.554c2.515,0,4.554-2.038,4.554-4.554
				c0-2.515-2.039-4.554-4.554-4.554c-1.694,0-3.396,1.1-4.19,2.687c-1.825-0.335-4.482-1.027-8.023-1.651
				c-5.187-0.916-5.974,1.314-5.974,3.385c0,1.722,0.029,7.143-0.005,8.271c-5.656,0.167-11.088,1.604-15.01,3.873
				c-1.679-1.305-4.191-1.383-6.188-0.032c-2.439,1.651-3.185,4.81-1.667,7.054c0.208,0.307,0.45,0.578,0.715,0.818
				c-0.361,1.041-0.556,2.12-0.556,3.23c0,8.264,10.526,14.961,23.511,14.961c12.983,0,23.51-6.697,23.51-14.961
				c0-0.932-0.14-1.841-0.397-2.726c0.538-0.333,1.011-0.774,1.383-1.323C68.083,231.439,67.337,228.281,64.898,226.63z"/>
			<linearGradient id="SVGID_43_" gradientUnits="userSpaceOnUse" x1="42.7261" y1="231.4082" x2="40.5541" y2="253.8104">
				<stop  offset="0" style="stop-color:#F5F7F6"/>
				<stop  offset="0.2641" style="stop-color:#F2F4F3"/>
				<stop  offset="0.467" style="stop-color:#E9EAE9"/>
				<stop  offset="0.6494" style="stop-color:#D9DAD9"/>
				<stop  offset="0.8198" style="stop-color:#C2C3C2"/>
				<stop  offset="0.9804" style="stop-color:#A5A5A5"/>
				<stop  offset="1" style="stop-color:#A1A1A1"/>
			</linearGradient>
			<ellipse fill="url(#SVGID_43_)" cx="42.116" cy="237.682" rx="22.547" ry="14.168"/>
			<linearGradient id="SVGID_44_" gradientUnits="userSpaceOnUse" x1="62.626" y1="228.2012" x2="63.1687" y2="234.5823">
				<stop  offset="0" style="stop-color:#F5F7F6"/>
				<stop  offset="0.2641" style="stop-color:#F2F4F3"/>
				<stop  offset="0.467" style="stop-color:#E9EAE9"/>
				<stop  offset="0.6494" style="stop-color:#D9DAD9"/>
				<stop  offset="0.8198" style="stop-color:#C2C3C2"/>
				<stop  offset="0.9804" style="stop-color:#A5A5A5"/>
				<stop  offset="1" style="stop-color:#A1A1A1"/>
			</linearGradient>
			<path fill="url(#SVGID_44_)" d="M58.838,227.331c1.508-1.195,3.9-1.285,5.625-0.12c2.104,1.425,2.748,4.149,1.438,6.086
				c-0.179,0.264-0.698,0.761-0.927,0.968C62.94,229.064,58.554,227.166,58.838,227.331z"/>
			<path fill="#F7F8F7" d="M26.725,226.75"/>
			<linearGradient id="SVGID_45_" gradientUnits="userSpaceOnUse" x1="22.1748" y1="227.9639" x2="20.4097" y2="235.1593">
				<stop  offset="0" style="stop-color:#F5F7F6"/>
				<stop  offset="0.2641" style="stop-color:#F2F4F3"/>
				<stop  offset="0.467" style="stop-color:#E9EAE9"/>
				<stop  offset="0.6494" style="stop-color:#D9DAD9"/>
				<stop  offset="0.8198" style="stop-color:#C2C3C2"/>
				<stop  offset="0.9804" style="stop-color:#A5A5A5"/>
				<stop  offset="1" style="stop-color:#A1A1A1"/>
			</linearGradient>
			<path fill="url(#SVGID_45_)" d="M19.508,233.791c0.989-2.609,3.12-4.939,6.05-6.768c-1.438-0.926-3.43-0.927-5.045,0.163
				c-2.104,1.425-2.748,4.149-1.438,6.085C19.205,233.461,19.353,233.631,19.508,233.791z"/>
			<radialGradient id="SVGID_46_" cx="59.4546" cy="214.668" r="5.8046" gradientUnits="userSpaceOnUse">
				<stop  offset="0" style="stop-color:#FFFFFF"/>
				<stop  offset="0.282" style="stop-color:#F0F0F0"/>
				<stop  offset="0.8238" style="stop-color:#C8C8C8"/>
				<stop  offset="1" style="stop-color:#BABABA"/>
			</radialGradient>
			<circle fill="url(#SVGID_46_)" cx="59.486" cy="214.654" r="3.833"/>
			<g>
				<circle fill="#D85427" cx="34.206" cy="234.992" r="3.094"/>
				<circle fill="#D85427" cx="49.552" cy="234.992" r="3.094"/>
			</g>
			<path fill="#1A1A1A" d="M42.337,248.244c5.143-0.123,9.212-2.521,9.921-2.99c0.027-0.357-0.182-0.722-0.921-0.693
				c-0.1,0.098-3.993,2.638-9.012,2.758c-5.132-0.045-9.144-2.663-9.246-2.762c-0.739-0.028-0.948,0.337-0.92,0.694
				C32.881,245.729,37.076,248.197,42.337,248.244z"/>
		</g>
	</g>
	<g>
		<g>
			<linearGradient id="SVGID_47_" gradientUnits="userSpaceOnUse" x1="425.1514" y1="89.9619" x2="423.8223" y2="185.6598">
				<stop  offset="0" style="stop-color:#F5F7F6"/>
				<stop  offset="1" style="stop-color:#3B3B3B"/>
			</linearGradient>
			<path fill="url(#SVGID_47_)" d="M466.571,113.942v-12.63c0-2.937-2.381-5.317-5.316-5.317h-12.847v-0.003h-66.015v5.281
				c0,0.013-0.002,0.025-0.002,0.039v73.546c0,2.936,2.381,5.316,5.317,5.316h12.851v0.031h66.014v-66.264H466.571z"/>
			<linearGradient id="SVGID_48_" gradientUnits="userSpaceOnUse" x1="425.084" y1="94.9028" x2="423.8913" y2="180.7789">
				<stop  offset="0" style="stop-color:#F5F7F6"/>
				<stop  offset="1" style="stop-color:#CCCCCC"/>
			</linearGradient>
			<path fill="url(#SVGID_48_)" d="M462.252,116.421v-11.334c0-2.634-2.136-4.771-4.771-4.771h-11.528v-0.003h-59.239v4.739
				c0,0.011-0.002,0.022-0.002,0.034v65.999c0,2.635,2.137,4.771,4.771,4.771h11.531v0.029h59.24v-59.464H462.252z"/>
			<linearGradient id="SVGID_49_" gradientUnits="userSpaceOnUse" x1="424.71" y1="124.062" x2="423.8235" y2="179.0108">
				<stop  offset="0" style="stop-color:#CE5D9B"/>
				<stop  offset="0.2338" style="stop-color:#A6488C"/>
				<stop  offset="0.472" style="stop-color:#883981"/>
				<stop  offset="0.6876" style="stop-color:#742F7A"/>
				<stop  offset="0.8709" style="stop-color:#672A77"/>
				<stop  offset="1" style="stop-color:#632975"/>
			</linearGradient>
			<path fill="url(#SVGID_49_)" d="M461.228,117.009v-11.026c0-2.564-2.077-4.642-4.641-4.642h-11.216v-0.003h-57.634v4.611
				c0,0.01-0.002,0.022-0.002,0.034v64.209c0,2.564,2.079,4.643,4.642,4.643h11.22v0.027h57.633v-57.853H461.228z"/>
			<path opacity="0.1" fill="#FFFFFF" d="M465.729,114.691h-0.002v-12.338c0-2.868-2.325-5.193-5.193-5.193h-12.552v-0.003h-64.49
				v5.159c0,0.013-0.002,0.025-0.002,0.038v49.935c24.434-13.036,52.138-19.376,82.239-16.082V114.691z"/>
		</g>
		<g>
			<path fill="#893F76" d="M440.118,122.973c-0.427-0.599-4.532-5.902-13.599-5.902s-16.765,7.271-16.765,18.731
				c0,11.462,9.665,22.58,21.64,22.58c3.423,0,6.757-0.855,8.212-1.625v-9.665l-8.726-0.085l4.021-2.566l14.027,0.085l-2.31,2.395
				v10.949c0,0-5.903,3.249-18.304,3.249c-12.403,0-25.317-5.645-25.317-23.093c0-17.448,15.652-23.35,24.719-23.35
				c9.065,0,17.277,3.678,18.646,5.046c0,0.257-4.705,4.705-5.646,5.474c-0.084,0-1.88-0.085-1.88-0.085
				C440.033,123.23,440.118,122.973,440.118,122.973z"/>
			<path fill="#662C56" d="M434.902,144.442l-4.021,2.566l8.725,0.085v9.665c-1.454,0.77-4.789,1.625-8.212,1.625
				c-9.937,0-18.275-7.656-20.827-16.812c-0.799,0.179-1.619,0.299-2.449,0.379c-1.499,0.533-3.073,0.898-4.7,1.062
				c2.253,13.54,13.771,18.107,24.898,18.107c12.401,0,18.304-3.249,18.304-3.249v-10.949l2.31-2.395L434.902,144.442z"/>
			<linearGradient id="SVGID_50_" gradientUnits="userSpaceOnUse" x1="423.4902" y1="122.2393" x2="426.5694" y2="163.8076">
				<stop  offset="0" style="stop-color:#F5F7F6"/>
				<stop  offset="1" style="stop-color:#A1A1A1"/>
			</linearGradient>
			<path fill="url(#SVGID_50_)" d="M439.115,123.169c-0.427-0.598-4.533-5.902-13.599-5.902c-9.066,0-16.765,7.271-16.765,18.731
				c0,11.463,9.664,22.581,21.64,22.581c3.422,0,6.757-0.855,8.211-1.625v-9.666l-8.725-0.085l4.02-2.566l14.028,0.085l-2.309,2.396
				v10.948c0,0-5.903,3.25-18.304,3.25c-12.403,0-25.317-5.646-25.317-23.093c0-17.449,15.652-23.351,24.718-23.351
				c9.066,0,17.278,3.677,18.646,5.045c0,0.257-4.704,4.706-5.646,5.475c-0.086,0-1.88-0.086-1.88-0.086
				C439.031,123.426,439.115,123.169,439.115,123.169z"/>
		</g>
	</g>
	<g>
		<g>
			<linearGradient id="SVGID_51_" gradientUnits="userSpaceOnUse" x1="234.1411" y1="185.2173" x2="232.812" y2="280.9151">
				<stop  offset="0" style="stop-color:#F5F7F6"/>
				<stop  offset="1" style="stop-color:#3B3B3B"/>
			</linearGradient>
			<path fill="url(#SVGID_51_)" d="M275.56,209.197v-12.63c0-2.936-2.381-5.316-5.316-5.316h-12.847v-0.004h-66.015v5.282
				c0,0.013-0.001,0.024-0.001,0.038v73.545c0,2.937,2.381,5.317,5.317,5.317h12.85v0.032h66.015v-66.265H275.56z"/>
			<linearGradient id="SVGID_52_" gradientUnits="userSpaceOnUse" x1="234.0718" y1="190.1582" x2="232.8791" y2="276.0332">
				<stop  offset="0" style="stop-color:#F5F7F6"/>
				<stop  offset="1" style="stop-color:#CCCCCC"/>
			</linearGradient>
			<path fill="url(#SVGID_52_)" d="M271.24,211.676v-11.333c0-2.635-2.136-4.771-4.771-4.771H254.94v-0.003h-59.238v4.739
				c0,0.012-0.001,0.022-0.001,0.034v65.998c0,2.635,2.136,4.77,4.77,4.77h11.531v0.029h59.24v-59.464H271.24z"/>
			<linearGradient id="SVGID_53_" gradientUnits="userSpaceOnUse" x1="233.4702" y1="198.4121" x2="233.4702" y2="269.521">
				<stop  offset="0" style="stop-color:#08773D"/>
				<stop  offset="1" style="stop-color:#193F6E"/>
			</linearGradient>
			<path fill="url(#SVGID_53_)" d="M270.218,212.264v-11.026c0-2.563-2.079-4.642-4.643-4.642h-11.216v-0.003h-57.633v4.611
				c0,0.011-0.003,0.021-0.003,0.033v64.21c0,2.563,2.079,4.641,4.642,4.641h11.218v0.027h57.634V212.264L270.218,212.264z"/>
			<path opacity="0.18" fill="#FFFFFF" d="M274.717,209.946h-0.002v-12.338c0-2.868-2.325-5.194-5.193-5.194h-12.553v-0.003h-64.49
				v5.159c0,0.014-0.002,0.025-0.002,0.038v49.934c24.435-13.036,52.138-19.375,82.24-16.081V209.946z"/>
		</g>
		<path fill="#01504B" d="M228.266,237.718c0-0.966-0.087-2.368-2.457-2.368c-7.017,0-9.386-1.317-9.386-6.492
			s4.912-7.018,6.052-7.018c1.141,0,8.51,0,15.177,0s5.878,6.93,5.878,15.001c0,2.719,0.614,3.947,2.895,3.947
			s3.071-1.755,3.071-3.947c0-2.066-0.079-19.622-0.015-23.556c-4.062-2.854-9.007-4.534-14.348-4.534
			c-13.806,0-24.998,11.191-24.998,24.998c0,2.13,0.268,4.199,0.77,6.174c4.451,0.023,12.907,0.076,14.729,0.076
			C228.002,239.999,228.266,238.683,228.266,237.718z M254.671,218.165c0,6.61,0,18.45,0,19.991c0,2.105-0.877,7.105-8.51,7.105
			c-7.632,0-8.245-5.702-8.245-6.667s0-5.526,0-8.947s-2.105-2.721-12.106-2.721c-2.28,0-3.772,0.353-3.772,1.58
			c0,1.229-0.088,2.018,3.86,2.018c3.947,0,7.193,1.404,7.193,6.666c0,5.264-3.07,7.809-5.088,7.809
			c-1.492,0-10.517,0.096-15.115,0.146c4.144,8.073,12.546,13.601,22.247,13.601c13.805,0,24.995-11.191,24.995-24.996
			C260.129,227.854,258.085,222.44,254.671,218.165z"/>
		<linearGradient id="SVGID_54_" gradientUnits="userSpaceOnUse" x1="233.2422" y1="221.8936" x2="235.8655" y2="258.6205">
			<stop  offset="0" style="stop-color:#F5F7F6"/>
			<stop  offset="1" style="stop-color:#A1A1A1"/>
		</linearGradient>
		<path fill="url(#SVGID_54_)" d="M227.27,238.382c0-0.965-0.088-2.369-2.457-2.369c-7.018,0-9.386-1.315-9.386-6.491
			c0-5.175,4.912-7.017,6.052-7.017c1.141,0,8.511,0,15.176,0c6.667,0,5.878,6.93,5.878,15c0,2.72,0.614,3.947,2.896,3.947
			c2.279,0,3.069-1.754,3.069-3.947c0-2.065-0.078-19.621-0.013-23.556c-4.062-2.854-9.008-4.533-14.35-4.533
			c-13.805,0-24.997,11.191-24.997,24.997c0,2.131,0.268,4.199,0.77,6.175c4.45,0.023,12.907,0.075,14.729,0.075
			C227.006,240.663,227.27,239.348,227.27,238.382z M253.674,218.83c0,6.61,0,18.449,0,19.991c0,2.104-0.877,7.105-8.509,7.105
			s-8.246-5.702-8.246-6.667c0-0.966,0-5.527,0-8.948s-2.105-2.72-12.106-2.72c-2.28,0-3.771,0.353-3.771,1.579
			c0,1.229-0.088,2.018,3.859,2.018c3.947,0,7.194,1.404,7.194,6.667c0,5.264-3.07,7.809-5.089,7.809
			c-1.492,0-10.517,0.096-15.116,0.145c4.144,8.074,12.547,13.602,22.246,13.602c13.806,0,24.997-11.191,24.997-24.997
			C259.133,228.519,257.088,223.104,253.674,218.83z"/>
	</g>
	<g>
		<g>
			<linearGradient id="SVGID_55_" gradientUnits="userSpaceOnUse" x1="233.9204" y1="90.3491" x2="232.5913" y2="186.047">
				<stop  offset="0" style="stop-color:#F5F7F6"/>
				<stop  offset="1" style="stop-color:#3B3B3B"/>
			</linearGradient>
			<path fill="url(#SVGID_55_)" d="M275.34,114.329v-12.63c0-2.936-2.381-5.316-5.316-5.316h-12.847v-0.003h-66.014v5.282
				c0,0.013-0.002,0.025-0.002,0.038v73.546c0,2.937,2.381,5.316,5.317,5.316h12.85v0.031h66.014v-66.264H275.34z"/>
			<linearGradient id="SVGID_56_" gradientUnits="userSpaceOnUse" x1="233.8516" y1="95.2886" x2="232.6589" y2="181.1652">
				<stop  offset="0" style="stop-color:#F5F7F6"/>
				<stop  offset="1" style="stop-color:#CCCCCC"/>
			</linearGradient>
			<path fill="url(#SVGID_56_)" d="M271.021,116.808v-11.334c0-2.634-2.136-4.771-4.771-4.771h-11.527v-0.002h-59.239v4.739
				c0,0.012-0.002,0.023-0.002,0.035v65.998c0,2.635,2.136,4.771,4.771,4.771h11.532v0.029h59.238L271.021,116.808L271.021,116.808z
				"/>
			<linearGradient id="SVGID_57_" gradientUnits="userSpaceOnUse" x1="233.2505" y1="129.6841" x2="233.2505" y2="165.1283">
				<stop  offset="0" style="stop-color:#DDDFDF"/>
				<stop  offset="1" style="stop-color:#787878"/>
			</linearGradient>
			<path fill="url(#SVGID_57_)" d="M269.996,117.396v-11.026c0-2.563-2.077-4.642-4.641-4.642H254.14v-0.002h-57.634v4.61
				c0,0.012-0.002,0.022-0.002,0.034v64.209c0,2.564,2.079,4.643,4.641,4.643h11.219v0.027h57.634v-57.853H269.996z"/>
			<path opacity="0.2" fill="#FFFFFF" d="M274.497,115.079h-0.002V102.74c0-2.869-2.325-5.194-5.193-5.194H256.75v-0.003h-64.491
				v5.16c0,0.013-0.002,0.025-0.002,0.038v49.934c24.434-13.036,52.139-19.375,82.24-16.082V115.079z"/>
		</g>
		<g>
			<g>
				<path fill="#383838" stroke="#383838" stroke-width="1.1484" stroke-linecap="round" stroke-linejoin="round" d="
					M234.294,133.579h15.887c0.315,0,0.573-0.257,0.573-0.574v-16.459c0-0.318-0.258-0.574-0.573-0.574h-15.887
					c-0.318,0-0.575,0.256-0.575,0.574v16.459C233.719,133.322,233.976,133.579,234.294,133.579z"/>
				<path fill="#383838" stroke="#383838" stroke-width="1.1484" stroke-linecap="round" stroke-linejoin="round" d="
					M257.931,128.03h-4.977c-0.317,0-0.575,0.256-0.575,0.574v5.176c0,1.045-0.615,1.463-1.119,1.617h-17.447
					c-0.017,0-0.029-0.005-0.048-0.005c-1.268,0-1.654-0.563-1.768-0.986v-5.801c0-0.317-0.257-0.574-0.575-0.574h-2.2
					c-0.318,0-0.576,0.256-0.576,0.574v10.431c0,0.318,0.258,0.574,0.576,0.574h2.584v6.492c-0.009,0.038-0.023,0.073-0.023,0.111
					v16.46c0,0.318,0.257,0.573,0.575,0.573h9.569c0.316,0,0.574-0.255,0.574-0.573v-14.165h2.415v14.165
					c0,0.318,0.258,0.573,0.576,0.573h6.507c0.317,0,0.575-0.255,0.575-0.573v-16.46c0-0.004-0.003-0.007-0.003-0.012v-6.592
					c0.129,0,0.248,0,0.383,0h4.977c0.317,0,0.574-0.256,0.574-0.574v-10.431C258.505,128.286,258.248,128.03,257.931,128.03z"/>
				<path fill="#383838" stroke="#383838" stroke-width="1.1484" stroke-linecap="round" stroke-linejoin="round" d="
					M227.309,130.031c-0.715-5.021-5.475-5.35-8.423-5.35c-3.593,0-7.687,0.37-8.169,5.649c-0.022-0.001-0.061,11.098-0.061,11.098
					c0,0.318,0.257,0.574,0.573,0.574h6.795v13.995c-2.459,0.321-4.307,1.677-4.307,3.303c0,1.864,2.427,3.374,5.419,3.374
					s5.419-1.51,5.419-3.374c0-1.704-2.031-3.109-4.666-3.337v-13.96h6.938c0.317,0,0.574-0.256,0.574-0.574
					C227.403,141.428,227.363,130.119,227.309,130.031z"/>
			</g>
			<g>
				<linearGradient id="SVGID_58_" gradientUnits="userSpaceOnUse" x1="240.4395" y1="118.3218" x2="243.7623" y2="130.284">
					<stop  offset="0" style="stop-color:#E8E7E8"/>
					<stop  offset="1" style="stop-color:#FFFFFF"/>
				</linearGradient>
				<path fill="url(#SVGID_58_)" d="M234.292,133.594h15.887c0.317,0,0.574-0.257,0.574-0.574v-16.46
					c0-0.317-0.257-0.574-0.574-0.574h-15.887c-0.317,0-0.573,0.256-0.573,0.574v16.46
					C233.719,133.337,233.975,133.594,234.292,133.594z"/>
				<linearGradient id="SVGID_59_" gradientUnits="userSpaceOnUse" x1="242.083" y1="142.187" x2="239.212" y2="158.2648">
					<stop  offset="0" style="stop-color:#E8E7E8"/>
					<stop  offset="1" style="stop-color:#FFFFFF"/>
				</linearGradient>
				<path fill="url(#SVGID_59_)" d="M257.93,128.044h-4.976c-0.318,0-0.575,0.257-0.575,0.573v5.177c0,1.044-0.617,1.462-1.12,1.616
					h-17.446c-0.018,0-0.03-0.005-0.049-0.005c-1.269,0-1.655-0.563-1.768-0.986v-5.801c0-0.316-0.257-0.573-0.575-0.573h-2.201
					c-0.316,0-0.574,0.257-0.574,0.573v10.431c0,0.317,0.257,0.575,0.574,0.575h2.584v6.492c-0.007,0.037-0.022,0.072-0.022,0.11
					v16.459c0,0.318,0.257,0.576,0.575,0.576h9.569c0.316,0,0.574-0.258,0.574-0.576v-14.163h2.416v14.163
					c0,0.318,0.257,0.576,0.574,0.576h6.508c0.317,0,0.574-0.258,0.574-0.576v-16.459c0-0.003-0.003-0.007-0.003-0.011v-6.592
					c0.129,0.001,0.249,0.001,0.385,0.001h4.976c0.317,0,0.574-0.258,0.574-0.575v-10.431
					C258.504,128.301,258.247,128.044,257.93,128.044z"/>
				<linearGradient id="SVGID_60_" gradientUnits="userSpaceOnUse" x1="219.0288" y1="133.4502" x2="219.0288" y2="140.7605">
					<stop  offset="0" style="stop-color:#E8E7E8"/>
					<stop  offset="1" style="stop-color:#FFFFFF"/>
				</linearGradient>
				<path fill="url(#SVGID_60_)" d="M227.308,130.046c-0.715-5.021-5.475-5.351-8.423-5.351c-3.592,0-7.687,0.37-8.169,5.649
					c-0.022-0.001-0.061,11.1-0.061,11.1c0,0.316,0.257,0.573,0.575,0.573h6.793v13.996c-2.458,0.319-4.307,1.676-4.307,3.301
					c0,1.863,2.427,3.374,5.419,3.374c2.993,0,5.419-1.511,5.419-3.374c0-1.703-2.031-3.107-4.666-3.337v-13.959h6.939
					c0.316,0,0.574-0.257,0.574-0.573C227.402,141.444,227.362,130.133,227.308,130.046z"/>
			</g>
		</g>
	</g>
	<g>
		<linearGradient id="SVGID_61_" gradientUnits="userSpaceOnUse" x1="138.0923" y1="185.0063" x2="136.7632" y2="280.702">
			<stop  offset="0" style="stop-color:#F5F7F6"/>
			<stop  offset="1" style="stop-color:#3B3B3B"/>
		</linearGradient>
		<path fill="url(#SVGID_61_)" d="M179.513,208.984v-12.631c0-2.935-2.381-5.314-5.317-5.314H161.35v-0.004H95.335v5.281
			c0,0.013-0.001,0.025-0.001,0.037V269.9c0,2.937,2.381,5.316,5.317,5.316h12.85v0.032h66.014v-66.265H179.513z"/>
		<linearGradient id="SVGID_62_" gradientUnits="userSpaceOnUse" x1="138.0259" y1="189.9453" x2="136.8332" y2="275.8203">
			<stop  offset="0" style="stop-color:#F5F7F6"/>
			<stop  offset="1" style="stop-color:#CCCCCC"/>
		</linearGradient>
		<path fill="url(#SVGID_62_)" d="M175.193,211.464v-11.333c0-2.636-2.135-4.771-4.77-4.771h-11.529v-0.003H99.655v4.739
			c0,0.012-0.001,0.022-0.001,0.035v65.997c0,2.635,2.136,4.77,4.77,4.77h11.532v0.029h59.241v-59.463H175.193z"/>
		<linearGradient id="SVGID_63_" gradientUnits="userSpaceOnUse" x1="138.8384" y1="261.4248" x2="136.8454" y2="221.5531">
			<stop  offset="0" style="stop-color:#0F4470"/>
			<stop  offset="1" style="stop-color:#0779A9"/>
		</linearGradient>
		<path fill="url(#SVGID_63_)" d="M174.17,212.052v-11.027c0-2.562-2.079-4.641-4.642-4.641h-11.216v-0.003h-57.633v4.61
			c0,0.011-0.003,0.021-0.003,0.033v64.209c0,2.563,2.08,4.643,4.642,4.643h11.219v0.026h57.635v-57.851H174.17z"/>
		<g>
			<path fill="#272626" d="M143.531,237.953c-0.094,0.092-0.187-0.841,0.839-0.653c0.84,0,6.25,0.465,10.355-4.852
				c-4.384-7.651-4.384-7.651-4.384-7.651s-6.997,4.759-8.303,1.772c-0.001-0.003-0.003-0.007-0.005-0.011
				c4.271-0.769,7.515-4.497,7.515-8.989c0-5.049-4.093-9.143-9.143-9.143c-5.049,0-9.142,4.094-9.142,9.143
				c0,2.129,0.735,4.083,1.956,5.636c-1.246,1.325-5.641,5.23-5.641,18.012c-3.826,6.157-10.201,5.784-11.786,5.784
				c0,0,2.923,8.489,4.042,10.822c0.747,0.092,8.413-0.026,16.996-10.753c0.654,0.093,4.275,0.77,10.246,9.26
				c9.516-5.224,9.516-5.224,9.516-5.224S154.259,244.949,143.531,237.953z"/>
			<circle fill="#AFD7E6" cx="140.452" cy="217.429" r="6.53"/>
			<path fill="#AFD7E6" d="M135.743,224.704c0,0-6.252,4.852-5.225,16.42c0.094,0.465-2.518,6.81-10.729,7.557
				c1.867,5.783,1.867,5.783,1.867,5.783s9.608-2.144,13.713-11.288c0-0.094,7.464,1.68,13.154,9.235
				c4.294-2.63,4.201-2.724,4.201-2.724s-4.202-6.698-14.65-12.388c1.306-2.986,1.306-2.986,1.306-2.986s8.482,2.752,12.501-2.146
				c-2.612-3.638-2.612-3.638-2.612-3.638s-8.303,4.478-9.329-1.866C139.848,226.569,135.743,224.704,135.743,224.704z"/>
		</g>
		<path opacity="0.17" fill="#FFFFFF" d="M179.355,210.42h-0.003v-12.34c0-2.867-2.324-5.192-5.193-5.192h-12.551v-0.004H97.118
			v5.159c0,0.014-0.003,0.025-0.003,0.037v49.937c24.435-13.036,52.139-19.378,82.241-16.084V210.42z"/>
	</g>
	<g>
		<g>
			<linearGradient id="SVGID_64_" gradientUnits="userSpaceOnUse" x1="42.7588" y1="279.5312" x2="41.4297" y2="375.2296">
				<stop  offset="0" style="stop-color:#F5F7F6"/>
				<stop  offset="1" style="stop-color:#3B3B3B"/>
			</linearGradient>
			<path fill="url(#SVGID_64_)" d="M84.179,303.511V290.88c0-2.936-2.381-5.315-5.317-5.315H66.016v-0.003H0.001v5.281
				c0,0.014-0.001,0.024-0.001,0.037v73.547c0,2.937,2.381,5.316,5.317,5.316h12.85v0.032h66.014v-66.265H84.179z"/>
			<linearGradient id="SVGID_65_" gradientUnits="userSpaceOnUse" x1="42.6914" y1="284.4707" x2="41.4987" y2="370.3473">
				<stop  offset="0" style="stop-color:#F5F7F6"/>
				<stop  offset="1" style="stop-color:#CCCCCC"/>
			</linearGradient>
			<path fill="url(#SVGID_65_)" d="M79.858,305.99v-11.334c0-2.635-2.135-4.771-4.77-4.771H63.56v-0.002H4.321v4.738
				c0,0.013-0.001,0.023-0.001,0.035v65.997c0,2.635,2.136,4.772,4.77,4.772h11.531v0.028h59.24V305.99H79.858z"/>
			<linearGradient id="SVGID_66_" gradientUnits="userSpaceOnUse" x1="47.3247" y1="312.5107" x2="28.052" y2="368.3351">
				<stop  offset="0" style="stop-color:#08773D"/>
				<stop  offset="1" style="stop-color:#161A2E"/>
			</linearGradient>
			<path fill="url(#SVGID_66_)" d="M78.836,306.577v-11.026c0-2.563-2.078-4.642-4.642-4.642H62.979v-0.003H5.345v4.611
				c0,0.011-0.003,0.021-0.003,0.033v64.209c0,2.564,2.079,4.643,4.642,4.643h11.219v0.027h57.635v-57.853H78.836z"/>
			<path opacity="0.08" fill="#FFFFFF" d="M83.336,304.26h-0.002v-12.338c0-2.869-2.325-5.193-5.193-5.193H65.589v-0.004H1.098
				v5.159c0,0.014-0.003,0.024-0.003,0.038v49.935c24.435-13.036,52.14-19.377,82.241-16.081V304.26z"/>
		</g>
		<g>
			<g>
				<circle fill="#104250" cx="26.842" cy="308.952" r="4.999"/>
				<path fill="#104250" d="M31.269,317.093h-8.854c-0.316,0-0.572,0.257-0.572,0.572v28.851c0,0.316,0.255,0.572,0.572,0.572h8.854
					c0.316,0,0.572-0.256,0.572-0.572v-28.851C31.841,317.35,31.585,317.093,31.269,317.093z"/>
				<path fill="#104250" d="M66.523,324.234c-0.645-2.412-3.225-7.57-10.401-7.57c-4.304,0-7.281,2.085-8.855,3.784v-2.783
					c0-0.315-0.255-0.572-0.572-0.572h-8.855c-0.315,0-0.571,0.257-0.571,0.572v28.851c0,0.316,0.255,0.572,0.571,0.572h8.855
					c0.316,0,0.572-0.256,0.572-0.572V328.9c0.024-1.809,1.643-4.38,4.714-4.38c4.285,0,4.57,2.569,4.57,5.714v16.281
					c0,0.316,0.256,0.572,0.572,0.572h8.855c0.316,0,0.572-0.256,0.572-0.572v-20.347C66.561,324.212,66.523,324.234,66.523,324.234
					z"/>
			</g>
			<g>
				<linearGradient id="SVGID_67_" gradientUnits="userSpaceOnUse" x1="25.5864" y1="314.5322" x2="26.0233" y2="308.4182">
					<stop  offset="0.0055" style="stop-color:#C2C2C4"/>
					<stop  offset="1" style="stop-color:#FFFFFF"/>
				</linearGradient>
				<circle fill="url(#SVGID_67_)" cx="25.937" cy="309.631" r="4.999"/>
				<linearGradient id="SVGID_68_" gradientUnits="userSpaceOnUse" x1="25.5049" y1="341.1807" x2="26.3787" y2="324.1497">
					<stop  offset="0.0055" style="stop-color:#C2C2C4"/>
					<stop  offset="1" style="stop-color:#FFFFFF"/>
				</linearGradient>
				<path fill="url(#SVGID_68_)" d="M30.363,317.772h-8.854c-0.316,0-0.572,0.256-0.572,0.572v28.851
					c0,0.317,0.256,0.571,0.572,0.571h8.854c0.316,0,0.572-0.254,0.572-0.571v-28.851C30.936,318.028,30.68,317.772,30.363,317.772z
					"/>
				<linearGradient id="SVGID_69_" gradientUnits="userSpaceOnUse" x1="50.6621" y1="343.9971" x2="51.099" y2="329.5872">
					<stop  offset="0.0055" style="stop-color:#B4B5B8"/>
					<stop  offset="1" style="stop-color:#FFFFFF"/>
				</linearGradient>
				<path fill="url(#SVGID_69_)" d="M65.617,324.913c-0.646-2.413-3.225-7.568-10.4-7.568c-4.305,0-7.281,2.084-8.856,3.784v-2.784
					c0-0.316-0.255-0.572-0.572-0.572h-8.855c-0.316,0-0.571,0.256-0.571,0.572v28.851c0,0.317,0.255,0.571,0.571,0.571h8.855
					c0.316,0,0.572-0.254,0.572-0.571v-17.617c0.025-1.806,1.643-4.377,4.714-4.377c4.284,0,4.571,2.569,4.571,5.712v16.282
					c0,0.317,0.255,0.571,0.571,0.571h8.855c0.316,0,0.571-0.254,0.571-0.571v-20.348C65.654,324.891,65.617,324.913,65.617,324.913
					z"/>
			</g>
		</g>
	</g>
	<g>
		<linearGradient id="SVGID_70_" gradientUnits="userSpaceOnUse" x1="137.7427" y1="280.1748" x2="136.4136" y2="375.8732">
			<stop  offset="0" style="stop-color:#F5F7F6"/>
			<stop  offset="1" style="stop-color:#3B3B3B"/>
		</linearGradient>
		<path fill="url(#SVGID_70_)" d="M179.162,304.154v-12.631c0-2.936-2.381-5.315-5.316-5.315h-12.847v-0.003H94.985v5.281
			c0,0.014-0.002,0.025-0.002,0.037v73.548c0,2.937,2.38,5.315,5.317,5.315h12.85v0.032h66.014v-66.265H179.162z"/>
		<linearGradient id="SVGID_71_" gradientUnits="userSpaceOnUse" x1="137.6738" y1="285.1162" x2="136.4812" y2="370.9912">
			<stop  offset="0" style="stop-color:#F5F7F6"/>
			<stop  offset="1" style="stop-color:#CCCCCC"/>
		</linearGradient>
		<path fill="url(#SVGID_71_)" d="M174.842,306.634V295.3c0-2.635-2.136-4.771-4.771-4.771h-11.527v-0.003H99.305v4.738
			c0,0.013-0.001,0.024-0.001,0.035v65.997c0,2.636,2.136,4.772,4.77,4.772h11.532v0.028h59.239v-59.464H174.842z"/>
		<linearGradient id="SVGID_72_" gradientUnits="userSpaceOnUse" x1="137.0737" y1="319.5098" x2="137.0737" y2="354.9545">
			<stop  offset="0" style="stop-color:#F5F7F6"/>
			<stop  offset="1" style="stop-color:#A1A1A1"/>
		</linearGradient>
		<path fill="url(#SVGID_72_)" d="M173.819,307.221v-11.026c0-2.562-2.078-4.642-4.642-4.642h-11.215v-0.003h-57.634v4.611
			c0,0.012-0.002,0.021-0.002,0.033v64.21c0,2.563,2.079,4.642,4.641,4.642h11.22v0.028h57.635v-57.854H173.819z"/>
		<g>
			<circle fill="#1A1A1A" cx="122.826" cy="328.668" r="10.885"/>
			<g>
				<circle fill="#1A1A1A" cx="150.899" cy="328.668" r="10.885"/>
			</g>
		</g>
		<g>
			<circle fill="#265292" cx="122.383" cy="329.111" r="10.885"/>
			<g>
				<circle fill="#B41F6B" cx="150.455" cy="329.111" r="10.885"/>
			</g>
		</g>
		<path opacity="0.14" fill="#FFFFFF" d="M178.319,304.904h-0.002v-12.339c0-2.869-2.325-5.192-5.193-5.192h-12.551v-0.005H96.082
			v5.159c0,0.014-0.002,0.025-0.002,0.038V342.5c24.434-13.035,52.139-19.377,82.24-16.081V304.904z"/>
	</g>
	<g>
		<g>
			<linearGradient id="SVGID_73_" gradientUnits="userSpaceOnUse" x1="425.6211" y1="280.4727" x2="424.292" y2="376.1727">
				<stop  offset="0" style="stop-color:#F5F7F6"/>
				<stop  offset="1" style="stop-color:#3B3B3B"/>
			</linearGradient>
			<path fill="url(#SVGID_73_)" d="M467.04,304.454v-12.631c0-2.937-2.381-5.317-5.316-5.317h-12.846v-0.002h-66.015v5.28
				c0,0.015-0.002,0.025-0.002,0.039v73.546c0,2.937,2.38,5.317,5.316,5.317h12.85v0.03h66.015v-66.263H467.04z"/>
			<linearGradient id="SVGID_74_" gradientUnits="userSpaceOnUse" x1="425.5527" y1="285.415" x2="424.36" y2="371.2911">
				<stop  offset="0" style="stop-color:#F5F7F6"/>
				<stop  offset="1" style="stop-color:#CCCCCC"/>
			</linearGradient>
			<path fill="url(#SVGID_74_)" d="M462.721,306.933v-11.334c0-2.635-2.137-4.771-4.771-4.771h-11.527v-0.003h-59.239v4.738
				c0,0.012-0.003,0.022-0.003,0.035v65.997c0,2.635,2.138,4.772,4.771,4.772h11.532v0.028h59.239v-59.464H462.721z"/>
			<linearGradient id="SVGID_75_" gradientUnits="userSpaceOnUse" x1="424.5645" y1="309.4775" x2="425.8936" y2="375.2705">
				<stop  offset="0" style="stop-color:#CDC62B"/>
				<stop  offset="1" style="stop-color:#836F2C"/>
			</linearGradient>
			<path fill="url(#SVGID_75_)" d="M461.696,307.52v-11.026c0-2.563-2.078-4.642-4.641-4.642H445.84v-0.003h-57.634v4.611
				c0,0.012-0.002,0.021-0.002,0.033v64.209c0,2.564,2.079,4.643,4.641,4.643h11.22v0.027h57.635V307.52H461.696z"/>
			<path opacity="0.21" fill="#FFFFFF" d="M466.196,305.202h-0.002v-12.338c0-2.868-2.325-5.194-5.193-5.194h-12.55v-0.003h-64.493
				v5.159c0,0.014-0.002,0.024-0.002,0.038v49.935c24.435-13.036,52.14-19.377,82.24-16.082V305.202z"/>
		</g>
		<g>
			<path fill="#A18830" d="M457.918,294.771h-2.443h-0.314h-43.707c-7.06,4.639-11.527,11.468-11.527,19.084
				c0,7.268,4.067,13.814,10.572,18.432l-5.31,10.214l14.291-5.646c4.258,1.476,8.991,2.305,13.984,2.305
				c9.751,0,18.526-3.143,24.653-8.155v-0.058c0.215-0.08,0.372-0.284,0.372-0.53v-35.071
				C458.489,295.027,458.231,294.771,457.918,294.771z M433.371,329.315c-11.72,0-21.219-7.025-21.219-15.692
				s9.499-15.694,21.219-15.694c11.718,0,21.218,7.027,21.218,15.694S445.089,329.315,433.371,329.315z"/>
			<linearGradient id="SVGID_76_" gradientUnits="userSpaceOnUse" x1="429.9502" y1="334.2764" x2="428.5962" y2="307.1967">
				<stop  offset="0" style="stop-color:#E8E7E8"/>
				<stop  offset="1" style="stop-color:#FFFFFF"/>
			</linearGradient>
			<path fill="url(#SVGID_76_)" d="M457.219,295.368h-2.444h-0.313h-43.707c-7.06,4.641-11.527,11.467-11.527,19.084
				c0,7.267,4.067,13.814,10.572,18.431l-5.31,10.216l14.29-5.649c4.259,1.478,8.992,2.308,13.984,2.308
				c9.752,0,18.526-3.143,24.654-8.155v-0.057c0.216-0.081,0.371-0.286,0.371-0.532v-35.07
				C457.789,295.625,457.533,295.368,457.219,295.368z M432.67,329.913c-11.717,0-21.218-7.026-21.218-15.693
				c0-8.666,9.501-15.694,21.218-15.694c11.72,0,21.22,7.028,21.22,15.694C453.89,322.887,444.39,329.913,432.67,329.913z"/>
		</g>
	</g>
	<g>
		<g>
			<linearGradient id="SVGID_77_" gradientUnits="userSpaceOnUse" x1="329.4629" y1="280.3008" x2="328.1338" y2="375.9992">
				<stop  offset="0" style="stop-color:#F5F7F6"/>
				<stop  offset="1" style="stop-color:#3B3B3B"/>
			</linearGradient>
			<path fill="url(#SVGID_77_)" d="M370.882,304.28v-12.631c0-2.936-2.38-5.315-5.316-5.315h-12.847v-0.004h-66.014v5.281
				c0,0.013-0.002,0.026-0.002,0.038v73.547c0,2.937,2.38,5.316,5.315,5.316h12.852v0.033h66.014V304.28H370.882z"/>
			<linearGradient id="SVGID_78_" gradientUnits="userSpaceOnUse" x1="329.7344" y1="284.6719" x2="328.5417" y2="370.5474">
				<stop  offset="0" style="stop-color:#F5F7F6"/>
				<stop  offset="1" style="stop-color:#CCCCCC"/>
			</linearGradient>
			<path fill="url(#SVGID_78_)" d="M366.903,306.19v-11.334c0-2.633-2.137-4.771-4.771-4.771h-11.527v-0.003h-59.239v4.739
				c0,0.013-0.001,0.021-0.001,0.034v65.998c0,2.635,2.136,4.771,4.771,4.771h11.531v0.028h59.239V306.19H366.903z"/>
			<linearGradient id="SVGID_79_" gradientUnits="userSpaceOnUse" x1="329.1338" y1="319.0664" x2="329.1338" y2="354.5102">
				<stop  offset="0" style="stop-color:#F5F7F6"/>
				<stop  offset="1" style="stop-color:#A1A1A1"/>
			</linearGradient>
			<path fill="url(#SVGID_79_)" d="M365.88,306.778v-11.027c0-2.562-2.078-4.641-4.642-4.641h-11.215v-0.003h-57.635v4.61
				c0,0.011-0.002,0.022-0.002,0.033v64.21c0,2.563,2.079,4.642,4.642,4.642h11.219v0.027h57.635v-57.852H365.88z"/>
			<path opacity="0.14" fill="#FFFFFF" d="M369.881,304.877h-0.002v-12.339c0-2.868-2.324-5.194-5.192-5.194h-12.552v-0.003h-64.491
				v5.159c0,0.014-0.002,0.025-0.002,0.038v49.933c24.434-13.035,52.139-19.374,82.239-16.081V304.877z"/>
		</g>
		<g>
			<path fill="#9B9C9E" d="M318.04,305.904l9.12,8.316l-22.175,19.851C304.985,334.071,301.317,314.847,318.04,305.904z"/>
			<path fill="#9B9C9E" d="M339.321,321.374l-17.973-16.988c0,0,11.714-3.309,18.24,1.162
				C339.321,321.107,339.321,321.374,339.321,321.374z"/>
			<path fill="#9B9C9E" d="M343.165,306.979l-0.089,29.15h10.104C353.181,336.129,359.886,318.692,343.165,306.979z"/>
			<path fill="#9B9C9E" d="M319.202,350.883l0.179-12.071l32.37-0.09C351.751,338.722,343.613,359.556,319.202,350.883z"/>
			<path fill="#9B9C9E" d="M316.61,328.439v20.924c0,0-4.919-0.717-10.462-11.716C314.643,330.227,316.61,328.439,316.61,328.439z"
				/>
		</g>
		<g>
			<linearGradient id="SVGID_80_" gradientUnits="userSpaceOnUse" x1="314.8477" y1="322.7969" x2="317.2373" y2="310.3926">
				<stop  offset="0" style="stop-color:#AC5379"/>
				<stop  offset="1" style="stop-color:#CA6991"/>
			</linearGradient>
			<path fill="url(#SVGID_80_)" d="M317.375,306.349l9.12,8.315l-22.174,19.852C304.321,334.516,300.652,315.291,317.375,306.349z"
				/>
			<linearGradient id="SVGID_81_" gradientUnits="userSpaceOnUse" x1="329.9912" y1="308.5674" x2="330.4468" y2="316.3054">
				<stop  offset="0" style="stop-color:#DA1F26"/>
				<stop  offset="1" style="stop-color:#C62127"/>
			</linearGradient>
			<path fill="url(#SVGID_81_)" d="M338.657,321.817l-17.973-16.988c0,0,11.713-3.31,18.241,1.161
				C338.657,321.551,338.657,321.817,338.657,321.817z"/>
			<linearGradient id="SVGID_82_" gradientUnits="userSpaceOnUse" x1="347.4453" y1="322.3809" x2="348.2416" y2="333.5329">
				<stop  offset="0" style="stop-color:#F4A31E"/>
				<stop  offset="1" style="stop-color:#DB7F27"/>
			</linearGradient>
			<path fill="url(#SVGID_82_)" d="M342.502,307.422l-0.09,29.149h10.104C352.516,336.571,359.222,319.136,342.502,307.422z"/>
			<linearGradient id="SVGID_83_" gradientUnits="userSpaceOnUse" x1="332.2617" y1="337.7754" x2="337.0407" y2="351.7731">
				<stop  offset="0" style="stop-color:#066434"/>
				<stop  offset="1" style="stop-color:#18431F"/>
			</linearGradient>
			<path fill="url(#SVGID_83_)" d="M318.537,351.325l0.179-12.071l32.37-0.089C351.086,339.165,342.948,359.998,318.537,351.325z"/>
			<linearGradient id="SVGID_84_" gradientUnits="userSpaceOnUse" x1="310.8408" y1="334.6465" x2="311.9792" y2="345.1176">
				<stop  offset="0" style="stop-color:#1F3F79"/>
				<stop  offset="1" style="stop-color:#1E305F"/>
			</linearGradient>
			<path fill="url(#SVGID_84_)" d="M315.945,328.881v20.925c0,0-4.919-0.716-10.462-11.715
				C313.978,330.671,315.945,328.881,315.945,328.881z"/>
		</g>
	</g>
	<g>
		<linearGradient id="SVGID_85_" gradientUnits="userSpaceOnUse" x1="424.8867" y1="184.4971" x2="423.5576" y2="280.1949">
			<stop  offset="0" style="stop-color:#F5F7F6"/>
			<stop  offset="1" style="stop-color:#3B3B3B"/>
		</linearGradient>
		<path fill="url(#SVGID_85_)" d="M466.308,208.478v-12.63c0-2.938-2.381-5.317-5.316-5.317h-12.848v-0.003H382.13v5.281
			c0,0.015-0.002,0.024-0.002,0.039v73.547c0,2.935,2.381,5.315,5.316,5.315h12.851v0.031h66.015v-66.264H466.308z"/>
		<linearGradient id="SVGID_86_" gradientUnits="userSpaceOnUse" x1="424.8193" y1="189.4365" x2="423.6266" y2="275.3137">
			<stop  offset="0" style="stop-color:#F5F7F6"/>
			<stop  offset="1" style="stop-color:#CCCCCC"/>
		</linearGradient>
		<path fill="url(#SVGID_86_)" d="M461.988,210.956v-11.333c0-2.635-2.136-4.771-4.771-4.771h-11.529v-0.003h-59.239v4.739
			c0,0.012-0.001,0.023-0.001,0.035v65.997c0,2.635,2.136,4.771,4.77,4.771h11.532v0.029h59.24v-59.465H461.988z"/>
		<linearGradient id="SVGID_87_" gradientUnits="userSpaceOnUse" x1="424.2188" y1="223.832" x2="424.2188" y2="259.2768">
			<stop  offset="0" style="stop-color:#F5F7F6"/>
			<stop  offset="1" style="stop-color:#A1A1A1"/>
		</linearGradient>
		<path fill="url(#SVGID_87_)" d="M460.965,211.543v-11.025c0-2.564-2.079-4.643-4.643-4.643h-11.215v-0.003h-57.634v4.611
			c0,0.011-0.002,0.022-0.002,0.034v64.209c0,2.564,2.078,4.643,4.641,4.643h11.22v0.027h57.634L460.965,211.543L460.965,211.543z"
			/>
		<path fill="#9B9C9E" d="M445.69,233.872c1.742-7.99,4.025-19.081-1.508-22.771c-7.822-4.347-19.581,12.188-21.564,15.271
			c-0.611-0.817-1.053-1.229-1.18-1.016c-0.17,0.284-0.255,0.672-0.278,1.13c-3.192-2.462-14.604-11.166-19.378-8.258
			c-2.984,1.629,3.015,16.979,13.947,22.396c0.309,1.333,5.182,12.885,11.736,12.034c1.942-0.495,2.267-4.401,2.368-7.273
			c1.782,2.177,5.723,5.802,8.518,5.243c6.32-1.45,7.398-12.492,7.369-16.007c0.044-0.287,0.03-0.527-0.026-0.705
			C445.693,233.9,445.691,233.887,445.69,233.872z"/>
		<g>
			<path fill="#6E8337" d="M415.217,241.061c0.173,1.037,5.097,12.96,11.751,12.097c2.373-0.605,2.332-6.308,2.419-8.985
				c0.084-2.679-2.074-4.147-2.767-4.493c-0.691-0.346-4.751-1.815-6.048-1.296C419.277,238.901,415.217,241.061,415.217,241.061z"
				/>
			<path fill="#047099" d="M415.734,238.556h6.507c0.39-2.496,0.879-6.351,0.879-6.351l-1.618-4.601
				c0.324,0.453-14.581-12.312-20.219-8.878c-3.029,1.654,3.196,17.463,14.451,22.646V238.556z"/>
			<path fill="#03572F" d="M422.732,230.952c-0.259-1.382-9.072-4.233-7.43,10.108c0,0,7.345,5.357,11.146-0.604
				c0.865-4.407-0.778-6.396-1.123-6.567C424.979,233.718,422.732,230.952,422.732,230.952z"/>
			<g>
				<path fill="#EBBB1E" d="M445.174,234.214c0.26,1.686-0.259,15.293-7.32,16.912c-3.241,0.648-8.037-4.341-9.203-6.155
					s-2.851-9.396-2.851-9.396l2.592-5.249l11.599,1.038L445.174,234.214z"/>
				<path fill="#DF4B26" d="M421.846,227.345c-0.582,0.647,13.091-20.605,21.839-15.745c5.832,3.887,2.98,16.005,1.23,24.04
					l-9.396-1.296l-11.469-3.435L421.846,227.345z"/>
				<path fill="#DF9026" d="M423.144,228.511c-0.52,0.324,16.696-6.674,22.03,5.833c0.6,1.402-2.072,8.035-16.588,5.702
					C424.568,235.705,423.144,228.511,423.144,228.511z"/>
				<path fill="#1E2948" d="M420.94,225.855c0.532-0.897,6.522,9.092,7.58,14.256c0.47,2.254,1.21,5.81,0.691,5.616
					C427.637,245.403,418.974,229.16,420.94,225.855z"/>
			</g>
		</g>
		<path opacity="0.2" fill="#FFFFFF" d="M465.464,209.226h-0.002v-12.338c0-2.868-2.324-5.192-5.193-5.192h-12.552v-0.004h-64.49
			v5.159c0,0.013-0.002,0.024-0.002,0.037v49.935c24.434-13.035,52.138-19.376,82.239-16.081V209.226z"/>
	</g>
</g>
</svg>
