<?xml version="1.0" encoding="utf-8"?>
<!-- Generator: Adobe Illustrator 17.0.1, SVG Export Plug-In . SVG Version: 6.00 Build 0)  -->
<!DOCTYPE svg PUBLIC "-//W3C//DTD SVG 1.1//EN" "http://www.w3.org/Graphics/SVG/1.1/DTD/svg11.dtd">
<svg version="1.1" id="Layer_1" xmlns="http://www.w3.org/2000/svg" xmlns:xlink="http://www.w3.org/1999/xlink" x="0px" y="0px"
	 width="588.271px" height="112.195px" viewBox="0 0 588.271 112.195" enable-background="new 0 0 588.271 112.195"
	 xml:space="preserve">
<path fill="#3D3E3F" d="M10.439,85.557V41.878H0v-14.52h10.439v-3.48C10.439,6.72,22.919,0,34.438,0c6.6,0,11.28,1.8,16.439,5.04
	l-5.88,12.119c-2.76-1.68-5.879-2.399-8.52-2.399c-5.16,0-8.76,2.88-8.76,9.119v3.48h16.439v14.52H27.719v43.678H10.439z"/>
<path fill="#3D3E3F" d="M66.958,26.399l1.32,6.48c3.959-5.52,7.239-6.92,13.839-6.92c5.64,0,10.32,1.68,14.52,5.4l-7.2,13.679
	c-2.88-2.04-5.879-3-9.479-3c-7.44,0-11.799,3.8-11.799,12.679v30.839H50.879V26.399H66.958z"/>
<path fill="#3D3E3F" d="M110.43,61.558c0.229,6.354,6.429,10.439,16.148,10.439c4.68,0,9.159-1.08,13.359-4.68l9.72,10.8
	c-6.36,6.239-14.56,8.76-23.439,8.76c-18.788,0-31.238-12.6-31.238-31.559c0-16.262,11.7-30.86,29.117-30.861
	c17.833-0.001,31.667,14.766,27.96,37.1H110.43z M136.298,49.021c-0.36-6.479-5.175-9.9-12.375-9.9
	c-6.959,0-11.333,2.999-12.597,9.899L136.298,49.021z"/>
<path fill="#3D3E3F" d="M173.141,61.558c0.229,6.354,6.429,10.439,16.148,10.439c4.68,0,9.159-1.08,13.359-4.68l9.72,10.8
	c-6.36,6.239-14.56,8.76-23.439,8.76c-18.788,0-31.238-12.6-31.238-31.559c0-16.262,11.7-30.86,29.117-30.861
	c17.833-0.001,31.667,14.766,27.96,37.1H173.141z M199.009,49.021c-0.36-6.479-5.175-9.9-12.375-9.9
	c-6.959,0-11.333,2.999-12.597,9.899L199.009,49.021z"/>
<path fill="#3D3E3F" d="M429.679,61.558c0.229,6.354,6.429,10.439,16.148,10.439c4.68,0,9.159-1.08,13.359-4.68l9.72,10.8
	c-6.36,6.239-14.56,8.76-23.439,8.76c-18.788,0-31.238-12.6-31.238-31.559c0-16.262,11.7-30.86,29.117-30.861
	c17.833-0.001,31.667,14.766,27.96,37.1H429.679z M455.547,49.021c-0.36-6.479-5.175-9.9-12.375-9.9
	c-6.959,0-11.333,2.999-12.597,9.899L455.547,49.021z"/>
<path fill="#3D3E3F" d="M259.385,42.6c-4.143-2.707-8.472-4.418-13.539-4.418c-5.64,0-9.667,2.412-9.667,5.292
	c0,3.24,4.157,4.714,9.917,4.833c11.639,0.36,25.87,3.292,25.99,19.611c0.12,9.599-7.08,19.919-25.919,19.919
	c-8.76,0-17.759-1.681-27.839-10.08l9.992-10.324c6.409,4.377,12.64,6.018,18.151,6.124c5.04,0.12,9.606-2.194,9.486-5.313
	c0-2.761-2.711-5.366-10.75-5.606c-11.04-0.479-24.839-5.04-24.839-18.959c0-13.439,12.719-19.079,25.559-19.079
	c9.119,0,16.439,2.28,22.679,7.68L259.385,42.6z"/>
<path fill="#3D3E3F" d="M301.026,7.08v19.56h15v14.399h-15.12v22.319c0,6.24,3.48,7.92,6.721,7.92c2.039,0,5.279-0.48,7.199-1.439
	l3.96,14.398c-4.32,1.681-7.8,2.4-12.479,2.641c-12.84,0.6-22.56-5.04-22.56-23.52V41.039h-10.559V26.639h10.559V12L301.026,7.08z"
	/>
<path fill="#3D3E3F" d="M388.224,26.279l-36.358,85.916h-18.84l12.241-28.438l-24.839-57.478h19.439l14.76,37.318l14.52-37.318
	H388.224z"/>
<path fill="#3D3E3F" d="M409.146,1.68v83.876h-17.159V1.68H409.146z"/>
<path fill="#98D5E9" d="M365.669,80.099"/>
<path fill="#98D5E9" d="M493.609,30.126c0.988-11.458,3.577-17.966,8.961-21.271c4.188-2.571,10.757-3.066,22.249-1.948
	c0,0-5.121,3.476-8.098,9.31c-4.754,9.318-1.981,32.581-19.661,32.581h-12.966C485.003,45.838,492.065,48.025,493.609,30.126z"/>
<path fill="#00A1DF" d="M493.609,67.47c0.988,11.458,3.577,17.966,8.961,21.271c4.188,2.571,10.757,3.066,22.249,1.948
	c0,0-5.121-3.476-8.098-9.31c-4.754-9.318-1.981-32.581-19.661-32.581h-12.966C485.003,51.758,492.065,49.571,493.609,67.47z"/>
<path fill="#FFC700" d="M578.756,30.126c-0.988-11.458-3.577-17.966-8.961-21.271c-4.188-2.571-10.757-3.066-22.249-1.948
	c0,0,5.121,3.476,8.098,9.31c4.754,9.318,1.981,32.581,19.661,32.581h12.966C587.362,45.838,580.3,48.025,578.756,30.126z"/>
<path fill="#FF8300" d="M578.756,67.47c-0.988,11.458-3.577,17.966-8.961,21.271c-4.188,2.571-10.757,3.066-22.249,1.948
	c0,0,5.121-3.476,8.098-9.31c4.754-9.318,1.981-32.581,19.661-32.581h12.966C587.362,51.758,580.3,49.571,578.756,67.47z"/>
</svg>
